<?xml version="1.0" encoding="utf-8"?>
<!-- Generator: Adobe Illustrator 23.0.0, SVG Export Plug-In . SVG Version: 6.00 Build 0)  -->
<svg version="1.1" id="Layer_1" xmlns="http://www.w3.org/2000/svg" xmlns:xlink="http://www.w3.org/1999/xlink" x="0px" y="0px"
	 viewBox="0 0 148.05 72.71" style="enable-background:new 0 0 148.05 72.71;" xml:space="preserve">
<style type="text/css">
	.st0{fill:#FFFFFF;}
</style>
<g id="Layer_2">
	<g>
		<path d="M143.16,31.4c-1.48,1.06-3.05,1.94-4.66,2.78c0.04-1.75-0.12-3.46-0.59-5.13c0.05-0.33,0.1-0.67,0.15-1
			c0.38-3,0.66-7.12-2-9.22c-0.33-0.26-1.25-0.03-1.92,0.27c-0.16-0.15-0.32-0.29-0.5-0.41c-0.08-0.24-0.16-0.49-0.23-0.74
			c-0.04-0.12-0.17-0.19-0.36-0.21c0.29-0.38,0.26-0.82-0.42-1.09c-0.38-0.15-0.76-0.29-1.14-0.41c-0.07-0.07-0.13-0.1-0.17-0.06
			c0,0,0,0-0.01,0c-0.94-0.3-1.89-0.53-2.86-0.71c0.14-0.33,0.4-0.81,0.55-1c0.13-0.16,0.28-0.3,0.43-0.44
			c0.06-0.06,0.13-0.11,0.19-0.17c0.03-0.03,0.05-0.05,0.07-0.06c0.02-0.01,0.04-0.03,0.08-0.06c0.38-0.29,0.85-0.86,0.22-1.2
			c-0.57-0.31-1.51-0.14-2.01,0.24c-0.86,0.66-1.63,1.38-2.09,2.36c-2.01-0.17-4.05-0.15-6.08-0.08c0.06-0.08,0.11-0.16,0.14-0.25
			c0.18-0.58-0.91-0.52-1.19-0.49c-1.56,0.21-3.13,0.41-4.69,0.6c1.37-3.77,3.08-8.58,1-12.26c-1.19-2.11-3.91-2.58-6.1-2.65
			c-2.44-0.08-4.9,0.46-7.04,1.64c-4.76,2.62-7.11,7.71-8.21,13.14c-0.5-0.66-2.3-0.43-2.64,0.47c-0.13,0.32-0.23,0.64-0.33,0.97
			c-0.16,0.17-0.28,0.39-0.34,0.64c-0.01,0.06-0.03,0.11-0.04,0.17c-0.07,0-0.13,0-0.2,0.01c0.02-0.1,0.04-0.21,0.06-0.31
			c0.15-0.11,0.25-0.23,0.28-0.37c0.57-2.3,1.16-4.59,1.95-6.82c0.27-0.76-2.51-0.4-2.8,0.43c-0.42,1.19-0.79,2.4-1.12,3.62
			c-0.17,0.08-0.36,0.19-0.43,0.33c-0.02,0.03-0.03,0.07-0.05,0.1c-0.11-0.09-0.27-0.15-0.47-0.18c0-0.32,0-0.64,0-0.96
			c0-0.43-2.82-0.03-2.82,0.76c0,0.52,0,1.05,0,1.57c-0.17,0.07-0.33,0.16-0.47,0.27c-0.06,0.06-0.13,0.11-0.19,0.17
			c-0.07,0.07-0.11,0.15-0.12,0.24C84,15.91,84,15.94,83.99,15.96c-0.02,0.02-0.03,0.05-0.05,0.07c-0.13,0.13-0.18,0.34-0.03,0.47
			c0.19,0.16,0.51,0.17,0.74,0.16c0.05,0,0.1-0.01,0.15-0.01c0,0.16,0,0.31,0,0.47c-0.23,0-0.45,0-0.67-0.01l-0.41-0.05
			c-0.02-0.39-0.68-0.45-1.35-0.33c0.01-0.05,0.01-0.1,0-0.15c-0.1-0.6-0.17-1.19-0.23-1.79c0.24-0.08,0.47-0.18,0.68-0.31
			c0.16-0.1,0.33-0.22,0.33-0.43c0-0.06,0-0.13,0-0.19c0-0.18-0.41-0.2-0.5-0.21c-0.2-0.01-0.39,0.01-0.59,0.04
			c-0.08-1.31-0.08-2.62-0.08-3.93c0-0.84-2.82-0.31-2.82,0.76c0,1.79,0.01,3.57,0.19,5.34c-0.09,0-0.18,0-0.27,0.01
			c0-0.51,0-1.02,0-1.53c0-1.04-1.3-1.22-2.15-0.81c0.31-0.26,0.49-0.62,0.37-1.04c-0.4-1.41-0.78-2.83-0.97-4.29
			c-0.19-1.39-3.02-0.68-2.82,0.76c0.2,1.46,0.57,2.87,0.98,4.29c0.24,0.83,1.34,0.89,2.1,0.51c-0.23,0.2-0.37,0.45-0.37,0.76
			c0,0.21,0,0.42,0,0.63c-0.19-0.1-0.44-0.16-0.77-0.16c-1.06,0-1.67,0.89-1.4,1.48c-0.16-0.03-0.33-0.05-0.49-0.08
			c-0.38-1.25-0.69-2.51-0.71-3.83c-0.02-0.94-1.27-1.05-2.11-0.67c-0.01-0.06-0.02-0.11-0.05-0.17c-0.39-0.8-0.57-1.67-0.78-2.53
			c-0.33-1.35-3.16-0.6-2.82,0.76c0.16,0.64,0.3,1.28,0.52,1.9c-0.02,0-0.04,0.01-0.06,0.01c-0.3,0.08-0.6,0.21-0.85,0.39
			c-0.83,0.08-1.83,0.57-1.75,1.21c0.06,0.48,0.13,0.95,0.21,1.43c-0.55,0.09-1.09,0.18-1.64,0.26c-0.29-0.79-0.5-1.6-0.62-2.44
			c-0.13-0.92-1.56-0.85-2.33-0.26c-0.77-2.06-1.8-4.02-3.12-5.76c-2.62-3.44-7.1-4.61-11.24-3.79c-1.9,0.38-3.73,1.18-5.04,2.65
			c-1.21,1.35-1.35,3.09-1.17,4.8c0.16,1.49,0.61,4.01,1.58,5.98c-0.35-0.01-0.71,0.04-0.95,0.14c-0.28,0.12-0.56,0.25-0.83,0.39
			c-1.94,0.03-3.88,0.02-5.8-0.07c-4.18-0.19-8.3-0.86-12.5-0.74c-0.92,0.03-1.53,0.72-1.46,1.26c-1.05,0.5-1.73,1.31-2.14,2.29
			c-1.73-1.15-3.48-2.27-5.34-3.21c-0.69-0.35-3.3,0.71-2.29,1.22c1.84,0.94,3.56,2.07,5.28,3.22c0.51,0.34,1.32,0.13,1.84-0.07
			c0.03-0.01,0.09-0.04,0.17-0.08c-0.31,1.44-0.16,3.07,0.24,4.49c0.03,0.11,0.09,0.2,0.17,0.27c-0.02,0.34-0.02,0.68-0.01,1.02
			c0,0.06,0,0.11,0,0.17c-0.4,0.19-0.71,0.48-0.76,0.84c-0.19,1.41-0.28,2.82-0.31,4.23c-0.27,0.2-0.46,0.47-0.48,0.8
			c-0.23,3.34,0.04,6.65,0.47,9.95c0.19,2.69,0.69,5.34,1.17,8c0.06,0.42,0.11,0.83,0.17,1.25c-0.27,1.13-0.4,2.39-0.24,3.48
			c-0.88,0.17-1.73,0.87-1.23,1.62c0.77,1.16,1.64,2.02,2.61,2.65c-0.63-0.1-1.42,0.11-1.87,0.55c-0.82,0.81-1.71,1.53-2.53,2.34
			c-0.43,0.42-0.31,0.93,0.29,1.08c0.65,0.16,1.52-0.06,2-0.54c0.82-0.81,1.72-1.53,2.53-2.34c0.25-0.25,0.31-0.52,0.2-0.73
			c3.21,1.73,7.23,1.27,11.11,0.94c-0.88,1.59-1.54,3.27-2.17,5c-0.26,0.72,2.51,0.37,2.8-0.44c0.61-1.68,1.24-3.34,2.1-4.9
			c3.74,0.12,7.48,0.12,11.21,0.05c0.15,0.18,0.42,0.31,0.75,0.34c3.27,0.31,6.49-0.1,9.69-0.7c4.79-0.23,9.58-0.53,14.37-0.81
			c7.53-0.19,15.06-0.35,22.59-0.32c0.1,0.11,0.2,0.21,0.31,0.32c0.27,0.26,0.62,0.34,0.98,0.33c0.06,0.01,0.13,0.02,0.2,0.02
			c0.71,0.04,1.43,0.09,2.14,0.15c0.16,0.04,0.34,0.06,0.56,0.05c0,0,0,0,0,0c0.78,0.07,1.56,0.14,2.35,0.21
			c0.17,0.21,0.5,0.34,0.79,0.36c3.8,0.25,7.61,0.52,11.42,0.7c0.14,0.23,0.54,0.34,0.82,0.34c7.07,0.06,15.28,2.8,21.56-1.74
			c0.5-0.36,0.27-0.88-0.26-0.98c-0.11-0.02-0.22-0.03-0.33-0.03c0.01-0.02,0.02-0.03,0.02-0.04c1.19-2.77,2.17-5.63,2.94-8.55
			c0.37-0.2,0.63-0.49,0.65-0.86c0.05-1.19,0.19-2.41,0.37-3.64c0.17-0.88,0.31-1.77,0.44-2.66c0.39-2.17,0.81-4.37,1.02-6.54
			c2.28-1.15,4.54-2.33,6.62-3.82C146.56,31.42,144.21,30.65,143.16,31.4z M87.83,16.35c-0.05,0.04-0.09,0.08-0.13,0.12
			c0.07-0.31,0.15-0.62,0.23-0.93c0.04,0,0.07,0,0.11,0C87.97,15.81,87.9,16.08,87.83,16.35z"/>
		<path d="M63.26,12.63c0.13,0.2,0.56,0.22,0.75,0.22c0.38,0,0.76-0.08,1.11-0.22c0.4-0.17,1.1-0.56,0.77-1.07
			c-0.36-0.56-0.61-1.19-0.98-1.75c-0.13-0.2-0.56-0.22-0.75-0.22c-0.38,0-0.76,0.08-1.1,0.23c-0.4,0.17-1.1,0.56-0.77,1.07
			C62.65,11.43,62.9,12.06,63.26,12.63z"/>
		<path d="M20.68,10.91c0.22,0.65,1.11,0.65,1.65,0.5c0.47-0.13,1.39-0.62,1.17-1.26c-0.21-0.62-0.43-1.29-0.89-1.78
			c-0.48-0.51-1.32-0.42-1.9-0.15c-0.41,0.19-1.18,0.84-0.69,1.35C20.4,9.97,20.49,10.34,20.68,10.91z"/>
		<path d="M30.66,13.9c0.84,0,3.07-1.28,1.19-1.28C31,12.62,28.77,13.9,30.66,13.9z"/>
		<path d="M122.56,12.27c0.35,0.07,0.72,0.03,1.05-0.06c0.32-0.09,0.7-0.23,0.94-0.48c0.35-0.36,0.73-0.73,0.96-1.18
			c0.1-0.2,0.17-0.4,0-0.59c-0.19-0.2-0.51-0.25-0.76-0.25c-0.38-0.01-0.76,0.07-1.11,0.22c-0.25,0.11-0.62,0.29-0.76,0.55
			c-0.1,0.19-0.22,0.35-0.35,0.51c-0.01,0.01-0.02,0.02-0.02,0.03c-0.01,0.01-0.02,0.02-0.03,0.03c-0.06,0.07-0.13,0.13-0.2,0.2
			c-0.16,0.16-0.35,0.36-0.28,0.61C122.08,12.12,122.35,12.23,122.56,12.27z"/>
		<path d="M135.86,17.69c0.63-0.06,1.39-0.25,1.89-0.66c1.32-1.1,2.6-2.25,3.62-3.64c0.29-0.39-1.05-0.24-1.12-0.23
			c-0.53,0.1-1.32,0.28-1.66,0.75c-0.95,1.3-2.16,2.35-3.39,3.37C134.71,17.69,135.65,17.71,135.86,17.69z"/>
		<path d="M146.74,44.77c-1.62,0-3.25,0-4.87,0c-0.62,0-1.48,0.47-1.56,1.14c-0.09,0.74,0.75,0.92,1.3,0.92c1.62,0,3.25,0,4.87,0
			c0.62,0,1.48-0.47,1.56-1.14C148.13,44.95,147.29,44.77,146.74,44.77z"/>
		<path d="M57.02,60.78c-0.5,0.08-1.41,0.3-1.64,0.83c-0.54,1.27-0.98,2.57-1.36,3.9c-0.21,0.73,2.57,0.33,2.8-0.45
			c0.38-1.33,0.83-2.63,1.36-3.9C58.4,60.64,57.21,60.75,57.02,60.78z"/>
		<path d="M61.6,63.38c-0.35,0-0.7,0.06-1.03,0.15c-0.33,0.09-0.67,0.21-0.97,0.38c-0.14,0.08-0.34,0.2-0.34,0.39
			c0,0.12-0.01,0.23-0.02,0.35c-0.02,0.1-0.06,0.2-0.13,0.29c0,0,0.01-0.01,0.01-0.01c-0.06,0.08-0.11,0.18,0.02,0.25
			c0.2,0.11,0.5,0.08,0.71,0.06c0.37-0.04,0.75-0.13,1.1-0.25c0.24-0.08,0.61-0.21,0.79-0.41c0.15-0.16,0.24-0.29,0.28-0.5
			c0.04-0.18,0.05-0.35,0.05-0.53C62.09,63.38,61.67,63.38,61.6,63.38z"/>
		<path d="M116.65,67.05c-0.35-0.69-3.04,0.33-2.82,0.76c0.84,1.64,1.94,3.12,2.92,4.68c0.44,0.69,3.04-0.41,2.82-0.76
			C118.59,70.17,117.5,68.69,116.65,67.05z"/>
		<path d="M120.74,64.71c-0.29-0.59-1.07-0.56-1.62-0.41c-0.35,0.09-1.49,0.6-1.2,1.17c0.39,0.78,0.78,1.56,1.17,2.34
			c0.29,0.59,1.07,0.56,1.62,0.41c0.35-0.09,1.49-0.6,1.2-1.17C121.52,66.27,121.13,65.49,120.74,64.71z"/>
		<path d="M5.67,43.11c-1.49,0.36-3.01,0.57-4.48,0.97c-0.54,0.15-1.34,0.64-1.16,1.32c0.18,0.67,1.13,0.71,1.66,0.56
			c1.48-0.4,3-0.62,4.48-0.98c0.54-0.13,1.34-0.65,1.16-1.32C7.15,42.98,6.21,42.97,5.67,43.11z"/>
	</g>
</g>
<g id="Layer_1_1_">
	<g>
		<path class="st0" d="M43.75,40.11c-0.08-2.71-0.51-5.4-0.48-8.11c0.03-2.19,0.39-4.45-0.36-6.55c0.05-0.24,0.1-0.48,0.14-0.72
			c0.2-1.06-3.3-0.5-3.85,0.47c-0.35,0.28-0.52,0.62-0.38,0.97c0.04,0.09,0.07,0.17,0.1,0.26c-0.66,3.23-1.58,6.36-2.65,9.5
			c-0.41,1.2-0.9,2.37-1.31,3.57c-0.59-1.11-1.18-2.21-1.66-3.41c-1.39-3.46-2.64-6.97-4.33-10.3c0.19-1.54-3.23-1.38-3.91,0.03
			c-0.82,1.71-0.71,3.43-0.44,5.26c0.3,2.06,0.36,4.09,0.38,6.17c0.05,4.01,0.36,8.02,0.42,12.03c-0.36,0.4-0.47,0.89-0.09,1.39
			c0.16,0.22,0.36,0.38,0.58,0.55c0.91,0.73,3.53,0.11,3.53-1.28c-0.01-4.16-0.31-8.31-0.42-12.47c-0.01-0.41-0.02-0.81-0.02-1.22
			c0.06,0.15,0.12,0.29,0.17,0.44c0.65,1.62,1.32,3.19,2.2,4.7c0.88,1.49,1.32,3.09,1.82,4.72c-0.19,0.22-0.31,0.47-0.23,0.71
			c-0.04,0.18,0.07,0.29,0.25,0.36c0.65,0.55,1.86,0.28,2.53-0.01c0.29-0.12,0.57-0.26,0.83-0.43c0.35-0.21,0.89-0.69,0.73-1.17
			c-0.03-0.09-0.06-0.19-0.09-0.28c0.48-1.28,0.72-2.61,0.98-3.96c0.27-1.44,0.79-2.81,1.31-4.17c0.05,0.63,0.11,1.25,0.16,1.87
			c0.21,2.58,0.03,5.12,0.01,7.7c-0.01,0.85,0.05,1.65,0.22,2.48c0.07,0.34,0.37,1.82,0.28,1.9c-0.62,0.57-0.44,1.27,0.39,1.45
			c0.92,0.2,2.1-0.11,2.79-0.75c1.21-1.12,0.64-2.87,0.36-4.28C43.27,45.16,43.83,42.51,43.75,40.11z"/>
		<path class="st0" d="M52.19,40.79c-0.07-2.01-0.77-3.9-0.78-5.93c-0.01-2.33,0.18-4.63-0.16-6.95c-0.11-0.73-4.09,0.1-3.95,1.06
			c0.31,2.13,0.2,4.27,0.16,6.41c-0.04,2.06,0.47,3.93,0.74,5.96c0.27,2.07-0.08,4.2,0.15,6.27c0.11,0.97,0.76,2.77,0.09,3.61
			c-0.42,0.54,1.48,0.34,1.57,0.33c0.78-0.14,1.81-0.4,2.32-1.05c0.66-0.84,0.2-2.45,0.05-3.39C52.07,45.04,52.27,42.88,52.19,40.79
			z"/>
		<path class="st0" d="M68.67,37.44c-2.08-2.81-5.94-0.79-8.64-1.55c-1.39-0.4-1.41-2.29-1.4-3.43c0-1.44-0.11-2.76-0.28-4.18
			c-0.12-1.06-0.02-2.14,0.75-2.93C59.25,25.2,59.97,25,59.92,25c0.36-0.06,0.68-0.08,1.08-0.09c1.56-0.07,4.65,0.23,4.06,2.51
			c-0.27,1.02,3.63,0.44,3.91-0.64c1.22-4.64-7.35-3.75-9.77-3.11c-2.23,0.59-4.69,1.86-4.82,4.44c-0.06,1.23,0.27,2.4,0.33,3.62
			c0.06,1.4-0.2,2.8,0.29,4.15c1.09,3.01,5.57,1.59,7.85,1.76c3.88,0.29,2.72,5.52,2.77,7.96c0.03,1.3,1.19,3.46,0.21,4.55
			c-0.6,0.67-2,0.71-2.82,0.77c-0.82,0.07-2.22,0.32-2.77-0.46c-1-1.43,0.09-3.83-0.12-5.47c-0.12-0.93-4.1-0.1-3.95,1.06
			c0.35,2.65-1.41,6.2,2.42,6.65c2.46,0.29,5.24-0.16,7.57-0.94c1.21-0.4,2.33-0.95,3.27-1.81c1.04-0.95,0.7-2.37,0.42-3.58
			C69.17,43.42,70.59,40.03,68.67,37.44z"/>
		<path class="st0" d="M86.15,37.25c-0.12-3.81-0.7-7.58-0.71-11.4c-0.01-1.99-4-1.32-3.99,0.35c0.01,3.64,0.5,7.23,0.69,10.86
			c0,0.07,0.01,0.15,0.01,0.22c-1.97-0.02-3.93,0.18-5.9,0.25c0.2-4.68-0.62-9.31-0.44-13.98c0.02-0.59-3.91-0.09-3.95,1.06
			c-0.17,4.52,0.59,9,0.46,13.51c-0.06,2.15-0.25,4.3-0.26,6.46c-0.01,1.1,0.17,2.2,0.33,3.29c0.15,1.01,0.49,2.35,0.18,3.35
			c-0.24,0.78,3.59,0.29,3.9-0.7c0.55-1.79-0.22-4.08-0.41-5.89c-0.18-1.74-0.04-3.53,0.08-5.3c2.05-0.13,4.1-0.3,6.13-0.01
			c0.09,1.39,0.2,2.78,0.32,4.17c0.11,1.17,0.18,2.33,0.2,3.51c0.02,1.03,0.14,2.52-0.22,3.49c-0.78,2.08,3.18,1.91,3.76,0.37
			c0.71-1.89,0.51-4.24,0.39-6.22C86.56,42.17,86.23,39.72,86.15,37.25z"/>
		<path class="st0" d="M103.24,41.76c-0.95-2.78-2.39-5.22-3.65-7.87c1.01-1.97,2.04-3.94,2.96-5.94c0.84-1.82,1.46-3.85,3.11-5.14
			c0.58-0.45,0.55-0.9-0.26-0.96c-0.88-0.06-2.08,0.19-2.79,0.75c-1.5,1.17-2.45,2.59-3.23,4.31c-0.94,2.07-1.91,4.1-2.94,6.13
			c-0.07,0.15-0.15,0.3-0.23,0.45c-0.49,0.32-0.79,0.77-0.64,1.28c-0.8,1.58-1.61,3.15-2.52,4.65c-0.3-5.58-0.96-11.16-1.16-16.75
			c-0.04-1.28-4.01-0.48-3.95,1.06c0.25,6.93,1.23,13.85,1.3,20.77c-0.02,0.02-0.03,0.03-0.05,0.05c-0.3,0.31-0.19,0.5,0.05,0.61
			c0,1.77-0.06,3.53-0.21,5.3c-0.48,0.75,0.47,1.15,1.09,1.15c0.03,0,0.06,0,0.1,0c0.75,0,2.65-0.35,2.74-1.38
			c0.19-2.12,0.25-4.23,0.23-6.35c1.6-1.73,2.92-3.66,4.09-5.69c0.77,1.49,1.5,3,2.01,4.63c0.87,2.77,2.32,5.31,3.16,8.09
			c0.55,1.82,4.5,0.75,3.95-1.06C105.56,47.07,104.18,44.5,103.24,41.76z"/>
		<path class="st0" d="M126.96,37.08c-0.21-0.84-1.38-0.86-2.29-0.78c-0.01-0.34-0.02-0.68-0.04-1.02c-0.13-2.69-0.17-5.43-0.4-8.1
			c-0.21-2.48-1.6-3.37-4.01-3.28c-2.44,0.09-5.28,0.53-7.55,1.42c-2.63,1.02-4.1,2.96-4.6,5.73c-0.56,3.04,0.24,6.27,0.38,9.33
			c0.16,3.54,0.07,7.08,0.06,10.61c0,0.58,3.95,0.03,3.95-1.06c0-2.8,0.04-5.6,0-8.4c-0.01-0.83-0.05-1.65-0.1-2.47
			c1.38-0.6,3.72,0.01,5.1,0.14c1.12,0.11,2.19-0.17,3.27-0.29c0.02,2.33,0.11,4.68,0.21,7.01c0.05,1.19,0.48,3.56-0.36,4.55
			c-0.44,0.52,1.49,0.35,1.57,0.33c0.8-0.15,1.78-0.4,2.32-1.05c0.96-1.13,0.46-3.82,0.41-5.17c-0.08-1.93-0.1-3.86-0.14-5.79
			C125.9,38.66,127.18,37.94,126.96,37.08z M112.21,36.93c-0.1-1.26-0.22-2.51-0.31-3.78c-0.16-2.35,0.12-5.63,2.31-7.06
			c0.59-0.38,1.69-0.32,2.38-0.44c0.98-0.18,1.97-0.39,2.85,0.19c1.22,0.81,0.92,3.69,0.92,4.91c0,2.02,0.21,4.04,0.31,6.06
			c-0.56,0.06-1.12,0.09-1.7,0.08C116.67,36.84,114.39,36.47,112.21,36.93z"/>
		<path class="st0" d="M48.77,25.18c0.53-0.05,1.06-0.23,1.49-0.53c0.09-0.07,0.17-0.15,0.26-0.22c0.52-0.34,0.98-0.83,0.73-1.37
			c-0.51-1.12-0.43-2.25-0.42-3.45c0.01-0.97-0.97-1.26-1.8-1.18c-0.73,0.06-2.19,0.59-2.19,1.53c-0.01,1-0.07,2.03,0.11,3.02
			c-0.05,0.11-0.08,0.24-0.1,0.36c-0.06,0.21,0.02,0.42,0.14,0.6c0,0.04,0,0.09,0,0.13c0,0.11,0.01,0.23,0.01,0.34
			c0.07,0.23,0.22,0.41,0.43,0.53C47.83,25.18,48.33,25.22,48.77,25.18z"/>
	</g>
</g>
</svg>
