<svg xmlns="http://www.w3.org/2000/svg" viewBox="19.14 15 112.39 46.09"><path d="M129.36 56.88c4.39.87.84-35.86.15-38.31-1.96-6.57-26.68-2.14-32.18-1.72-12.72.99-25.19-.96-37.61-.38-6.21.29-34.85-1.81-37.52 1.99-5.05 7.21-2.65 25.8-1.28 35.08-4.04.78 2.31 4.15 3.14 4.9 6.31 2.19 16.36-.22 23.01.4 15.43 1.47 31.8-2.19 47.28-.96 4.5 1.14 9.6 1.02 14.22 1.24 3.41 5.57 19.66-2.46 20.79-2.24-.1-.02.51.1 0 0z"/><path d="M45.2 39.41c-.08-2.55-.48-5.07-.45-7.62.03-2.06.37-4.18-.34-6.16.04-.22.09-.45.13-.67.18-.99-3.1-.47-3.62.44-.33.27-.49.58-.35.91.03.08.06.16.1.25-.62 3.04-1.49 5.98-2.49 8.93-.38 1.13-.84 2.23-1.23 3.35-.55-1.05-1.11-2.08-1.56-3.21-1.3-3.26-2.48-6.55-4.07-9.69.18-1.45-3.04-1.3-3.67.03-.77 1.61-.67 3.23-.42 4.95.28 1.94.33 3.84.36 5.8.04 3.77.34 7.54.4 11.31-.34.37-.44.83-.09 1.3.15.2.34.36.54.52.86.69 3.32.1 3.32-1.21-.01-3.91-.29-7.82-.4-11.73-.01-.38-.02-.77-.02-1.15.05.14.11.28.16.41.61 1.52 1.24 3 2.07 4.42.82 1.4 1.24 2.91 1.71 4.44-.18.21-.29.44-.22.67-.04.17.07.28.24.34.61.52 1.75.26 2.38-.01.27-.11.53-.25.78-.4.33-.2.84-.64.69-1.1-.03-.09-.06-.18-.08-.26.45-1.2.67-2.46.92-3.73.26-1.36.74-2.64 1.23-3.92l.15 1.76c.19 2.42.03 4.81.01 7.24-.01.8.05 1.55.21 2.34.06.32.35 1.71.27 1.79-.58.54-.41 1.19.37 1.36.87.19 1.97-.1 2.63-.71 1.14-1.05.6-2.7.34-4.02-.46-2.21.07-4.7 0-6.97zm7.93.65c-.07-1.89-.73-3.67-.73-5.57-.01-2.19.17-4.36-.15-6.53-.1-.69-3.85.09-3.72 1 .29 2 .19 4.01.15 6.03-.04 1.94.44 3.7.69 5.6.25 1.95-.08 3.95.14 5.9.1.91.71 2.6.08 3.4-.4.5 1.39.32 1.47.31.73-.14 1.7-.37 2.19-.99.62-.78.19-2.3.05-3.18-.29-1.98-.09-4-.17-5.97zm15.5-3.16c-1.96-2.64-5.59-.74-8.13-1.46-1.31-.37-1.32-2.16-1.32-3.22 0-1.35-.11-2.59-.26-3.93-.11-1-.02-2.01.71-2.76.13-.14.82-.32.77-.32.33-.06.64-.07 1.01-.09 1.47-.06 4.38.22 3.81 2.36-.25.96 3.41.41 3.68-.6 1.15-4.36-6.91-3.53-9.19-2.92-2.1.56-4.41 1.75-4.53 4.17-.06 1.16.26 2.26.31 3.4.06 1.32-.19 2.63.27 3.91 1.03 2.83 5.24 1.5 7.38 1.66 3.65.27 2.56 5.19 2.61 7.48.02 1.22 1.12 3.25.2 4.28-.57.63-1.88.66-2.65.73-.77.06-2.09.3-2.6-.44-.94-1.34.09-3.61-.11-5.15-.11-.88-3.86-.09-3.72 1 .33 2.49-1.33 5.83 2.28 6.26 2.32.28 4.93-.15 7.12-.88 1.14-.38 2.19-.89 3.08-1.7.98-.89.66-2.23.4-3.37-.65-2.78.69-5.97-1.12-8.41zm16.44-.17c-.11-3.58-.65-7.13-.67-10.72-.01-1.87-3.76-1.24-3.75.32.01 3.42.47 6.8.65 10.22 0 .07.01.14.01.21-1.85-.02-3.7.17-5.55.23.19-4.4-.58-8.76-.41-13.15.02-.55-3.68-.09-3.72 1-.16 4.25.56 8.46.43 12.71-.06 2.03-.23 4.05-.25 6.07-.01 1.04.16 2.07.31 3.1.14.95.46 2.21.17 3.15-.22.73 3.38.28 3.67-.66.52-1.69-.21-3.83-.38-5.54-.17-1.64-.04-3.32.08-4.98 1.92-.12 3.85-.28 5.77-.01.08 1.31.19 2.61.3 3.92.1 1.1.17 2.19.19 3.3.02.97.13 2.37-.21 3.28-.73 1.95 2.99 1.79 3.53.35.67-1.78.48-3.98.36-5.85-.14-2.33-.46-4.63-.53-6.95zm16.07 4.24c-.89-2.62-2.25-4.91-3.43-7.4.95-1.85 1.92-3.7 2.78-5.59.79-1.72 1.37-3.62 2.92-4.83.54-.42.52-.85-.24-.9-.83-.06-1.96.18-2.63.7-1.41 1.1-2.3 2.43-3.04 4.05-.88 1.95-1.8 3.86-2.76 5.76l-.21.42c-.46.3-.74.72-.61 1.2-.75 1.48-1.52 2.96-2.37 4.38-.28-5.25-.91-10.5-1.09-15.75-.04-1.2-3.77-.46-3.71 1 .23 6.52 1.16 13.02 1.22 19.54l-.05.05c-.29.29-.18.47.05.57 0 1.66-.06 3.32-.2 4.99-.45.71.44 1.08 1.03 1.08h.09c.7 0 2.49-.33 2.58-1.29.18-1.99.24-3.98.22-5.97 1.51-1.63 2.74-3.44 3.85-5.35.72 1.41 1.41 2.82 1.89 4.35.82 2.6 2.18 4.99 2.97 7.6.52 1.71 4.23.7 3.72-1-.8-2.62-2.1-5.03-2.98-7.61zm22.3-4.4c-.2-.79-1.3-.81-2.16-.73l-.03-.96c-.12-2.53-.16-5.1-.37-7.62-.2-2.33-1.5-3.17-3.77-3.08-2.29.09-4.96.5-7.1 1.33-2.47.96-3.85 2.78-4.33 5.39-.52 2.86.23 5.9.35 8.77.15 3.32.06 6.66.06 9.98 0 .54 3.72.03 3.72-1 0-2.63.04-5.27 0-7.9-.01-.78-.05-1.55-.1-2.32 1.3-.56 3.5.01 4.79.13 1.05.1 2.06-.16 3.08-.28.02 2.19.1 4.4.19 6.59.05 1.12.45 3.35-.33 4.28-.41.49 1.41.33 1.47.31.75-.14 1.67-.38 2.19-.99.9-1.06.43-3.6.38-4.86-.07-1.81-.1-3.63-.13-5.44 1.1-.12 2.3-.79 2.09-1.6zm-13.87-.14c-.1-1.18-.21-2.36-.29-3.55-.15-2.21.11-5.3 2.17-6.64.55-.36 1.59-.3 2.24-.42.92-.17 1.86-.37 2.68.18 1.15.76.87 3.47.86 4.62 0 1.9.2 3.8.29 5.7-.52.05-1.06.08-1.6.07-2.15-.05-4.3-.39-6.35.04zM49.91 25.37c.49-.05.99-.21 1.4-.5l.24-.21c.49-.32.92-.78.69-1.29-.48-1.05-.4-2.12-.4-3.24.01-.91-.91-1.18-1.69-1.11-.69.06-2.06.55-2.06 1.44-.01.94-.07 1.91.1 2.84-.05.11-.07.23-.1.34-.05.2.02.4.14.56v.13c0 .11.01.21.01.32.07.22.21.39.41.5.38.22.85.26 1.26.22z" fill="#fff"/></svg>