<svg xmlns="http://www.w3.org/2000/svg" viewBox="264.21 370.96 20.29 18.85"><path d="M283.75 378.19h-3.15l-3.41-6.81a.76.76 0 0 0-1.01-.34c-.37.19-.52.64-.34 1.01l3.07 6.14h-9.14l3.07-6.14c.19-.37.04-.82-.34-1.01a.763.763 0 0 0-1.01.34l-3.41 6.81h-3.15c-.41 0-.75.34-.75.75s.34.75.75.75h.16l.85 2.99c-.19.14-.32.35-.32.6 0 .4.31.71.7.74l1.66 5.79h12.7l1.66-5.79c.39-.03.7-.34.7-.74 0-.25-.13-.46-.32-.6l.85-2.99h.16c.41 0 .75-.34.75-.75a.726.726 0 0 0-.73-.75zm-4.18 10.12h-10.43l-1.22-4.28h12.88l-1.23 4.28zm1.65-5.78h-13.74l-.81-2.84h15.36l-.81 2.84z"/></svg>