<?xml version="1.0" encoding="utf-8"?>
<!-- Generator: Adobe Illustrator 23.0.0, SVG Export Plug-In . SVG Version: 6.00 Build 0)  -->
<svg version="1.1" id="Layer_1" xmlns="http://www.w3.org/2000/svg" xmlns:xlink="http://www.w3.org/1999/xlink" x="0px" y="0px"
	 viewBox="264.21 370.96 20.29 18.85" style="enable-background:new 264.21 370.96 20.29 18.85;" xml:space="preserve">
<style type="text/css">
	.st0{fill:#231F20;}
</style>
<path class="st0" d="M283.75,378.19h-3.15l-3.41-6.81c-0.19-0.37-0.63-0.52-1.01-0.34c-0.37,0.19-0.52,0.64-0.34,1.01l3.07,6.14
	h-9.14l3.07-6.14c0.19-0.37,0.04-0.82-0.34-1.01c-0.37-0.18-0.82-0.03-1.01,0.34l-3.41,6.81h-3.15c-0.41,0-0.75,0.34-0.75,0.75
	c0,0.41,0.34,0.75,0.75,0.75h0.16l0.85,2.99c-0.19,0.14-0.32,0.35-0.32,0.6c0,0.4,0.31,0.71,0.7,0.74l1.66,5.79h12.7l1.66-5.79
	c0.39-0.03,0.7-0.34,0.7-0.74c0-0.25-0.13-0.46-0.32-0.6l0.85-2.99h0.16c0.41,0,0.75-0.34,0.75-0.75
	C284.5,378.53,284.16,378.19,283.75,378.19z M279.57,388.31h-10.43l-1.22-4.28h12.88L279.57,388.31z M281.22,382.53h-13.74
	l-0.81-2.84h15.36L281.22,382.53z"/>
</svg>
