<?xml version="1.0" encoding="utf-8"?>
<!-- Generator: Adobe Illustrator 23.0.0, SVG Export Plug-In . SVG Version: 6.00 Build 0)  -->
<svg version="1.1" id="Layer_2" xmlns="http://www.w3.org/2000/svg" xmlns:xlink="http://www.w3.org/1999/xlink" x="0px" y="0px"
	 viewBox="32.46 20.22 85.59 35.03" style="enable-background:new 32.46 20.22 85.59 35.03;" xml:space="preserve">
<g>
	<path d="M36.64,46.52c-0.01-3.47-0.26-6.94-0.36-10.41c-0.01-0.34-0.01-0.68-0.02-1.02c0.05,0.12,0.1,0.24,0.15,0.36
		c0.54,1.35,1.1,2.66,1.84,3.92c0.73,1.24,1.1,2.58,1.52,3.94c-0.16,0.18-0.26,0.39-0.2,0.6c-0.03,0.15,0.06,0.25,0.21,0.31
		c0.54,0.46,1.55,0.23,2.11-0.01c0.24-0.1,0.47-0.22,0.7-0.36c0.29-0.18,0.74-0.57,0.61-0.98c-0.02-0.08-0.05-0.16-0.07-0.24
		c0.4-1.07,0.6-2.18,0.81-3.31c0.23-1.21,0.66-2.34,1.09-3.49c0.04,0.52,0.09,1.04,0.13,1.57c0.17,2.15,0.03,4.27,0.01,6.42
		c-0.01,0.71,0.05,1.38,0.18,2.08c0.06,0.29,0.31,1.52,0.24,1.59c-0.52,0.48-0.37,1.06,0.33,1.21c0.77,0.17,1.75-0.09,2.33-0.63
		c1.01-0.93,0.53-2.4,0.3-3.57c-0.38-1.97,0.08-4.18,0.02-6.19c-0.07-2.26-0.43-4.5-0.4-6.77c0.02-1.83,0.33-3.71-0.3-5.47
		c0.04-0.2,0.08-0.4,0.12-0.6c0.16-0.88-2.75-0.41-3.21,0.39c-0.29,0.24-0.44,0.52-0.31,0.81c0.03,0.07,0.06,0.15,0.08,0.22
		c-0.55,2.7-1.32,5.31-2.21,7.93c-0.34,1-0.75,1.98-1.09,2.98c-0.49-0.93-0.99-1.85-1.38-2.85c-1.16-2.89-2.2-5.81-3.61-8.6
		c0.16-1.29-2.7-1.15-3.26,0.03c-0.68,1.43-0.59,2.87-0.37,4.39c0.25,1.72,0.3,3.41,0.32,5.15c0.04,3.35,0.3,6.69,0.35,10.04
		c-0.3,0.33-0.39,0.74-0.08,1.16c0.14,0.18,0.31,0.32,0.48,0.46C34.45,48.2,36.64,47.68,36.64,46.52z"/>
	<path d="M54.83,28.15c-0.09-0.61-3.42,0.08-3.3,0.88c0.26,1.78,0.17,3.56,0.14,5.35c-0.03,1.72,0.39,3.28,0.62,4.97
		c0.23,1.73-0.07,3.5,0.13,5.24c0.09,0.81,0.63,2.31,0.07,3.02c-0.35,0.45,1.24,0.29,1.31,0.28c0.65-0.12,1.51-0.33,1.94-0.88
		c0.55-0.7,0.17-2.04,0.05-2.83c-0.27-1.73-0.1-3.54-0.16-5.29c-0.06-1.68-0.64-3.25-0.65-4.95C54.96,32,55.12,30.08,54.83,28.15z"
		/>
	<path d="M57.96,34.79c0.91,2.51,4.65,1.33,6.55,1.47c3.24,0.24,2.27,4.61,2.31,6.64c0.02,1.09,1,2.89,0.18,3.8
		c-0.5,0.56-1.67,0.59-2.35,0.65c-0.69,0.06-1.85,0.26-2.31-0.39c-0.84-1.19,0.08-3.2-0.1-4.57c-0.1-0.78-3.42-0.08-3.3,0.88
		c0.29,2.21-1.18,5.17,2.02,5.56c2.06,0.24,4.37-0.14,6.32-0.78c1.01-0.33,1.94-0.79,2.73-1.51c0.87-0.79,0.58-1.98,0.35-2.99
		c-0.57-2.46,0.62-5.29-0.99-7.45c-1.74-2.34-4.96-0.66-7.21-1.3c-1.16-0.33-1.17-1.91-1.17-2.86c0-1.2-0.1-2.3-0.23-3.49
		c-0.1-0.89-0.02-1.79,0.63-2.45c0.12-0.12,0.72-0.28,0.68-0.29c0.3-0.05,0.57-0.06,0.9-0.08c1.3-0.06,3.88,0.2,3.39,2.09
		c-0.23,0.85,3.03,0.36,3.27-0.54c1.02-3.87-6.14-3.13-8.16-2.59c-1.86,0.49-3.92,1.55-4.02,3.7c-0.05,1.03,0.23,2.01,0.27,3.02
		C57.76,32.49,57.55,33.66,57.96,34.79z"/>
	<path d="M72.41,36.66c-0.05,1.8-0.21,3.59-0.22,5.39c-0.01,0.92,0.15,1.84,0.28,2.75c0.12,0.84,0.41,1.96,0.15,2.8
		c-0.2,0.65,3,0.24,3.25-0.59c0.46-1.5-0.19-3.4-0.34-4.92c-0.15-1.45-0.03-2.95,0.07-4.42c1.71-0.11,3.42-0.25,5.12-0.01
		c0.08,1.16,0.16,2.32,0.27,3.48c0.09,0.98,0.15,1.95,0.16,2.93c0.01,0.86,0.12,2.1-0.18,2.91c-0.65,1.73,2.66,1.59,3.14,0.31
		c0.59-1.58,0.42-3.54,0.32-5.19c-0.13-2.06-0.4-4.11-0.47-6.17c-0.1-3.18-0.58-6.33-0.59-9.52c-0.01-1.66-3.34-1.1-3.33,0.29
		c0.01,3.04,0.42,6.04,0.57,9.07c0,0.06,0.01,0.12,0.01,0.18c-1.64-0.02-3.28,0.15-4.93,0.21c0.17-3.9-0.51-7.77-0.36-11.67
		c0.02-0.49-3.26-0.08-3.3,0.88C71.89,29.15,72.53,32.89,72.41,36.66z"/>
	<path d="M86.49,42.03c-0.25,0.26-0.16,0.41,0.05,0.51c0,1.47-0.05,2.95-0.18,4.42c-0.4,0.63,0.39,0.96,0.91,0.96
		c0.03,0,0.05,0,0.08,0c0.62,0,2.21-0.29,2.29-1.15c0.16-1.77,0.21-3.54,0.2-5.3c1.34-1.45,2.43-3.06,3.42-4.75
		c0.64,1.25,1.25,2.5,1.68,3.86c0.72,2.31,1.94,4.43,2.64,6.75c0.46,1.52,3.75,0.62,3.3-0.88c-0.7-2.32-1.86-4.46-2.64-6.75
		c-0.79-2.32-2-4.36-3.05-6.57c0.84-1.64,1.7-3.28,2.47-4.96c0.7-1.52,1.22-3.22,2.59-4.29c0.48-0.38,0.46-0.75-0.22-0.8
		c-0.74-0.05-1.74,0.16-2.33,0.63c-1.25,0.97-2.04,2.16-2.69,3.59c-0.78,1.73-1.6,3.42-2.46,5.12c-0.06,0.12-0.13,0.25-0.19,0.37
		c-0.41,0.26-0.66,0.64-0.54,1.06c-0.67,1.32-1.35,2.63-2.1,3.88c-0.25-4.66-0.8-9.32-0.97-13.98c-0.04-1.07-3.34-0.4-3.3,0.89
		c0.2,5.79,1.02,11.56,1.08,17.34C86.52,42,86.51,42.02,86.49,42.03z"/>
	<path d="M118.03,35.8c-0.18-0.7-1.16-0.72-1.91-0.65c-0.01-0.28-0.02-0.57-0.03-0.85c-0.11-2.24-0.14-4.53-0.33-6.76
		c-0.18-2.07-1.33-2.81-3.35-2.73c-2.04,0.08-4.4,0.44-6.3,1.18c-2.2,0.85-3.42,2.47-3.84,4.78c-0.46,2.54,0.2,5.24,0.31,7.79
		c0.13,2.95,0.06,5.91,0.05,8.86c0,0.48,3.3,0.03,3.3-0.88c0-2.34,0.04-4.68,0-7.01c-0.01-0.69-0.04-1.37-0.08-2.06
		c1.16-0.5,3.11,0.01,4.25,0.12c0.93,0.09,1.83-0.14,2.73-0.24c0.02,1.95,0.09,3.91,0.17,5.85c0.04,1,0.4,2.97-0.3,3.8
		c-0.37,0.44,1.25,0.29,1.31,0.28c0.67-0.12,1.48-0.34,1.94-0.88c0.8-0.94,0.38-3.19,0.34-4.32c-0.07-1.61-0.09-3.22-0.12-4.83
		C117.14,37.11,118.21,36.52,118.03,35.8z M111.36,35.64c-1.93-0.05-3.83-0.35-5.65,0.04c-0.09-1.05-0.18-2.1-0.25-3.15
		c-0.13-1.96,0.1-4.7,1.93-5.9c0.49-0.32,1.41-0.26,1.98-0.37c0.82-0.15,1.65-0.33,2.38,0.16c1.02,0.68,0.77,3.08,0.77,4.1
		c0,1.69,0.18,3.37,0.26,5.06C112.32,35.62,111.84,35.65,111.36,35.64z"/>
	<path d="M51.16,24.32c-0.05,0.18,0.01,0.36,0.12,0.5c0,0.04,0,0.08,0,0.11c0,0.09,0.01,0.19,0.01,0.28
		c0.06,0.19,0.18,0.34,0.36,0.45c0.33,0.2,0.74,0.23,1.11,0.2c0.44-0.04,0.88-0.19,1.25-0.44c0.07-0.06,0.14-0.12,0.22-0.18
		c0.44-0.28,0.82-0.7,0.61-1.15c-0.42-0.93-0.36-1.88-0.35-2.88c0-0.81-0.81-1.05-1.5-0.99c-0.61,0.05-1.83,0.49-1.83,1.28
		c-0.01,0.84-0.06,1.7,0.09,2.52C51.21,24.12,51.18,24.23,51.16,24.32z"/>
	<path d="M112.74,53.51c-1.56-0.58-3.28-0.62-4.85-0.79c-1.6-0.17-3.25-0.41-4.88-0.56c-1.64,0.05-3.31,0.03-4.97,0.13l-4.88,0.27
		c-6.49,0.29-13,0.25-19.52,0.11c-6.52-0.12-13.04-0.48-19.63-0.45c-3.29,0.01-6.57,0.1-9.86,0.25c-1.63,0.28-3.24,0.5-4.9,0.91
		c-1.62,0.4-3.14,0.91-4.79,1.05c1.62,0.36,3.34,0.29,4.96,0.3c1.58,0.01,3.24,0.14,4.87,0.23c3.23-0.17,6.49-0.25,9.73-0.26
		c6.49-0.02,13.01,0.33,19.57,0.45c6.55,0.15,13.11,0.19,19.68-0.11l4.91-0.27c1.6-0.07,3.2-0.13,4.83-0.07
		c1.63-0.15,3.25-0.33,4.92-0.53c1.66-0.24,3.22-0.63,4.85-0.51l0.07,0.01l0.01-0.05c0.02-0.18-0.04-0.32-0.04-0.48
		C112.77,53.25,112.77,53.39,112.74,53.51z"/>
</g>
</svg>
