<?xml version="1.0" encoding="utf-8"?>
<!-- Generator: Adobe Illustrator 23.0.0, SVG Export Plug-In . SVG Version: 6.00 Build 0)  -->
<svg version="1.1" id="Layer_1" xmlns="http://www.w3.org/2000/svg" xmlns:xlink="http://www.w3.org/1999/xlink" x="0px" y="0px"
	 viewBox="0 0 17.6 17.6" style="enable-background:new 0 0 17.6 17.6;" xml:space="preserve">
<style type="text/css">
	.st0{fill:#231F20;}
</style>
<path class="st0" d="M17.27,15.73l-3.41-3.42c0.96-1.29,1.54-2.88,1.54-4.62c0-4.25-3.45-7.7-7.7-7.7S0,3.45,0,7.7
	c0,4.25,3.45,7.7,7.7,7.7c1.73,0,3.33-0.58,4.61-1.55l3.42,3.42c0.2,0.2,0.42,0.33,0.77,0.33c0.61,0,1.1-0.49,1.1-1.1
	C17.6,16.26,17.54,16,17.27,15.73z M2.2,7.7c0-3.04,2.46-5.5,5.5-5.5s5.5,2.46,5.5,5.5s-2.46,5.5-5.5,5.5S2.2,10.74,2.2,7.7z"/>
</svg>
