<svg xmlns="http://www.w3.org/2000/svg" viewBox="0 0 148.05 72.71"><path d="M143.16 31.4c-1.48 1.06-3.05 1.94-4.66 2.78.04-1.75-.12-3.46-.59-5.13l.15-1c.38-3 .66-7.12-2-9.22-.33-.26-1.25-.03-1.92.27a3.89 3.89 0 0 0-.5-.41c-.08-.24-.16-.49-.23-.74-.04-.12-.17-.19-.36-.21.29-.38.26-.82-.42-1.09-.38-.15-.76-.29-1.14-.41-.07-.07-.13-.1-.17-.06h-.01c-.94-.3-1.89-.53-2.86-.71.14-.33.4-.81.55-1 .13-.16.28-.3.43-.44.06-.06.13-.11.19-.17a.32.32 0 0 1 .07-.06c.02-.01.04-.03.08-.06.38-.29.85-.86.22-1.2-.57-.31-1.51-.14-2.01.24-.86.66-1.63 1.38-2.09 2.36-2.01-.17-4.05-.15-6.08-.08.06-.08.11-.16.14-.25.18-.58-.91-.52-1.19-.49-1.56.21-3.13.41-4.69.6 1.37-3.77 3.08-8.58 1-12.26-1.19-2.11-3.91-2.58-6.1-2.65-2.44-.08-4.9.46-7.04 1.64-4.76 2.62-7.11 7.71-8.21 13.14-.5-.66-2.3-.43-2.64.47-.13.32-.23.64-.33.97-.16.17-.28.39-.34.64-.01.06-.03.11-.04.17-.07 0-.13 0-.2.01l.06-.31c.15-.11.25-.23.28-.37.57-2.3 1.16-4.59 1.95-6.82.27-.76-2.51-.4-2.8.43-.42 1.19-.79 2.4-1.12 3.62-.17.08-.36.19-.43.33-.02.03-.03.07-.05.1-.11-.09-.27-.15-.47-.18v-.96c0-.43-2.82-.03-2.82.76v1.57c-.17.07-.33.16-.47.27-.06.06-.13.11-.19.17-.07.07-.11.15-.12.24.01.01.01.04 0 .06-.02.02-.03.05-.05.07-.13.13-.18.34-.03.47.19.16.51.17.74.16.05 0 .1-.01.15-.01v.47c-.23 0-.45 0-.67-.01l-.41-.05c-.02-.39-.68-.45-1.35-.33.01-.05.01-.1 0-.15-.1-.6-.17-1.19-.23-1.79.24-.08.47-.18.68-.31.16-.1.33-.22.33-.43v-.19c0-.18-.41-.2-.5-.21-.2-.01-.39.01-.59.04-.08-1.31-.08-2.62-.08-3.93 0-.84-2.82-.31-2.82.76 0 1.79.01 3.57.19 5.34-.09 0-.18 0-.27.01v-1.53c0-1.04-1.3-1.22-2.15-.81.31-.26.49-.62.37-1.04-.4-1.41-.78-2.83-.97-4.29-.19-1.39-3.02-.68-2.82.76.2 1.46.57 2.87.98 4.29.24.83 1.34.89 2.1.51-.23.2-.37.45-.37.76v.63c-.19-.1-.44-.16-.77-.16-1.06 0-1.67.89-1.4 1.48-.16-.03-.33-.05-.49-.08-.38-1.25-.69-2.51-.71-3.83-.02-.94-1.27-1.05-2.11-.67a.549.549 0 0 0-.05-.17c-.39-.8-.57-1.67-.78-2.53-.33-1.35-3.16-.6-2.82.76.16.64.3 1.28.52 1.9-.02 0-.04.01-.06.01-.3.08-.6.21-.85.39-.83.08-1.83.57-1.75 1.21.06.48.13.95.21 1.43-.55.09-1.09.18-1.64.26-.29-.79-.5-1.6-.62-2.44-.13-.92-1.56-.85-2.33-.26-.77-2.06-1.8-4.02-3.12-5.76-2.62-3.44-7.1-4.61-11.24-3.79-1.9.38-3.73 1.18-5.04 2.65-1.21 1.35-1.35 3.09-1.17 4.8.16 1.49.61 4.01 1.58 5.98-.35-.01-.71.04-.95.14-.28.12-.56.25-.83.39a93.3 93.3 0 0 1-5.8-.07c-4.18-.19-8.3-.86-12.5-.74-.92.03-1.53.72-1.46 1.26-1.05.5-1.73 1.31-2.14 2.29-1.73-1.15-3.48-2.27-5.34-3.21-.69-.35-3.3.71-2.29 1.22 1.84.94 3.56 2.07 5.28 3.22.51.34 1.32.13 1.84-.07.03-.01.09-.04.17-.08-.31 1.44-.16 3.07.24 4.49.03.11.09.2.17.27-.02.34-.02.68-.01 1.02v.17c-.4.19-.71.48-.76.84-.19 1.41-.28 2.82-.31 4.23-.27.2-.46.47-.48.8-.23 3.34.04 6.65.47 9.95.19 2.69.69 5.34 1.17 8 .06.42.11.83.17 1.25-.27 1.13-.4 2.39-.24 3.48-.88.17-1.73.87-1.23 1.62.77 1.16 1.64 2.02 2.61 2.65-.63-.1-1.42.11-1.87.55-.82.81-1.71 1.53-2.53 2.34-.43.42-.31.93.29 1.08.65.16 1.52-.06 2-.54.82-.81 1.72-1.53 2.53-2.34.25-.25.31-.52.2-.73 3.21 1.73 7.23 1.27 11.11.94-.88 1.59-1.54 3.27-2.17 5-.26.72 2.51.37 2.8-.44.61-1.68 1.24-3.34 2.1-4.9 3.74.12 7.48.12 11.21.05.15.18.42.31.75.34 3.27.31 6.49-.1 9.69-.7 4.79-.23 9.58-.53 14.37-.81 7.53-.19 15.06-.35 22.59-.32.1.11.2.21.31.32.27.26.62.34.98.33.06.01.13.02.2.02.71.04 1.43.09 2.14.15.16.04.34.06.56.05l2.35.21c.17.21.5.34.79.36 3.8.25 7.61.52 11.42.7.14.23.54.34.82.34 7.07.06 15.28 2.8 21.56-1.74.5-.36.27-.88-.26-.98-.11-.02-.22-.03-.33-.03.01-.02.02-.03.02-.04 1.19-2.77 2.17-5.63 2.94-8.55.37-.2.63-.49.65-.86.05-1.19.19-2.41.37-3.64.17-.88.31-1.77.44-2.66.39-2.17.81-4.37 1.02-6.54 2.28-1.15 4.54-2.33 6.62-3.82 1.53-1.17-.82-1.94-1.87-1.19zM87.83 16.35c-.05.04-.09.08-.13.12.07-.31.15-.62.23-.93h.11l-.21.81z"/><path d="M63.26 12.63c.13.2.56.22.75.22.38 0 .76-.08 1.11-.22.4-.17 1.1-.56.77-1.07-.36-.56-.61-1.19-.98-1.75-.13-.2-.56-.22-.75-.22-.38 0-.76.08-1.1.23-.4.17-1.1.56-.77 1.07.36.54.61 1.17.97 1.74zm-42.58-1.72c.22.65 1.11.65 1.65.5.47-.13 1.39-.62 1.17-1.26-.21-.62-.43-1.29-.89-1.78-.48-.51-1.32-.42-1.9-.15-.41.19-1.18.84-.69 1.35.38.4.47.77.66 1.34zm9.98 2.99c.84 0 3.07-1.28 1.19-1.28-.85 0-3.08 1.28-1.19 1.28zm91.9-1.63c.35.07.72.03 1.05-.06.32-.09.7-.23.94-.48.35-.36.73-.73.96-1.18.1-.2.17-.4 0-.59-.19-.2-.51-.25-.76-.25-.38-.01-.76.07-1.11.22-.25.11-.62.29-.76.55-.1.19-.22.35-.35.51-.01.01-.02.02-.02.03l-.03.03c-.06.07-.13.13-.2.2-.16.16-.35.36-.28.61.08.26.35.37.56.41zm13.3 5.42c.63-.06 1.39-.25 1.89-.66 1.32-1.1 2.6-2.25 3.62-3.64.29-.39-1.05-.24-1.12-.23-.53.1-1.32.28-1.66.75-.95 1.3-2.16 2.35-3.39 3.37-.49.41.45.43.66.41zm10.88 27.08h-4.87c-.62 0-1.48.47-1.56 1.14-.09.74.75.92 1.3.92h4.87c.62 0 1.48-.47 1.56-1.14.09-.74-.75-.92-1.3-.92zM57.02 60.78c-.5.08-1.41.3-1.64.83-.54 1.27-.98 2.57-1.36 3.9-.21.73 2.57.33 2.8-.45.38-1.33.83-2.63 1.36-3.9.22-.52-.97-.41-1.16-.38zm4.58 2.6c-.35 0-.7.06-1.03.15-.33.09-.67.21-.97.38-.14.08-.34.2-.34.39 0 .12-.01.23-.02.35-.02.1-.06.2-.13.29l.01-.01c-.06.08-.11.18.02.25.2.11.5.08.71.06.37-.04.75-.13 1.1-.25.24-.08.61-.21.79-.41.15-.16.24-.29.28-.5.04-.18.05-.35.05-.53.02-.17-.4-.17-.47-.17zm55.05 3.67c-.35-.69-3.04.33-2.82.76.84 1.64 1.94 3.12 2.92 4.68.44.69 3.04-.41 2.82-.76-.98-1.56-2.07-3.04-2.92-4.68zm4.09-2.34c-.29-.59-1.07-.56-1.62-.41-.35.09-1.49.6-1.2 1.17l1.17 2.34c.29.59 1.07.56 1.62.41.35-.09 1.49-.6 1.2-1.17l-1.17-2.34zM5.67 43.11c-1.49.36-3.01.57-4.48.97-.54.15-1.34.64-1.16 1.32.18.67 1.13.71 1.66.56 1.48-.4 3-.62 4.48-.98.54-.13 1.34-.65 1.16-1.32-.18-.68-1.12-.69-1.66-.55z"/><path d="M43.75 40.11c-.08-2.71-.51-5.4-.48-8.11.03-2.19.39-4.45-.36-6.55.05-.24.1-.48.14-.72.2-1.06-3.3-.5-3.85.47-.35.28-.52.62-.38.97.04.09.07.17.1.26-.66 3.23-1.58 6.36-2.65 9.5-.41 1.2-.9 2.37-1.31 3.57-.59-1.11-1.18-2.21-1.66-3.41-1.39-3.46-2.64-6.97-4.33-10.3.19-1.54-3.23-1.38-3.91.03-.82 1.71-.71 3.43-.44 5.26.3 2.06.36 4.09.38 6.17.05 4.01.36 8.02.42 12.03-.36.4-.47.89-.09 1.39.16.22.36.38.58.55.91.73 3.53.11 3.53-1.28-.01-4.16-.31-8.31-.42-12.47-.01-.41-.02-.81-.02-1.22.06.15.12.29.17.44.65 1.62 1.32 3.19 2.2 4.7.88 1.49 1.32 3.09 1.82 4.72-.19.22-.31.47-.23.71-.04.18.07.29.25.36.65.55 1.86.28 2.53-.01.29-.12.57-.26.83-.43.35-.21.89-.69.73-1.17-.03-.09-.06-.19-.09-.28.48-1.28.72-2.61.98-3.96.27-1.44.79-2.81 1.31-4.17.05.63.11 1.25.16 1.87.21 2.58.03 5.12.01 7.7-.01.85.05 1.65.22 2.48.07.34.37 1.82.28 1.9-.62.57-.44 1.27.39 1.45.92.2 2.1-.11 2.79-.75 1.21-1.12.64-2.87.36-4.28-.44-2.37.12-5.02.04-7.42zm8.44.68c-.07-2.01-.77-3.9-.78-5.93-.01-2.33.18-4.63-.16-6.95-.11-.73-4.09.1-3.95 1.06.31 2.13.2 4.27.16 6.41-.04 2.06.47 3.93.74 5.96.27 2.07-.08 4.2.15 6.27.11.97.76 2.77.09 3.61-.42.54 1.48.34 1.57.33.78-.14 1.81-.4 2.32-1.05.66-.84.2-2.45.05-3.39-.31-2.07-.11-4.23-.19-6.32zm16.48-3.35c-2.08-2.81-5.94-.79-8.64-1.55-1.39-.4-1.41-2.29-1.4-3.43 0-1.44-.11-2.76-.28-4.18-.12-1.06-.02-2.14.75-2.93.15-.15.87-.35.82-.35.36-.06.68-.08 1.08-.09 1.56-.07 4.65.23 4.06 2.51-.27 1.02 3.63.44 3.91-.64 1.22-4.64-7.35-3.75-9.77-3.11-2.23.59-4.69 1.86-4.82 4.44-.06 1.23.27 2.4.33 3.62.06 1.4-.2 2.8.29 4.15 1.09 3.01 5.57 1.59 7.85 1.76 3.88.29 2.72 5.52 2.77 7.96.03 1.3 1.19 3.46.21 4.55-.6.67-2 .71-2.82.77-.82.07-2.22.32-2.77-.46-1-1.43.09-3.83-.12-5.47-.12-.93-4.1-.1-3.95 1.06.35 2.65-1.41 6.2 2.42 6.65 2.46.29 5.24-.16 7.57-.94 1.21-.4 2.33-.95 3.27-1.81 1.04-.95.7-2.37.42-3.58-.68-2.95.74-6.34-1.18-8.93zm17.48-.19c-.12-3.81-.7-7.58-.71-11.4-.01-1.99-4-1.32-3.99.35.01 3.64.5 7.23.69 10.86 0 .07.01.15.01.22-1.97-.02-3.93.18-5.9.25.2-4.68-.62-9.31-.44-13.98.02-.59-3.91-.09-3.95 1.06-.17 4.52.59 9 .46 13.51-.06 2.15-.25 4.3-.26 6.46-.01 1.1.17 2.2.33 3.29.15 1.01.49 2.35.18 3.35-.24.78 3.59.29 3.9-.7.55-1.79-.22-4.08-.41-5.89-.18-1.74-.04-3.53.08-5.3 2.05-.13 4.1-.3 6.13-.01.09 1.39.2 2.78.32 4.17.11 1.17.18 2.33.2 3.51.02 1.03.14 2.52-.22 3.49-.78 2.08 3.18 1.91 3.76.37.71-1.89.51-4.24.39-6.22-.16-2.47-.49-4.92-.57-7.39zm17.09 4.51c-.95-2.78-2.39-5.22-3.65-7.87 1.01-1.97 2.04-3.94 2.96-5.94.84-1.82 1.46-3.85 3.11-5.14.58-.45.55-.9-.26-.96-.88-.06-2.08.19-2.79.75-1.5 1.17-2.45 2.59-3.23 4.31-.94 2.07-1.91 4.1-2.94 6.13-.07.15-.15.3-.23.45-.49.32-.79.77-.64 1.28-.8 1.58-1.61 3.15-2.52 4.65-.3-5.58-.96-11.16-1.16-16.75-.04-1.28-4.01-.48-3.95 1.06.25 6.93 1.23 13.85 1.3 20.77l-.05.05c-.3.31-.19.5.05.61 0 1.77-.06 3.53-.21 5.3-.48.75.47 1.15 1.09 1.15h.1c.75 0 2.65-.35 2.74-1.38.19-2.12.25-4.23.23-6.35 1.6-1.73 2.92-3.66 4.09-5.69.77 1.49 1.5 3 2.01 4.63.87 2.77 2.32 5.31 3.16 8.09.55 1.82 4.5.75 3.95-1.06-.84-2.78-2.22-5.35-3.16-8.09zm23.72-4.68c-.21-.84-1.38-.86-2.29-.78-.01-.34-.02-.68-.04-1.02-.13-2.69-.17-5.43-.4-8.1-.21-2.48-1.6-3.37-4.01-3.28-2.44.09-5.28.53-7.55 1.42-2.63 1.02-4.1 2.96-4.6 5.73-.56 3.04.24 6.27.38 9.33.16 3.54.07 7.08.06 10.61 0 .58 3.95.03 3.95-1.06 0-2.8.04-5.6 0-8.4-.01-.83-.05-1.65-.1-2.47 1.38-.6 3.72.01 5.1.14 1.12.11 2.19-.17 3.27-.29.02 2.33.11 4.68.21 7.01.05 1.19.48 3.56-.36 4.55-.44.52 1.49.35 1.57.33.8-.15 1.78-.4 2.32-1.05.96-1.13.46-3.82.41-5.17-.08-1.93-.1-3.86-.14-5.79 1.16-.13 2.44-.85 2.22-1.71zm-14.75-.15c-.1-1.26-.22-2.51-.31-3.78-.16-2.35.12-5.63 2.31-7.06.59-.38 1.69-.32 2.38-.44.98-.18 1.97-.39 2.85.19 1.22.81.92 3.69.92 4.91 0 2.02.21 4.04.31 6.06-.56.06-1.12.09-1.7.08-2.3-.05-4.58-.42-6.76.04zM48.77 25.18c.53-.05 1.06-.23 1.49-.53.09-.07.17-.15.26-.22.52-.34.98-.83.73-1.37-.51-1.12-.43-2.25-.42-3.45.01-.97-.97-1.26-1.8-1.18-.73.06-2.19.59-2.19 1.53-.01 1-.07 2.03.11 3.02-.05.11-.08.24-.1.36-.06.21.02.42.14.6v.13c0 .11.01.23.01.34.07.23.22.41.43.53.4.24.9.28 1.34.24z" fill="#fff"/></svg>