<?xml version="1.0" encoding="utf-8"?>
<!-- Generator: Adobe Illustrator 23.0.0, SVG Export Plug-In . SVG Version: 6.00 Build 0)  -->
<svg version="1.1" id="Layer_1" xmlns="http://www.w3.org/2000/svg" xmlns:xlink="http://www.w3.org/1999/xlink" x="0px" y="0px"
	 viewBox="19.14 15 112.39 46.09" style="enable-background:new 19.14 15 112.39 46.09;" xml:space="preserve">
<style type="text/css">
	.st0{fill:#FFFFFF;}
</style>
<g id="Layer_2">
	<g>
		<path d="M129.36,56.88c4.39,0.87,0.84-35.86,0.15-38.31c-1.96-6.57-26.68-2.14-32.18-1.72c-12.72,0.99-25.19-0.96-37.61-0.38
			c-6.21,0.29-34.85-1.81-37.52,1.99c-5.05,7.21-2.65,25.8-1.28,35.08c-4.04,0.78,2.31,4.15,3.14,4.9
			c6.31,2.19,16.36-0.22,23.01,0.4c15.43,1.47,31.8-2.19,47.28-0.96c4.5,1.14,9.6,1.02,14.22,1.24
			C111.98,64.69,128.23,56.66,129.36,56.88C129.26,56.86,129.87,56.98,129.36,56.88z"/>
	</g>
</g>
<g id="Layer_1_1_">
	<g>
		<path class="st0" d="M45.2,39.41c-0.08-2.55-0.48-5.07-0.45-7.62c0.03-2.06,0.37-4.18-0.34-6.16c0.04-0.22,0.09-0.45,0.13-0.67
			c0.18-0.99-3.1-0.47-3.62,0.44c-0.33,0.27-0.49,0.58-0.35,0.91c0.03,0.08,0.06,0.16,0.1,0.25c-0.62,3.04-1.49,5.98-2.49,8.93
			c-0.38,1.13-0.84,2.23-1.23,3.35c-0.55-1.05-1.11-2.08-1.56-3.21c-1.3-3.26-2.48-6.55-4.07-9.69c0.18-1.45-3.04-1.3-3.67,0.03
			c-0.77,1.61-0.67,3.23-0.42,4.95c0.28,1.94,0.33,3.84,0.36,5.8c0.04,3.77,0.34,7.54,0.4,11.31c-0.34,0.37-0.44,0.83-0.09,1.3
			c0.15,0.2,0.34,0.36,0.54,0.52c0.86,0.69,3.32,0.1,3.32-1.21c-0.01-3.91-0.29-7.82-0.4-11.73c-0.01-0.38-0.02-0.77-0.02-1.15
			c0.05,0.14,0.11,0.28,0.16,0.41c0.61,1.52,1.24,3,2.07,4.42c0.82,1.4,1.24,2.91,1.71,4.44c-0.18,0.21-0.29,0.44-0.22,0.67
			c-0.04,0.17,0.07,0.28,0.24,0.34c0.61,0.52,1.75,0.26,2.38-0.01c0.27-0.11,0.53-0.25,0.78-0.4c0.33-0.2,0.84-0.64,0.69-1.1
			c-0.03-0.09-0.06-0.18-0.08-0.26c0.45-1.2,0.67-2.46,0.92-3.73c0.26-1.36,0.74-2.64,1.23-3.92c0.05,0.59,0.1,1.18,0.15,1.76
			c0.19,2.42,0.03,4.81,0.01,7.24c-0.01,0.8,0.05,1.55,0.21,2.34c0.06,0.32,0.35,1.71,0.27,1.79c-0.58,0.54-0.41,1.19,0.37,1.36
			c0.87,0.19,1.97-0.1,2.63-0.71c1.14-1.05,0.6-2.7,0.34-4.02C44.74,44.17,45.27,41.68,45.2,39.41z"/>
		<path class="st0" d="M53.13,40.06c-0.07-1.89-0.73-3.67-0.73-5.57c-0.01-2.19,0.17-4.36-0.15-6.53c-0.1-0.69-3.85,0.09-3.72,1
			c0.29,2,0.19,4.01,0.15,6.03c-0.04,1.94,0.44,3.7,0.69,5.6c0.25,1.95-0.08,3.95,0.14,5.9c0.1,0.91,0.71,2.6,0.08,3.4
			c-0.4,0.5,1.39,0.32,1.47,0.31c0.73-0.14,1.7-0.37,2.19-0.99c0.62-0.78,0.19-2.3,0.05-3.18C53.01,44.05,53.21,42.03,53.13,40.06z"
			/>
		<path class="st0" d="M68.63,36.9c-1.96-2.64-5.59-0.74-8.13-1.46c-1.31-0.37-1.32-2.16-1.32-3.22c0-1.35-0.11-2.59-0.26-3.93
			c-0.11-1-0.02-2.01,0.71-2.76c0.13-0.14,0.82-0.32,0.77-0.32c0.33-0.06,0.64-0.07,1.01-0.09c1.47-0.06,4.38,0.22,3.81,2.36
			c-0.25,0.96,3.41,0.41,3.68-0.6c1.15-4.36-6.91-3.53-9.19-2.92c-2.1,0.56-4.41,1.75-4.53,4.17c-0.06,1.16,0.26,2.26,0.31,3.4
			c0.06,1.32-0.19,2.63,0.27,3.91c1.03,2.83,5.24,1.5,7.38,1.66c3.65,0.27,2.56,5.19,2.61,7.48c0.02,1.22,1.12,3.25,0.2,4.28
			c-0.57,0.63-1.88,0.66-2.65,0.73c-0.77,0.06-2.09,0.3-2.6-0.44c-0.94-1.34,0.09-3.61-0.11-5.15c-0.11-0.88-3.86-0.09-3.72,1
			c0.33,2.49-1.33,5.83,2.28,6.26c2.32,0.28,4.93-0.15,7.12-0.88c1.14-0.38,2.19-0.89,3.08-1.7c0.98-0.89,0.66-2.23,0.4-3.37
			C69.1,42.53,70.44,39.34,68.63,36.9z"/>
		<path class="st0" d="M85.07,36.73c-0.11-3.58-0.65-7.13-0.67-10.72c-0.01-1.87-3.76-1.24-3.75,0.32c0.01,3.42,0.47,6.8,0.65,10.22
			c0,0.07,0.01,0.14,0.01,0.21c-1.85-0.02-3.7,0.17-5.55,0.23c0.19-4.4-0.58-8.76-0.41-13.15c0.02-0.55-3.68-0.09-3.72,1
			c-0.16,4.25,0.56,8.46,0.43,12.71c-0.06,2.03-0.23,4.05-0.25,6.07c-0.01,1.04,0.16,2.07,0.31,3.1c0.14,0.95,0.46,2.21,0.17,3.15
			c-0.22,0.73,3.38,0.28,3.67-0.66c0.52-1.69-0.21-3.83-0.38-5.54c-0.17-1.64-0.04-3.32,0.08-4.98c1.92-0.12,3.85-0.28,5.77-0.01
			c0.08,1.31,0.19,2.61,0.3,3.92c0.1,1.1,0.17,2.19,0.19,3.3c0.02,0.97,0.13,2.37-0.21,3.28c-0.73,1.95,2.99,1.79,3.53,0.35
			c0.67-1.78,0.48-3.98,0.36-5.85C85.46,41.35,85.14,39.05,85.07,36.73z"/>
		<path class="st0" d="M101.14,40.97c-0.89-2.62-2.25-4.91-3.43-7.4c0.95-1.85,1.92-3.7,2.78-5.59c0.79-1.72,1.37-3.62,2.92-4.83
			c0.54-0.42,0.52-0.85-0.24-0.9c-0.83-0.06-1.96,0.18-2.63,0.7c-1.41,1.1-2.3,2.43-3.04,4.05c-0.88,1.95-1.8,3.86-2.76,5.76
			c-0.07,0.14-0.14,0.28-0.21,0.42c-0.46,0.3-0.74,0.72-0.61,1.2c-0.75,1.48-1.52,2.96-2.37,4.38c-0.28-5.25-0.91-10.5-1.09-15.75
			c-0.04-1.2-3.77-0.46-3.71,1c0.23,6.52,1.16,13.02,1.22,19.54c-0.02,0.02-0.03,0.03-0.05,0.05c-0.29,0.29-0.18,0.47,0.05,0.57
			c0,1.66-0.06,3.32-0.2,4.99c-0.45,0.71,0.44,1.08,1.03,1.08c0.03,0,0.06,0,0.09,0c0.7,0,2.49-0.33,2.58-1.29
			c0.18-1.99,0.24-3.98,0.22-5.97c1.51-1.63,2.74-3.44,3.85-5.35c0.72,1.41,1.41,2.82,1.89,4.35c0.82,2.6,2.18,4.99,2.97,7.6
			c0.52,1.71,4.23,0.7,3.72-1C103.32,45.96,102.02,43.55,101.14,40.97z"/>
		<path class="st0" d="M123.44,36.57c-0.2-0.79-1.3-0.81-2.16-0.73c-0.01-0.32-0.02-0.64-0.03-0.96c-0.12-2.53-0.16-5.1-0.37-7.62
			c-0.2-2.33-1.5-3.17-3.77-3.08c-2.29,0.09-4.96,0.5-7.1,1.33c-2.47,0.96-3.85,2.78-4.33,5.39c-0.52,2.86,0.23,5.9,0.35,8.77
			c0.15,3.32,0.06,6.66,0.06,9.98c0,0.54,3.72,0.03,3.72-1c0-2.63,0.04-5.27,0-7.9c-0.01-0.78-0.05-1.55-0.1-2.32
			c1.3-0.56,3.5,0.01,4.79,0.13c1.05,0.1,2.06-0.16,3.08-0.28c0.02,2.19,0.1,4.4,0.19,6.59c0.05,1.12,0.45,3.35-0.33,4.28
			c-0.41,0.49,1.41,0.33,1.47,0.31c0.75-0.14,1.67-0.38,2.19-0.99c0.9-1.06,0.43-3.6,0.38-4.86c-0.07-1.81-0.1-3.63-0.13-5.44
			C122.45,38.05,123.65,37.38,123.44,36.57z M109.57,36.43c-0.1-1.18-0.21-2.36-0.29-3.55c-0.15-2.21,0.11-5.3,2.17-6.64
			c0.55-0.36,1.59-0.3,2.24-0.42c0.92-0.17,1.86-0.37,2.68,0.18c1.15,0.76,0.87,3.47,0.86,4.62c0,1.9,0.2,3.8,0.29,5.7
			c-0.52,0.05-1.06,0.08-1.6,0.07C113.77,36.34,111.62,36,109.57,36.43z"/>
		<path class="st0" d="M49.91,25.37c0.49-0.05,0.99-0.21,1.4-0.5c0.08-0.07,0.16-0.14,0.24-0.21c0.49-0.32,0.92-0.78,0.69-1.29
			c-0.48-1.05-0.4-2.12-0.4-3.24c0.01-0.91-0.91-1.18-1.69-1.11c-0.69,0.06-2.06,0.55-2.06,1.44c-0.01,0.94-0.07,1.91,0.1,2.84
			c-0.05,0.11-0.07,0.23-0.1,0.34c-0.05,0.2,0.02,0.4,0.14,0.56c0,0.04,0,0.08,0,0.13c0,0.11,0.01,0.21,0.01,0.32
			c0.07,0.22,0.21,0.39,0.41,0.5C49.03,25.37,49.5,25.41,49.91,25.37z"/>
	</g>
</g>
</svg>
