<svg xmlns="http://www.w3.org/2000/svg" viewBox="8.01 4.35 31.97 37.3"><path d="M24 41.65c8.83 0 15.99-7.16 15.99-15.99-8.83 0-15.99 7.16-15.99 15.99zM12.64 20.78c0 2.45 1.99 4.44 4.44 4.44.93 0 1.8-.29 2.51-.78l-.04.34c0 2.45 1.99 4.44 4.44 4.44s4.44-1.99 4.44-4.44l-.04-.34c.72.5 1.58.78 2.51.78 2.45 0 4.44-1.99 4.44-4.44 0-1.77-1.04-3.29-2.54-4a4.44 4.44 0 0 0 2.54-4c0-2.45-1.99-4.44-4.44-4.44-.93 0-1.8.29-2.51.78l.04-.34c0-2.45-1.99-4.44-4.44-4.44s-4.44 1.99-4.44 4.44l.04.34c-.72-.5-1.58-.78-2.51-.78-2.45 0-4.44 1.99-4.44 4.44 0 1.77 1.04 3.29 2.54 4-1.5.71-2.54 2.23-2.54 4zM24 12.34c2.45 0 4.44 1.99 4.44 4.44s-1.99 4.44-4.44 4.44-4.44-1.99-4.44-4.44 1.99-4.44 4.44-4.44zM8.01 25.66c0 8.83 7.16 15.99 15.99 15.99 0-8.83-7.16-15.99-15.99-15.99z" fill="#63d1bb"/></svg>