<svg xmlns="http://www.w3.org/2000/svg" viewBox="-259.4 -19.67 40.22 62.41"><path d="M-244.23 18.28c-.29.97-.24 2.19.03 3.64.49 2.63 1.69 6.04 2.36 9.67h5.06c.7-3.64 1.95-7.05 2.47-9.68.29-1.45.33-2.66.04-3.62-.27-.9-.89-1.62-2.02-2.3h-6c-1.07.68-1.67 1.39-1.94 2.29zm11.83 20h-13.8c-1.29 0-2.3.98-2.3 2.23v2.23h18.4v-2.23c0-1.26-1-2.23-2.3-2.23zm7.14-55.73h-11.73c0-1.24-1.02-2.23-2.3-2.23-1.28 0-2.3.98-2.3 2.23h-11.74l-6.07 25.52c.79-.46 1.59-.99 2.63-.99 1.36 0 2.24.82 2.92 1.38.68.56 1.16.85 1.45.85.29 0 .77-.29 1.45-.84.68-.55 1.56-1.36 2.92-1.36 1.35 0 2.24.81 2.92 1.35.68.55 1.16.84 1.45.84.15 0 .34-.07.58-.21.24-.14.53-.35.87-.63.51-.41 1.14-.97 1.99-1.22.28-.09.59-.14.93-.14 1.35 0 2.24.81 2.92 1.35.68.55 1.16.84 1.45.84.29 0 .77-.3 1.45-.85.68-.55 1.57-1.37 2.92-1.37 1.36 0 2.24.82 2.92 1.37.34.28.63.49.87.63s.43.21.57.21c.29 0 .76-.29 1.44-.85.68-.56 1.57-1.38 2.93-1.38 1.04 0 1.84.53 2.63 1l-6.07-25.5zm-10.62 51.27h-6.86c-.66 0-1.15.48-1.15 1.12 0 .63.49 1.11 1.15 1.11h6.9c.66 0 1.15-.48 1.15-1.11 0-.64-.49-1.12-1.15-1.12h-.04zm-3.41-24.48c-.15 0-.34.07-.58.21-.16.09-.37.26-.57.41v3.73h2.3V9.96c-.51-.38-.91-.62-1.15-.62z"/></svg>