<svg data-name="Layer 2" xmlns="http://www.w3.org/2000/svg" viewBox="0 0 24.83 24.33"><path d="M17.32 24.33h-1.11A17.19 17.19 0 0 1 5.1 18.56 19.34 19.34 0 0 1 0 6.82V5.46a3.35 3.35 0 0 1 1.07-2.09 4.52 4.52 0 0 1 2.52-1.55 3.18 3.18 0 0 1 2.23 1.07 7.51 7.51 0 0 1 .78 2.37A8.81 8.81 0 0 1 7.08 8c-.18 1.2-1.76 1.7-2.23 2.57a16.68 16.68 0 0 0 7.47 8.35c.85-.47 1.6-1.87 2.77-1.89a4.77 4.77 0 0 1 1.4.34c.48.14.9.32 1.32.48.7.27 2 .62 2.37 1.21a3.46 3.46 0 0 1 .58 2.23c-.19 1.22-2.22 2.59-3.44 3.04zm-4.79-22.8A10.77 10.77 0 0 1 23.3 12.3h1.53A12.3 12.3 0 0 0 12.53 0z"/><path d="M12.53 9.33v1.55A1.43 1.43 0 0 1 14 12.3h1.5a3 3 0 0 0-2.97-2.97zm0-3.08a6.05 6.05 0 0 1 6 6.05h1.59a7.64 7.64 0 0 0-7.64-7.64z"/></svg>