<svg xmlns="http://www.w3.org/2000/svg" viewBox="52.25 53.77 23.49 20.17"><path d="M75.71 57.86c-.23-.37-.91-.28-1.41-.37h-1.11c.14-.35.34-.65.52-.96.06-.44.25-.73.22-1.26.13-.17.18-.42.3-.59.1-.14.24-.48.07-.67-.05-.22-.29-.25-.59-.22-.09.04-.17.08-.22.15-.45.43-.78 1.01-1.26 1.41-.01.01-.06 0-.07 0-.09 0-.03.05-.08.07-.15.1-.26.15-.37.22-.28.18-.55.44-.89.52-.53-.21-1.16-.33-1.85-.37-1.16.1-2.3.22-3.04.74-.91.35-1.48 1.04-2.15 1.63-.05.32-.34.4-.37.74 0 .05-.01.09-.07.07.04.24-.05.34-.07.52 0 .13.2.43 0 .52-.82-.12-1.49-.63-2.15-.96-.72-.36-1.47-.6-2.07-1.11-.72-.32-1.26-.82-1.78-1.33-.21-.31-.54-.5-.67-.89-.38-.16-.18-.91-.74-.89-.32-.04-.34.2-.44.37-.07.23-.36.23-.37.52 0 .05-.01.09-.07.08-.17 1.09-.53 1.99-.52 3.26.13.42.35.74.59 1.04-.42.05-.72.22-.89.52-.06 1.07.38 1.65.74 2.3.13.38.35.68.59.96.02.23.21.29.3.45.02.11.12.13.15.22-.04.11.29.18.07.22-.41.13-1.02.07-1.26.37-.11.28-.11.83 0 1.11.03.24.28.26.3.52.5.42 1.08.75 1.63 1.11.57.17 1.21.27 1.85.37-.1.34-.34.55-.59.74-.78.38-1.85.47-2.74.74-.56.04-.96.23-1.56.22-.33.13-.85.08-1.11.22-.12.07-.1.1-.22.22-.13.41.11.74.44.89 0 .25.22.28.37.37.09.18.25.29.44.37.54.47 1.27.76 1.93 1.11.83.18 1.65.38 2.52.52.9.12 1.9.12 2.82.22h.96c.51.13 1.23.05 1.85.07.09-.1.32-.07.52-.07.52-.27 1.2-.38 1.63-.74.57-.24.99-.64 1.56-.89.87-.76 1.94-1.32 2.52-2.37.21-.19.35-.44.45-.74.26-.16.38-.45.59-.67.4-.41.71-.92 1.04-1.41.32-.5.58-1.05.89-1.56-.01-.41.31-.48.3-.89.19-.23.18-.66.37-.89-.03-.25.03-.42.07-.59.05-1.28-.05-2.42-.3-3.41.59-.15 1.18-.3 1.63-.59.51-.19.98-.59.8-1.26zm-3.41 4.07c-.15.86-.62 1.41-1.04 2 .06.38-.1.54-.07.89-.16.31-.29.65-.37 1.04-.2.27-.33.61-.52.89-.37.55-.78 1.05-1.19 1.56-.38.56-.91.96-1.33 1.48-.42.49-.94.88-1.41 1.33-.47.17-.89.4-1.26.67-.23.09-.46.18-.67.3-.18.15-.5.14-.67.3-1.09.15-2.3.17-3.56.15-1.03-.11-2.11-.16-3.04-.37-.92-.19-1.51-.71-2.3-1.04.15-.24.63-.15.96-.22.03-.17.39 0 .44-.15.26.06.29-.11.52-.07.56-.2 1.23-.3 1.7-.59.28-.14.41-.43.67-.59.03-.19.1-.34.22-.44.05-.28.2-.44.15-.82.11-.21.3-.34.3-.67-.07-.15-.13-.32-.3-.37-.03-.2-.38-.07-.44-.22-.25.03-.42-.03-.59-.08-.15-.04-.49.09-.52-.07-.84-.02-1.3-.43-1.85-.74.43-.26 1.03-.35 1.33-.74.52-.08 1.06-.13 1.11-.67 0-.72-.77-.66-1.33-.82-.77-.66-1.19-1.67-1.78-2.52.24-.16.56-.23.74-.44.45.06.54-.25.67-.52.02-.49-.33-.61-.59-.81-.26-.21-.48-.46-.67-.74 0-.82-.02-1.65.07-2.37.06-.01.07.03.07.07.23.44.56.77.82 1.19.53.36.93.85 1.56 1.11.45.41 1.11.62 1.56 1.04.6.26 1.16.57 1.7.89.67.19 1.06.67 2 .59.2-.1.39-.2.59-.3.26-.46-.06-1.08.15-1.63.25-.66.8-1.03 1.26-1.48.29-.15.55-.34.82-.52.35-.1.67-.22.96-.37.38-.02.71-.08 1.04-.15h1.26c.24.05.47.12.74.15.21.14.38.31.67.37.79.69 1.27 1.7 1.41 3.04-.12.46.06.85.01 1.46zm.29-5.63c-.13.34-.23.71-.59.82-.02-.11-.12-.13-.15-.22-.01-.21.21-.19.3-.3.16-.09.24-.25.44-.3 0-.09.11-.05 0 0zm-5.48 3.04c.16.13.28.31.52.37.1.22.31.33.59.37.05-.15.35-.05.37-.22.17-.02.17-.23.3-.3-.02-.55-.13-1.01-.37-1.33-.76-.43-1.68.04-1.41 1.11z" fill="#231f20"/></svg>