<svg xmlns="http://www.w3.org/2000/svg" viewBox="42.14 241.38 496 355.06"><path d="M505.53 328.75s-4.19-31.86-17.21-45.81c-16.51-18.37-34.88-18.49-43.37-19.53-60.57-4.65-151.38-4.65-151.38-4.65h-.23s-90.8 0-151.38 4.65c-8.49 1.05-26.86 1.16-43.37 19.53-12.89 14.07-17.19 45.81-17.19 45.81s-4.07 37.32-4.07 74.64v35c0 37.32 4.3 74.64 4.3 74.64s4.19 31.86 17.21 45.81c16.51 18.37 38.02 17.79 47.67 19.77 34.65 3.49 147.08 4.65 147.08 4.65s90.92-.12 151.49-4.77c8.49-1.05 26.86-1.16 43.37-19.53 12.91-13.95 17.21-45.81 17.21-45.81s4.3-37.32 4.3-74.64v-35c-.12-37.44-4.43-74.76-4.43-74.76z" fill="#63d1bb" stroke="#fff" stroke-width="25" stroke-miterlimit="10"/><path fill="#fff" d="M239.52 339.79V502.1l135.21-81.15z"/></svg>