<?xml version="1.0" encoding="utf-8"?>
<!-- Generator: Adobe Illustrator 23.0.0, SVG Export Plug-In . SVG Version: 6.00 Build 0)  -->
<svg version="1.1" id="Layer_1" xmlns="http://www.w3.org/2000/svg" xmlns:xlink="http://www.w3.org/1999/xlink" x="0px" y="0px"
	 viewBox="226 226.19 60 59.62" style="enable-background:new 226 226.19 60 59.62;" xml:space="preserve">
<style type="text/css">
	.st0{fill:#231F20;}
</style>
<path class="st0" d="M226,269.87l27.44,15.93v-23.35L226,246.52V269.87z M277.35,238.63v2.45c0,1.82-3.46,3.29-7.73,3.29
	c-4.27,0-7.73-1.47-7.73-3.29v-4.06h0.02c0.26,1.71,3.6,3.07,7.7,3.07c4.27,0,7.73-1.47,7.73-3.28c0-1.82-3.46-3.29-7.73-3.29
	c-0.34,0-0.67,0.01-1,0.03l-4.97-2.89v3.09c0,1.82-3.45,3.29-7.72,3.29c-2.68,0-5.04-0.58-6.43-1.47c-0.2-0.2-0.44-0.4-0.73-0.59
	c-0.36-0.38-0.57-0.8-0.57-1.24v-2.99l-4.81,2.79c-0.35-0.02-0.7-0.03-1.05-0.03c-4.27,0-7.73,1.47-7.73,3.29
	c0,1.81,3.46,3.28,7.73,3.28c4.1,0,7.45-1.36,7.7-3.07h0.02v4.06c0,1.82-3.46,3.29-7.73,3.29c-4.27,0-7.73-1.47-7.73-3.29v-2.42
	l-5.95,3.45l27.53,15.99l27.35-15.88L277.35,238.63z M263.7,248.79c0,1.82-3.46,3.29-7.73,3.29c-4.27,0-7.73-1.47-7.73-3.29v-4.06
	h0.02c0.26,1.71,3.6,3.08,7.71,3.08c4.1,0,7.44-1.36,7.7-3.08h0.02V248.79L263.7,248.79z M258.56,262.67v23.14L286,269.87v-23.14
	L258.56,262.67z M255.92,232.76c4.27,0,7.72-1.47,7.72-3.29c0-1.81-3.45-3.29-7.72-3.29c-4.27,0-7.73,1.47-7.73,3.29
	C248.19,231.29,251.65,232.76,255.92,232.76"/>
</svg>
