<?xml version="1.0" encoding="utf-8"?>
<!-- Generator: Adobe Illustrator 23.0.0, SVG Export Plug-In . SVG Version: 6.00 Build 0)  -->
<svg version="1.1"  xmlns="http://www.w3.org/2000/svg" xmlns:xlink="http://www.w3.org/1999/xlink" x="0px" y="0px"
	 viewBox="56.52 50 14.96 27.72" style="enable-background:new 56.52 50 14.96 27.72;" xml:space="preserve">
<style type="text/css">
	.st0{fill:#231F20;}
</style>
<g id="facebook">
	<g>
		<path class="st0" d="M68.18,55.19c1.03,0.03,1.99,0,2.68-0.3c0.39-0.82,0.56-1.85,0.62-2.99c-0.19-0.01-0.06-0.34-0.21-0.4
			c-0.03-0.2-0.28-0.19-0.31-0.4c-0.28-0.17-0.46-0.42-0.72-0.6c-0.73-0.16-1.44-0.33-2.16-0.5c-0.85,0.04-1.89-0.1-2.58,0.1
			c-2.62-0.04-4,1.12-5.26,2.39c-0.02,0.08,0,0.2-0.1,0.2c-0.57,1.59-0.12,3.62-0.2,5.58c0.1,0.44,0.11,0.96,0.2,1.39
			c-1,0.3-2.21,0.39-3.4,0.5c-0.32,0.32-0.18,1.09-0.21,1.69c0.08,0.58,0.28,1.06,0.41,1.59c0.21,0.19,0.6,0.4,0.83,0.5
			c0.06,0.03,0.07,0.08,0.1,0.1c0.51,0.27,1.45,0.01,2.27,0.1c-0.14,1.98,0.26,3.92,0,5.68c0.01,0.33,0.29,0.38,0.21,0.8
			c0,0.96-0.07,1.99,0.21,2.69c-0.29,0.46-0.5,0.98-0.42,1.79c0.12,0.02,0.11,0.16,0.1,0.3c-0.07,0.47,0.64,0.17,0.52,0.7
			c0.16,0.46-0.43,0.18-0.41,0.5v0.9c0.53,0.29,1.46,0.18,2.27,0.2c0.91-0.42,2.19-0.48,2.79-1.2c0.46,0.24,0.92-0.01,1.24-0.2
			c-0.02-0.32,0.27-0.33,0.21-0.7c0-0.33-0.17-0.5-0.1-0.9v-2.89c-0.21-2.29-0.05-4.94-0.31-7.18c0.89-0.11,1.92-0.08,2.58-0.4
			c0.36-0.45,0.38-1.23,0.52-1.89c0.18-0.23,0.22-0.58,0.21-1c0.19-0.21,0.07-0.73,0.1-1.1c-0.14-0.6-0.17-1.3-0.83-1.4
			c-0.88-0.24-2.04,0.6-2.99,0.3c0.05-1.13-0.29-2.34,0-3.39C66.76,55.61,67.46,55.39,68.18,55.19z M64.36,59.97
			c0.12,0.25,0.25,0.49,0.41,0.7c0.08,0.02,0.2,0,0.21,0.1c1.19,0.06,2.2-0.07,3.1-0.3c0,1-0.27,1.73-0.52,2.49
			c-0.66,0.04-1.47,0.3-1.96,0.2c-0.28,0.17-0.37,0.51-0.62,0.7c-0.05,0.44,0.14,0.5,0,0.8c-0.2,0.14-0.05,0.61-0.21,0.8v1.5
			c0.08,0.28-0.15,0.26-0.1,0.5v3.49c-0.08,0.28,0.15,0.26,0.1,0.5v2.99c0.06,0.27-0.13,0.79,0.1,0.9c-0.07,0.36-0.41-0.02-0.82,0.1
			c-0.53,0.12-0.93,0.37-1.55,0.4c0.12-0.35,0.32-0.62,0.31-1.1c0.05-0.38-0.37-0.31-0.52-0.5c0.19-0.64,0.56-1.12,0.72-1.79
			c0.2-0.51,0.71-1.3,0.31-1.79c-0.52-0.11-0.52,0.29-0.83,0.4c-0.02,0.08,0,0.2-0.1,0.2c-0.02,0.08,0,0.2-0.1,0.2
			c0.01,0.12-0.15,0.06,0,0c0.02-0.08,0-0.2,0.1-0.2c0.02-0.08,0-0.2,0.1-0.2v-0.3c0.37-0.58,0.67-1.21,0.83-1.99
			c0.19-0.28,0.28-0.66,0.41-1c0.16-0.26,0.34-0.87,0.1-1.2c-0.52,0.03-0.8,0.29-0.93,0.7c-0.32-0.19,0.16-0.43,0.1-0.7
			c0.14-0.23,0.17-0.57,0.31-0.8c0.2-0.41,0.56-1.3,0-1.6c-0.44-0.02-0.61,0.21-0.72,0.5c-0.21,0.19-0.43,0.38-0.52,0.7
			c-0.37-0.07-0.14-0.73-0.21-1.1c-0.07-0.52,0.12-0.9,0-1.2c-0.56-0.8-2.03-0.11-3.2-0.3c-0.11-0.31-0.22-0.98-0.1-1.2
			c1.04-0.09,2.48,0.2,3.2-0.2c0.02-0.08,0-0.2,0.1-0.2c0.09-0.72-0.27-1-0.51-1.4c0.23-0.81,0.04-2.02,0.1-2.99
			c0.23-0.14,0.33-0.41,0.51-0.6c0.11-0.95,0.67-1.48,0.72-2.49c-0.27,0-0.61-0.05-0.62,0.2c-0.3-0.11-0.38,0.48-0.51,0.2
			c-0.11-0.54,0.25-0.63,0.31-1c0.6-0.42,1.21-0.82,1.86-1.2c1.74-0.24,4.65-0.45,6.09,0.2c0.05,0.62-0.29,0.85-0.21,1.5h-1.55
			c-1.09,0.24-1.99,0.67-2.99,1c-0.24,0.07-0.28,0.33-0.52,0.4c-0.04,0.4-0.22,0.65-0.31,1C64.18,57.42,64.39,58.58,64.36,59.97z"/>
	</g>
</g>
</svg>
