<svg xmlns="http://www.w3.org/2000/svg" viewBox="56.52 50 14.96 27.72"><path d="M68.18 55.19c1.03.03 1.99 0 2.68-.3.39-.82.56-1.85.62-2.99-.19-.01-.06-.34-.21-.4-.03-.2-.28-.19-.31-.4-.28-.17-.46-.42-.72-.6-.73-.16-1.44-.33-2.16-.5-.85.04-1.89-.1-2.58.1-2.62-.04-4 1.12-5.26 2.39-.02.08 0 .2-.1.2-.57 1.59-.12 3.62-.2 5.58.1.44.11.96.2 1.39-1 .3-2.21.39-3.4.5-.32.32-.18 1.09-.21 1.69.08.58.28 1.06.41 1.59.21.19.6.4.83.5.06.03.07.08.1.1.51.27 1.45.01 2.27.1-.14 1.98.26 3.92 0 5.68.01.33.29.38.21.8 0 .96-.07 1.99.21 2.69-.29.46-.5.98-.42 1.79.12.02.11.16.1.3-.07.47.64.17.52.7.16.46-.43.18-.41.5v.9c.53.29 1.46.18 2.27.2.91-.42 2.19-.48 2.79-1.2.46.24.92-.01 1.24-.2-.02-.32.27-.33.21-.7 0-.33-.17-.5-.1-.9v-2.89c-.21-2.29-.05-4.94-.31-7.18.89-.11 1.92-.08 2.58-.4.36-.45.38-1.23.52-1.89.18-.23.22-.58.21-1 .19-.21.07-.73.1-1.1-.14-.6-.17-1.3-.83-1.4-.88-.24-2.04.6-2.99.3.05-1.13-.29-2.34 0-3.39.72-.14 1.42-.36 2.14-.56zm-3.82 4.78c.12.25.25.49.41.7.08.02.2 0 .21.1 1.19.06 2.2-.07 3.1-.3 0 1-.27 1.73-.52 2.49-.66.04-1.47.3-1.96.2-.28.17-.37.51-.62.7-.05.44.14.5 0 .8-.2.14-.05.61-.21.8v1.5c.08.28-.15.26-.1.5v3.49c-.08.28.15.26.1.5v2.99c.06.27-.13.79.1.9-.07.36-.41-.02-.82.1-.53.12-.93.37-1.55.4.12-.35.32-.62.31-1.1.05-.38-.37-.31-.52-.5.19-.64.56-1.12.72-1.79.2-.51.71-1.3.31-1.79-.52-.11-.52.29-.83.4-.02.08 0 .2-.1.2-.02.08 0 .2-.1.2.01.12-.15.06 0 0 .02-.08 0-.2.1-.2.02-.08 0-.2.1-.2v-.3c.37-.58.67-1.21.83-1.99.19-.28.28-.66.41-1 .16-.26.34-.87.1-1.2-.52.03-.8.29-.93.7-.32-.19.16-.43.1-.7.14-.23.17-.57.31-.8.2-.41.56-1.3 0-1.6-.44-.02-.61.21-.72.5-.21.19-.43.38-.52.7-.37-.07-.14-.73-.21-1.1-.07-.52.12-.9 0-1.2-.56-.8-2.03-.11-3.2-.3-.11-.31-.22-.98-.1-1.2 1.04-.09 2.48.2 3.2-.2.02-.08 0-.2.1-.2.09-.72-.27-1-.51-1.4.23-.81.04-2.02.1-2.99.23-.14.33-.41.51-.6.11-.95.67-1.48.72-2.49-.27 0-.61-.05-.62.2-.3-.11-.38.48-.51.2-.11-.54.25-.63.31-1 .6-.42 1.21-.82 1.86-1.2 1.74-.24 4.65-.45 6.09.2.05.62-.29.85-.21 1.5h-1.55c-1.09.24-1.99.67-2.99 1-.24.07-.28.33-.52.4-.04.4-.22.65-.31 1-.05 1.43.16 2.59.13 3.98z" fill="#231f20"/></svg>