<?xml version="1.0" encoding="utf-8"?>
<!-- Generator: Adobe Illustrator 23.0.0, SVG Export Plug-In . SVG Version: 6.00 Build 0)  -->
<svg version="1.1" id="Layer_1" xmlns="http://www.w3.org/2000/svg" xmlns:xlink="http://www.w3.org/1999/xlink" x="0px" y="0px"
	 viewBox="0 0 34.37 34.37" style="enable-background:new 0 0 34.37 34.37; fill:#63d1bb;" xml:space="preserve">
<g>
	<path d="M0.29,14.07c-0.38,2.07-0.38,4.21,0.01,6.3l4.12-3.21L0.29,14.07z"/>
	<path d="M24.4,1.59C19.62-0.62,13.96-0.56,9.15,1.99l7.51,5.63L24.4,1.59z"/>
	<path d="M33.9,13.17l-4.81,3.75l4.94,3.69C34.52,18.17,34.49,15.63,33.9,13.17z"/>
	<path d="M9.21,32.41c4.84,2.53,10.72,2.65,15.73,0.11l-8.1-6.06L9.21,32.41z"/>
	<path d="M7.91,14.43L1.68,9.77c-0.32,0.67-0.6,1.36-0.82,2.06l5.31,3.97L7.91,14.43z"/>
	<path d="M18.59,25.1l8.34,6.24c0.28-0.19,0.55-0.39,0.82-0.6c0.32-0.25,0.63-0.5,0.92-0.77l-8.33-6.23L18.59,25.1z"/>
	<path d="M11.41,11.71L4,6.16C3.54,6.71,3.12,7.29,2.73,7.88l6.93,5.19L11.41,11.71z"/>
	<path d="M22.09,22.38l8.09,6.06c0.47-0.54,0.9-1.11,1.3-1.7l-7.64-5.72L22.09,22.38z"/>
	<path d="M14.91,8.98L7.2,3.2C7,3.34,6.81,3.48,6.62,3.63C6.23,3.94,5.85,4.26,5.49,4.6l7.68,5.75L14.91,8.98z"/>
	<path d="M25.59,19.65l6.97,5.22c0.33-0.66,0.62-1.34,0.86-2.03l-6.08-4.55L25.59,19.65z"/>
	<path d="M26.45,2.71L0.88,22.63c0.23,0.7,0.51,1.39,0.84,2.06L28.24,4.02C27.67,3.54,27.07,3.1,26.45,2.71z"/>
	<path d="M30.74,6.62c-0.3-0.39-0.61-0.75-0.94-1.11L2.79,26.57c0.26,0.4,0.54,0.8,0.84,1.18c0.14,0.18,0.29,0.36,0.44,0.53
		L31.16,7.18C31.02,6.99,30.89,6.81,30.74,6.62z"/>
	<path d="M32.3,9L5.55,29.84c0.54,0.5,1.11,0.96,1.71,1.38l25.96-20.23C32.96,10.31,32.65,9.65,32.3,9z"/>
</g>
</svg>
