<?xml version="1.0" encoding="utf-8"?>
<!-- Generator: Adobe Illustrator 23.0.0, SVG Export Plug-In . SVG Version: 6.00 Build 0)  -->
<svg version="1.1" id="Layer_1" xmlns="http://www.w3.org/2000/svg" xmlns:xlink="http://www.w3.org/1999/xlink" x="0px" y="0px"
	 viewBox="239.67 239.76 32.67 32.49" style="enable-background:new 239.67 239.76 32.67 32.49;" xml:space="preserve">
<style type="text/css">
	.st0{fill:#63d1bb;}
</style>
<path class="st0" d="M242.56,272.24h12.5v-13.91h-12.5V272.24z M270.74,248.62h-7.33c0.52-0.27,0.98-0.55,1.4-0.84
	c1.59-1.13,2.42-2.57,2.42-4c0-1.17-0.56-2.2-1.36-2.9c-0.8-0.7-1.87-1.12-3.02-1.12c-1.22,0-2.35,0.42-3.32,1.07
	c-1.46,0.98-2.61,2.45-3.42,4.07c-0.04,0.08-0.08,0.16-0.12,0.24c-0.3-0.62-0.65-1.23-1.04-1.79c-0.69-0.99-1.52-1.86-2.5-2.51
	c-0.97-0.65-2.1-1.07-3.32-1.07c-1.21,0-2.32,0.51-3.16,1.29c-0.83,0.78-1.41,1.88-1.41,3.13c0,0.73,0.21,1.49,0.65,2.19
	c0.55,0.87,1.42,1.63,2.63,2.25h-6.59c-0.88,0-1.59,0.71-1.59,1.59v5.9h15.4v-7.49h1.87v7.49h15.4v-5.9
	C272.33,249.33,271.62,248.62,270.74,248.62 M248.38,246.28c-0.62-0.39-1-0.79-1.22-1.13c-0.22-0.35-0.29-0.66-0.3-0.96
	c0-0.5,0.25-1.04,0.69-1.46c0.44-0.42,1.03-0.67,1.56-0.67h0.01c0.68,0,1.37,0.23,2.05,0.68c1.02,0.67,1.97,1.85,2.64,3.19
	c0.34,0.68,0.61,1.39,0.79,2.09C251.53,247.69,249.53,247.01,248.38,246.28 M258.92,244.66c0.56-0.8,1.21-1.47,1.89-1.92
	c0.68-0.45,1.36-0.68,2.05-0.68h0.01c0.57,0,1.12,0.22,1.49,0.55c0.38,0.34,0.57,0.74,0.57,1.17c0,0.51-0.27,1.26-1.47,2.13
	c-1.14,0.83-3.1,1.67-6.13,2.26C257.62,246.97,258.18,245.7,258.92,244.66 M256.94,272.24h12.51v-13.91h-12.51V272.24z"/>
</svg>
