<?xml version="1.0" encoding="utf-8"?>
<!-- Generator: Adobe Illustrator 23.0.0, SVG Export Plug-In . SVG Version: 6.00 Build 0)  -->
<svg version="1.1" id="Money" xmlns="http://www.w3.org/2000/svg" xmlns:xlink="http://www.w3.org/1999/xlink" x="0px" y="0px"
	 viewBox="46.21 56.83 46.58 27.33" style="enable-background:new 46.21 56.83 46.58 27.33; fill:#63d1bb;" xml:space="preserve">
<path d="M88.88,56.83H50.12c-2.16,0-3.9,1.75-3.9,3.9v19.52c0,2.16,1.75,3.91,3.9,3.91h38.77c2.16,0,3.91-1.75,3.91-3.91V60.74
	C92.79,58.58,91.04,56.83,88.88,56.83z M49.24,81.78V59.55h40.2v22.23H49.24z"/>
<path d="M53.14,77.88h32.39V63.46H53.14V77.88z M69.5,65.35c2.94,0,5.32,2.38,5.32,5.31c0,2.94-2.38,5.31-5.32,5.31
	c-2.94,0-5.31-2.38-5.31-5.31C64.19,67.73,66.56,65.35,69.5,65.35z"/>
</svg>
