<svg xmlns="http://www.w3.org/2000/svg" viewBox="0 0 34.37 34.37" fill="#63d1bb"><path d="M.29 14.07c-.38 2.07-.38 4.21.01 6.3l4.12-3.21-4.13-3.09zM24.4 1.59c-4.78-2.21-10.44-2.15-15.25.4l7.51 5.63 7.74-6.03zm9.5 11.58l-4.81 3.75 4.94 3.69a17.3 17.3 0 0 0-.13-7.44zM9.21 32.41c4.84 2.53 10.72 2.65 15.73.11l-8.1-6.06-7.63 5.95zm-1.3-17.98L1.68 9.77c-.32.67-.6 1.36-.82 2.06l5.31 3.97 1.74-1.37zM18.59 25.1l8.34 6.24c.28-.19.55-.39.82-.6.32-.25.63-.5.92-.77l-8.33-6.23-1.75 1.36zm-7.18-13.39L4 6.16c-.46.55-.88 1.13-1.27 1.72l6.93 5.19 1.75-1.36zm10.68 10.67l8.09 6.06c.47-.54.9-1.11 1.3-1.7l-7.64-5.72-1.75 1.36zm-7.18-13.4L7.2 3.2c-.2.14-.39.28-.58.43-.39.31-.77.63-1.13.97l7.68 5.75 1.74-1.37zm10.68 10.67l6.97 5.22c.33-.66.62-1.34.86-2.03l-6.08-4.55-1.75 1.36zm.86-16.94L.88 22.63c.23.7.51 1.39.84 2.06L28.24 4.02c-.57-.48-1.17-.92-1.79-1.31zm4.29 3.91c-.3-.39-.61-.75-.94-1.11L2.79 26.57c.26.4.54.8.84 1.18.14.18.29.36.44.53l27.09-21.1c-.14-.19-.27-.37-.42-.56zM32.3 9L5.55 29.84c.54.5 1.11.96 1.71 1.38l25.96-20.23c-.26-.68-.57-1.34-.92-1.99z"/></svg>