<?xml version="1.0" encoding="utf-8"?>
<!-- Generator: Adobe Illustrator 23.0.0, SVG Export Plug-In . SVG Version: 6.00 Build 0)  -->
<svg version="1.1"  xmlns="http://www.w3.org/2000/svg" xmlns:xlink="http://www.w3.org/1999/xlink" x="0px" y="0px"
	 viewBox="8.01 4.35 31.97 37.3" style="enable-background:new 8.01 4.35 31.97 37.3;" xml:space="preserve">
<style type="text/css">
	.st0{fill:#63d1bb;}
</style>
<path class="st0" d="M24,41.65c8.83,0,15.99-7.16,15.99-15.99C31.16,25.66,24,32.82,24,41.65z M12.64,20.78
	c0,2.45,1.99,4.44,4.44,4.44c0.93,0,1.8-0.29,2.51-0.78l-0.04,0.34c0,2.45,1.99,4.44,4.44,4.44c2.45,0,4.44-1.99,4.44-4.44
	l-0.04-0.34c0.72,0.5,1.58,0.78,2.51,0.78c2.45,0,4.44-1.99,4.44-4.44c0-1.77-1.04-3.29-2.54-4c1.49-0.71,2.54-2.23,2.54-4
	c0-2.45-1.99-4.44-4.44-4.44c-0.93,0-1.8,0.29-2.51,0.78l0.04-0.34c0-2.45-1.99-4.44-4.44-4.44c-2.45,0-4.44,1.99-4.44,4.44
	l0.04,0.34c-0.72-0.5-1.58-0.78-2.51-0.78c-2.45,0-4.44,1.99-4.44,4.44c0,1.77,1.04,3.29,2.54,4
	C13.68,17.49,12.64,19.01,12.64,20.78z M24,12.34c2.45,0,4.44,1.99,4.44,4.44c0,2.45-1.99,4.44-4.44,4.44
	c-2.45,0-4.44-1.99-4.44-4.44C19.56,14.33,21.55,12.34,24,12.34z M8.01,25.66c0,8.83,7.16,15.99,15.99,15.99
	C24,32.82,16.84,25.66,8.01,25.66z"/>
</svg>
