<?xml version="1.0" encoding="utf-8"?>
<!-- Generator: Adobe Illustrator 23.0.0, SVG Export Plug-In . SVG Version: 6.00 Build 0)  -->
<svg version="1.1" id="Layer_1" xmlns="http://www.w3.org/2000/svg" xmlns:xlink="http://www.w3.org/1999/xlink" x="0px" y="0px"
	 viewBox="612.53 500.39 54.16 23.18" style="enable-background:new 612.53 500.39 54.16 23.18; fill:#63d1bb;" xml:space="preserve">
<g>
	<path d="M652.84,506.1c-3.65-0.97-7.84-1.67-12.36-1.67c-2.89,0-5.46,0.24-7.71,0.62l-6.78-4.67l-13.46,0.01l5.81,6.18h8.45
		c-4.58,1.6-6.76,3.51-6.76,3.51l0,3.78c0,0,2.31,1.91,6.93,3.52l-8.62,0l-5.81,6.19l13.46,0l6.82-4.69
		c2.26,0.4,4.82,0.65,7.68,0.65c4.52,0,8.71-0.7,12.36-1.67c-1.18-1.78-1.91-3.74-1.92-5.88
		C650.93,509.84,651.67,507.87,652.84,506.1z"/>
	<path d="M656.27,507.13c-1.28,1.6-1.97,3.25-1.96,4.84c-0.01,1.6,0.68,3.24,1.97,4.85c6.4-2.16,10.42-4.84,10.42-4.84
		S662.67,509.3,656.27,507.13z"/>
</g>
</svg>
