<svg xmlns="http://www.w3.org/2000/svg" viewBox="612.53 500.39 54.16 23.18" fill="#63d1bb"><path d="M652.84 506.1c-3.65-.97-7.84-1.67-12.36-1.67-2.89 0-5.46.24-7.71.62l-6.78-4.67-13.46.01 5.81 6.18h8.45c-4.58 1.6-6.76 3.51-6.76 3.51v3.78s2.31 1.91 6.93 3.52h-8.62l-5.81 6.19h13.46l6.82-4.69c2.26.4 4.82.65 7.68.65 4.52 0 8.71-.7 12.36-1.67-1.18-1.78-1.91-3.74-1.92-5.88 0-2.14.74-4.11 1.91-5.88zm3.43 1.03c-1.28 1.6-1.97 3.25-1.96 4.84-.01 1.6.68 3.24 1.97 4.85 6.4-2.16 10.42-4.84 10.42-4.84s-4.03-2.68-10.43-4.85z"/></svg>