<?xml version="1.0" encoding="utf-8"?>
<!-- Generator: Adobe Illustrator 23.0.0, SVG Export Plug-In . SVG Version: 6.00 Build 0)  -->
<svg version="1.1" id="Layer_1" xmlns="http://www.w3.org/2000/svg" xmlns:xlink="http://www.w3.org/1999/xlink" x="0px" y="0px"
	 viewBox="53.12 53.19 21.77 21.33" style="enable-background:new 53.12 53.19 21.77 21.33;" xml:space="preserve">
<style type="text/css">
	.st0{fill:#231F20;}
</style>
<g id="instagram">
	<g>
		<path class="st0" d="M74.88,65.34c-0.01-2.39-0.34-4.79-0.3-7.13c-0.02-0.79-0.09-1.54-0.15-2.28c-0.11-0.3-0.11-0.7-0.15-1.06
			c-0.26-0.17-0.22-0.64-0.46-0.84c-0.42-0.23-1.2-0.11-1.74-0.23c-0.66-0.03-1.25-0.12-1.9-0.15c-1.94-0.1-3.97-0.08-6-0.08
			c-2,0-3.95-0.14-5.7-0.38h-2.2c-0.1,0-0.11,0.1-0.23,0.08c-0.6,0.03-1.08,0.19-1.59,0.3c-0.21,0.12-0.42,0.24-0.68,0.3
			c-0.14,0.19-0.51,0.14-0.61,0.38c-0.19,0.21,0.18,0.45,0,0.61v0.91c0.17,0.13,0.03,0.58,0.08,0.83v0.99
			c-0.02,1.28,0.13,2.4,0.08,3.72c0.47,2.76,0.37,6.54,0.08,9.41c0.16,0.58,0.36,1.11,0.46,1.75c0.26,0.48,0.33,1.13,0.68,1.52
			c0.5,0.21,1.23,0.19,1.9,0.23c0.38,0.1,0.67,0.29,1.14,0.3c2.84-0.21,5.5-0.15,8.43-0.23c2.7,0.24,5.8,0.19,8.28-0.23
			c0.2-0.13,0.13-0.53,0.23-0.76c-0.06-0.38,0.21-0.45,0.23-0.76C74.86,70.16,74.89,67.76,74.88,65.34z M61.9,59.11
			c0.76-0.15,1.48-0.34,2.43-0.3c0.71,0.08,1.29,0.28,1.9,0.46c0.12,0.18-0.24,0.55,0.15,0.68v0.08c0.06,0.02,0.15,0,0.15,0.08
			c0.45,0.04,0.79,0.17,1.06,0.38c0.45,0.05,0.54,0.48,1.14,0.38c-0.09,0.21-0.08,0.52-0.08,0.83c0.32,1.18,0.47,2.81,0.3,4.25
			c-0.16,0.16-0.21,0.44-0.3,0.68c-0.31,0.32-0.48,0.79-0.84,1.06c-0.09,0.24-0.25,0.41-0.45,0.53c-0.12,0.21-0.21,0.45-0.46,0.53
			c-0.3,0.16-0.58,0.01-0.83-0.08c-0.45,0.16-0.9,0.31-1.21,0.61c-0.82-0.1-1.65-0.17-2.43-0.3c-0.24-0.14-0.49-0.27-0.83-0.3
			c-0.23-0.2-0.5-0.36-0.84-0.46c-0.1-0.13-0.34-0.12-0.46-0.23c-0.2-0.03-0.23-0.23-0.46-0.23c-0.12-0.41-0.44-0.62-0.53-1.06
			c-0.23-0.33-0.31-0.8-0.46-1.21c-0.04-1.43,0.09-2.69,0.38-3.8c0.35-0.59,0.78-1.09,1.14-1.67c0.25,0.02,0.37-0.09,0.38-0.3
			c0.31,0.05,0.43-0.07,0.68-0.08C61.7,59.57,61.71,59.25,61.9,59.11z M60.23,56.38c-0.12-0.26-0.07-0.69-0.08-1.06
			c-0.01-0.28,0.28-0.28,0.3-0.53c0-0.07-0.09-0.06-0.15-0.08c0.13-0.15,0.7-0.1,0.83,0c0.13,0.54-0.35,0.46-0.53,0.68
			c0.01,0.17,0.32,0.03,0.46,0.08c0.03,0.85-0.06,1.5,0,2.2h-0.46c-0.01,0.23,0.23,0.23,0.46,0.23c-0.06,0.29,0.09,0.36,0.08,0.61
			c-0.23,0.15-0.72,0.04-1.06,0.08C59.97,57.99,60.31,57.21,60.23,56.38z M59.55,54.78c0.09-0.01,0.13,0.02,0.15,0.08
			c0.18,0.25,0.01,0.68-0.08,0.91C59.45,55.59,59.59,55.09,59.55,54.78z M59.7,56.61c-0.13-0.07-0.17-0.24-0.15-0.46
			C59.68,56.22,59.71,56.39,59.7,56.61z M59.7,57.97c-0.06,0.14-0.08-0.04-0.08-0.15C59.68,57.68,59.7,57.87,59.7,57.97z
			 M59.55,58.2c0.17-0.02,0.08,0.22,0.23,0.23c-0.01,0.19-0.28,0.18-0.38,0.08C59.43,58.39,59.51,58.31,59.55,58.2z M57.19,56.99
			c0.01-0.11,0.01-0.21-0.08-0.23c-0.07-0.73,0.13-1.41,0-1.97c0.25-0.15,0.77-0.04,1.14-0.08v1.14c-0.09,0.06-0.2,0.1-0.38,0.08
			c-0.05,0.28,0.32,0.13,0.38,0.3c0.01,0.85-0.06,1.78,0.15,2.43c-0.57-0.06-0.91,0.11-1.44,0.08c0.1-0.61-0.02-1.43,0.53-1.59
			C57.48,57,57.24,57.09,57.19,56.99z M56.66,56.99c-0.2,0.02-0.22-0.53-0.08-0.61C56.91,56.38,56.83,56.88,56.66,56.99z
			 M56.51,57.97c0.08-0.31,0.03-0.3,0.08-0.68C56.81,57.3,56.84,58.06,56.51,57.97z M56.74,55.92c-0.26,0.05-0.27-0.27-0.15-0.38
			C56.85,55.49,56.86,55.81,56.74,55.92z M56.74,54.78c0.03,0.16-0.05,0.2-0.08,0.3c-0.18,0.02-0.08-0.22-0.23-0.23
			C56.46,54.76,56.62,54.8,56.74,54.78z M56.51,58.5c0.15-0.03,0.11,0.34-0.08,0.23C56.47,58.67,56.51,58.61,56.51,58.5z
			 M55.83,54.78c0.03,0.26-0.44,0.32-0.38,0H55.83z M54.84,54.86c-0.03,0.22-0.33,0.18-0.38,0.38
			C54.25,55.07,54.54,54.77,54.84,54.86z M54.38,55.62c0.23-0.2,0.45-0.41,0.68-0.61c-0.02-0.12,0.07-0.13,0.08-0.23h0.23
			c0.1,0.38-0.26,0.3-0.3,0.53c0.02,0.12-0.07,0.13-0.08,0.23c0.02,0.34,0.12,0.59,0.08,0.99c-0.27,0.01-0.28,0.28-0.61,0.23
			C54.48,56.33,54.33,56.08,54.38,55.62z M54.46,58.88v-1.59c0.2-0.18,0.4-0.36,0.61-0.53c0.29,0.49,0.18,1.39,0.46,1.9
			C55.25,58.81,54.77,58.77,54.46,58.88z M72.68,69.97c-0.11,0.95-0.16,1.97-0.38,2.81c-2.89,0.12-6.02,0-8.88,0.15
			c-0.2,0.04-0.27-0.03-0.23-0.23c-0.25,0-0.26,0.25-0.53,0.23c0.2-0.34,0.44-0.9,0.15-1.29c-0.8,0.01-0.8,0.82-1.14,1.29
			c-0.69-0.05-1.14,0.13-1.82,0.08c0.18-0.71,0.75-1.02,0.91-1.75c-0.39-0.55-0.99,0.14-1.21,0.46c-0.2,0.48-0.56,0.81-0.76,1.29
			H57.8c0.24-0.47,0.49-0.93,0.76-1.37c0.17-0.51,0.63-0.74,0.68-1.37c-0.16-0.28-0.42-0.03-0.68,0c-0.12,0.18-0.27,0.33-0.38,0.53
			c-0.23,0.38-0.5,0.71-0.68,1.14c-0.18,0.21-0.33,0-0.53,0.23c-0.39,0.27-0.58,0.74-0.99,0.99c-0.17-0.06,0.04-0.36,0.15-0.38
			c0.05-0.18-0.1-0.55,0.08-0.61c0.06-0.37,0.21-0.65,0.38-0.91c0.12-0.74,0.52-1.2,0.68-1.9c-0.56,0.1-0.67,0.64-0.99,0.99
			c-0.21,0.45-0.54,0.77-0.68,1.29c-0.17-0.13-0.03-0.58-0.08-0.84c0.12-0.59,0.3-1.12,0.38-1.75c0.13-0.22,0.17-0.54,0.23-0.83
			c0.17-0.21,0.05-0.61-0.08-0.76c-0.23,0.03-0.37,0.13-0.46,0.3c-0.19-0.03-0.19,0.51-0.3,0.3c-0.04-2.59-0.45-4.81-0.46-7.44
			c0.03-0.33-0.18-0.42-0.23-0.68c1.63,0.03,3.12,0.09,4.78,0.23c-0.09,0.14-0.2,0.26-0.3,0.38c-0.14,0.07-0.23,0.17-0.38,0.3
			c-0.6,1.65-0.98,3.98-0.61,6.15c0.23,0.58,0.59,1.03,0.99,1.44c0.91,0.49,1.63,1.15,2.51,1.67c1.7,0.36,3.84,0.37,5.54,0
			c0.24-0.12,0.48-0.23,0.68-0.38c1.36-1.24,2.75-2.46,2.96-4.86v-1.37c-0.2-1.6-0.69-2.91-1.75-3.64c0.33-0.22,1.1,0.04,1.67,0.08
			c0.22,0.01,0.45,0.01,0.68,0c0.41-0.02,0.93-0.06,1.44,0c0.14,0.19,0.11,0.54,0.23,0.76c-0.06,1.68-0.19,3.3-0.15,5.09
			c0.1,0.45,0.13,0.99,0.23,1.44C73.05,68.21,72.9,69.13,72.68,69.97z M73.06,58.81c-0.64-0.12-1.23-0.28-1.9-0.38
			c0.07-0.33,0.8-0.01,0.99-0.23c0.38-0.22,0.29-0.92,0.3-1.52c0.03-0.35,0.11-0.64,0.08-1.06c-0.4-0.95-1.78-0.42-2.89-0.45
			c-0.22,0.72-0.47,1.8-0.3,2.66c0.17,0.49,1.02,0.29,1.52,0.46c-0.14,0.33-0.69,0.06-0.99,0.08c-0.3-0.08-0.71-0.05-0.99-0.15
			c-2.29,0.08-4.28,0-6.53,0.15c0.12-1.25,0.06-2.46-0.08-3.64h3.11c-0.34,0.36-0.91,0.51-1.29,0.83c-0.44,0.24-0.86,0.51-1.14,0.91
			c0.25,0.13,0.54-0.25,0.76-0.38c0.36-0.07,0.48-0.38,0.84-0.46c0.42-0.44,1.1-0.63,1.67-0.91c0.38-0.02,0.7,0.01,0.99,0.08
			c1.28,0.01,2.46,0.13,3.8,0.08c0.61,0.15,1.45,0.07,1.97,0.3c0.11,0.3,0.23,0.58,0.3,0.91C73.3,57.07,73.14,57.9,73.06,58.81z
			 M67.21,55.09C67.32,55.04,67.21,55,67.21,55.09L67.21,55.09z M67.21,55.09c-0.53,0.15-1.02,0.35-1.37,0.68
			C66.33,55.57,66.91,55.46,67.21,55.09z M68.28,55.7C68.39,55.65,68.27,55.6,68.28,55.7L68.28,55.7z M66.53,56.61
			c0.73-0.16,1.18-0.59,1.75-0.91c-0.44,0.02-0.59,0.32-0.99,0.38C67.07,56.29,66.69,56.33,66.53,56.61z M65.85,55.77
			C65.74,55.82,65.85,55.86,65.85,55.77L65.85,55.77z M65.16,56.38C65.27,56.33,65.16,56.29,65.16,56.38L65.16,56.38z M65.09,56.45
			c0.06,0.01,0.07-0.03,0.08-0.08C65.1,56.36,65.09,56.41,65.09,56.45z M65.01,56.53c0.06,0.01,0.07-0.03,0.08-0.08
			C65.02,56.44,65.02,56.48,65.01,56.53z M64.18,57.14c0.35-0.13,0.61-0.35,0.83-0.61C64.66,56.66,64.4,56.88,64.18,57.14z
			 M66.45,58.13c0.53-0.05,0.75-0.42,1.21-0.53c0.28-0.3,0.78-0.38,0.99-0.76c-0.56,0.02-0.77,0.4-1.22,0.53
			C67.16,57.66,66.69,57.78,66.45,58.13z M64.18,57.14C63.86,57.06,64.16,57.37,64.18,57.14L64.18,57.14z M63.64,57.52
			c0.02,0.02,0.12-0.04,0.08-0.08C63.7,57.42,63.61,57.48,63.64,57.52z M66.45,58.13C66.34,58.17,66.46,58.22,66.45,58.13
			L66.45,58.13z M65.31,59.95c-0.22-0.23-0.68-0.23-0.99-0.38c-0.7-0.04-1.22,0.09-1.75,0.23c-0.3,0.15-0.61,0.3-0.91,0.45
			c-0.27,0.17-0.44,0.42-0.76,0.53c-0.21,0.22-0.35,0.51-0.68,0.61c0,0.22-0.17,0.28-0.3,0.38c-0.09,0.12-0.09,0.31-0.23,0.38
			c-0.01,0.12,0.04,0.29-0.08,0.3c0.11,1.51,0.29,2.95,0.68,4.18c0.29,0.62,0.98,0.85,1.44,1.29c0.59,0.3,1.33,0.44,2.13,0.53
			c0.28-0.05,0.55-0.11,0.91-0.08c1.21-0.21,2.1-0.74,2.81-1.44c0.1-0.28,0.25-0.51,0.45-0.68c-0.25-0.67,0.29-1.1,0.46-1.6
			c0-1.34-0.2-2.48-0.61-3.42c-0.26-0.58-0.92-0.75-1.37-1.14c-0.06-0.02-0.15,0-0.15-0.08C66.11,59.89,65.65,59.79,65.31,59.95z
			 M61.9,64.27c-0.11-0.06-0.11-0.24-0.15-0.38C62,63.82,61.87,64.13,61.9,64.27z M61.97,64.58c0.04-0.12,0.08-0.01,0.08,0.08
			C62.01,64.77,61.97,64.66,61.97,64.58z M62.43,62.53c0.01-0.09,0.08-0.04,0.08,0C62.49,62.61,62.43,62.57,62.43,62.53z M64.1,60.4
			c-0.2,0.26,0.04,0.58,0.08,0.84C63.87,61.2,63.6,60.35,64.1,60.4z M64.48,64.35c-0.04-0.04,0.05-0.1,0.08-0.08
			C64.6,64.31,64.5,64.37,64.48,64.35z M65.24,67.23c0.03-0.11,0.07,0.01,0.15,0C65.37,67.33,65.24,67.31,65.24,67.23z M67.44,64.65
			c-0.23-0.06-0.14,0.21-0.38,0.15c0.07-0.16,0.12-0.34,0.23-0.46C67.42,64.37,67.46,64.48,67.44,64.65z M66.3,60.86
			c0.21,0.12,0.44,0.22,0.61,0.38c0.08,0.22,0.24,0.36,0.38,0.53c0.06,0.78,0.18,1.49,0.15,2.35c-0.26,0.1-0.44,0.27-0.68,0.38
			c-0.78-0.01-1.36-0.21-1.9-0.46c-0.17-0.26-0.36-0.5-0.53-0.76v-1.06c0.17-0.18,0.32-0.39,0.46-0.61c0.23-0.13,0.51-0.2,0.45-0.61
			c-0.04-0.06-0.08-0.12-0.08-0.23c0.16,0.04,0.25,0.16,0.38,0.23C65.87,61.03,65.95,60.81,66.3,60.86z"/>
	</g>
</g>
</svg>
