<?xml version="1.0" encoding="utf-8"?>
<!-- Generator: Adobe Illustrator 23.0.0, SVG Export Plug-In . SVG Version: 6.00 Build 0)  -->
<svg version="1.1" id="svg4488" xmlns="http://www.w3.org/2000/svg" xmlns:xlink="http://www.w3.org/1999/xlink" x="0px" y="0px"
	 viewBox="-259.4 -19.67 40.22 62.41" style="enable-background:new -259.4 -19.67 40.22 62.41;" xml:space="preserve">
<g>
	<path d="M-244.23,18.28c-0.29,0.97-0.24,2.19,0.03,3.64c0.49,2.63,1.69,6.04,2.36,9.67h5.06c0.7-3.64,1.95-7.05,2.47-9.68
		c0.29-1.45,0.33-2.66,0.04-3.62c-0.27-0.9-0.89-1.62-2.02-2.3h-6C-243.36,16.67-243.96,17.38-244.23,18.28z"/>
	<path d="M-232.4,38.28h-13.8c-1.29,0-2.3,0.98-2.3,2.23v2.23h2.3h13.8h2.3v-2.23C-230.1,39.25-231.1,38.28-232.4,38.28z"/>
	<path d="M-225.26-17.45h-11.73c0-1.24-1.02-2.23-2.3-2.23c-1.28,0-2.3,0.98-2.3,2.23h-11.74l-6.07,25.52
		c0.79-0.46,1.59-0.99,2.63-0.99c1.36,0,2.24,0.82,2.92,1.38c0.68,0.56,1.16,0.85,1.45,0.85c0.29,0,0.77-0.29,1.45-0.84
		c0.68-0.55,1.56-1.36,2.92-1.36c1.35,0,2.24,0.81,2.92,1.35c0.68,0.55,1.16,0.84,1.45,0.84c0.15,0,0.34-0.07,0.58-0.21
		c0.24-0.14,0.53-0.35,0.87-0.63c0.51-0.41,1.14-0.97,1.99-1.22c0.28-0.09,0.59-0.14,0.93-0.14c1.35,0,2.24,0.81,2.92,1.35
		c0.68,0.55,1.16,0.84,1.45,0.84c0.29,0,0.77-0.3,1.45-0.85c0.68-0.55,1.57-1.37,2.92-1.37c1.36,0,2.24,0.82,2.92,1.37
		c0.34,0.28,0.63,0.49,0.87,0.63c0.24,0.14,0.43,0.21,0.57,0.21c0.29,0,0.76-0.29,1.44-0.85c0.68-0.56,1.57-1.38,2.93-1.38
		c1.04,0,1.84,0.53,2.63,1L-225.26-17.45z"/>
	<path d="M-235.88,33.82h-6.86c-0.66,0-1.15,0.48-1.15,1.12c0,0.63,0.49,1.11,1.15,1.11h6.9c0.66,0,1.15-0.48,1.15-1.11
		c0-0.64-0.49-1.12-1.15-1.12H-235.88z"/>
	<path d="M-239.29,9.34c-0.15,0-0.34,0.07-0.58,0.21c-0.16,0.09-0.37,0.26-0.57,0.41v3.73h2.3V9.96
		C-238.65,9.58-239.05,9.34-239.29,9.34z"/>
</g>
</svg>
