<?xml version="1.0" encoding="utf-8"?>
<!-- Generator: Adobe Illustrator 23.0.0, SVG Export Plug-In . SVG Version: 6.00 Build 0)  -->
<svg version="1.1" width="102" height="34" xmlns="http://www.w3.org/2000/svg" xmlns:xlink="http://www.w3.org/1999/xlink" x="0px" y="0px"
	 viewBox="0 0 101.61 34.06" style="enable-background:new 0 0 101.61 34.06;" xml:space="preserve">
<g>
	<path d="M19.13,21.5c-0.08-2.68-0.51-5.35-0.48-8.03c0.03-2.17,0.39-4.41-0.36-6.49c0.05-0.24,0.1-0.47,0.14-0.71
		c0.19-1.04-3.27-0.49-3.81,0.46C14.28,7,14.11,7.33,14.25,7.68c0.04,0.09,0.07,0.17,0.1,0.26c-0.66,3.2-1.57,6.31-2.62,9.41
		c-0.4,1.19-0.89,2.35-1.3,3.53c-0.58-1.1-1.17-2.19-1.64-3.38C7.42,14.07,6.18,10.6,4.5,7.3c0.19-1.53-3.2-1.37-3.87,0.03
		c-0.81,1.69-0.7,3.4-0.44,5.21c0.3,2.04,0.35,4.05,0.38,6.11c0.05,3.98,0.36,7.94,0.42,11.92c-0.35,0.39-0.46,0.88-0.09,1.38
		c0.16,0.22,0.36,0.38,0.57,0.55c0.9,0.72,3.5,0.11,3.5-1.27c-0.01-4.12-0.31-8.24-0.42-12.36c-0.01-0.4-0.02-0.81-0.02-1.21
		c0.06,0.15,0.11,0.29,0.17,0.43c0.64,1.6,1.31,3.16,2.19,4.65c0.87,1.48,1.3,3.06,1.8,4.68c-0.19,0.22-0.3,0.46-0.23,0.71
		c-0.04,0.18,0.07,0.29,0.25,0.36c0.64,0.55,1.84,0.27,2.51-0.01c0.29-0.12,0.56-0.26,0.83-0.42c0.35-0.21,0.88-0.68,0.73-1.16
		c-0.03-0.09-0.06-0.19-0.09-0.28c0.47-1.27,0.71-2.59,0.97-3.93c0.27-1.43,0.78-2.78,1.29-4.13c0.05,0.62,0.11,1.24,0.16,1.86
		c0.2,2.55,0.03,5.07,0.01,7.63c-0.01,0.85,0.05,1.63,0.22,2.46c0.07,0.34,0.37,1.81,0.28,1.89c-0.61,0.56-0.43,1.26,0.39,1.44
		c0.91,0.2,2.08-0.11,2.77-0.74c1.2-1.11,0.63-2.84,0.36-4.24C18.66,26.5,19.21,23.88,19.13,21.5z"/>
	<path d="M27.5,22.17c-0.07-1.99-0.77-3.86-0.77-5.87c-0.01-2.31,0.18-4.59-0.15-6.89c-0.11-0.73-4.06,0.1-3.92,1.05
		c0.31,2.11,0.2,4.23,0.16,6.35c-0.04,2.04,0.47,3.9,0.73,5.9c0.27,2.05-0.08,4.16,0.15,6.21c0.11,0.96,0.75,2.74,0.09,3.58
		c-0.42,0.53,1.47,0.34,1.55,0.33c0.77-0.14,1.79-0.39,2.3-1.04c0.65-0.83,0.2-2.43,0.05-3.36C27.37,26.38,27.58,24.25,27.5,22.17z"
		/>
	<path d="M43.83,18.85c-2.06-2.78-5.89-0.78-8.56-1.54c-1.38-0.39-1.39-2.27-1.39-3.4c0-1.43-0.11-2.73-0.27-4.15
		c-0.12-1.05-0.02-2.12,0.75-2.9c0.14-0.14,0.86-0.34,0.81-0.34c0.35-0.06,0.68-0.08,1.07-0.09c1.55-0.07,4.61,0.23,4.02,2.48
		c-0.27,1.01,3.6,0.43,3.88-0.64c1.21-4.6-7.28-3.71-9.69-3.08c-2.21,0.59-4.65,1.84-4.78,4.4c-0.06,1.22,0.27,2.38,0.33,3.59
		c0.06,1.39-0.2,2.78,0.29,4.12c1.08,2.98,5.52,1.58,7.78,1.75c3.85,0.29,2.7,5.47,2.75,7.88c0.03,1.29,1.18,3.43,0.21,4.51
		c-0.6,0.66-1.98,0.7-2.79,0.77c-0.81,0.07-2.2,0.31-2.74-0.46c-0.99-1.42,0.09-3.8-0.12-5.42c-0.12-0.92-4.07-0.1-3.92,1.05
		c0.34,2.63-1.4,6.14,2.4,6.6c2.44,0.29,5.19-0.16,7.5-0.93c1.2-0.4,2.31-0.94,3.24-1.79c1.03-0.94,0.69-2.35,0.42-3.55
		C44.32,24.78,45.73,21.42,43.83,18.85z"/>
	<path d="M61.16,18.66c-0.12-3.78-0.69-7.51-0.71-11.3c-0.01-1.97-3.96-1.31-3.96,0.34c0.02,3.61,0.5,7.17,0.68,10.76
		c0,0.07,0.01,0.15,0.01,0.22c-1.95-0.02-3.9,0.18-5.85,0.25c0.2-4.63-0.61-9.23-0.43-13.86c0.02-0.58-3.87-0.09-3.92,1.05
		c-0.17,4.47,0.59,8.91,0.45,13.39c-0.06,2.14-0.24,4.26-0.26,6.4c-0.01,1.09,0.17,2.18,0.33,3.26c0.15,1,0.48,2.33,0.18,3.32
		c-0.24,0.77,3.56,0.29,3.86-0.69c0.54-1.78-0.22-4.04-0.41-5.84c-0.17-1.72-0.04-3.5,0.08-5.25c2.03-0.13,4.06-0.3,6.08-0.01
		c0.09,1.38,0.2,2.75,0.32,4.13c0.11,1.16,0.18,2.31,0.2,3.48c0.02,1.02,0.14,2.5-0.22,3.46c-0.77,2.06,3.15,1.89,3.72,0.36
		c0.7-1.87,0.5-4.2,0.38-6.16C61.56,23.54,61.23,21.11,61.16,18.66z"/>
	<path d="M78.09,23.14c-0.94-2.76-2.37-5.18-3.62-7.8c1-1.95,2.02-3.9,2.93-5.89c0.83-1.81,1.45-3.82,3.08-5.09
		c0.57-0.45,0.55-0.9-0.25-0.95c-0.88-0.06-2.06,0.19-2.77,0.74c-1.49,1.16-2.43,2.56-3.2,4.27c-0.93,2.05-1.9,4.06-2.91,6.08
		c-0.07,0.15-0.15,0.3-0.22,0.44c-0.49,0.31-0.79,0.76-0.64,1.27c-0.79,1.56-1.6,3.12-2.5,4.61c-0.3-5.53-0.95-11.06-1.15-16.6
		c-0.04-1.27-3.97-0.48-3.92,1.05c0.24,6.87,1.22,13.72,1.29,20.59c-0.02,0.02-0.03,0.03-0.05,0.05c-0.3,0.31-0.19,0.49,0.05,0.6
		c0,1.75-0.06,3.5-0.21,5.25c-0.47,0.75,0.46,1.14,1.08,1.14c0.03,0,0.06,0,0.1,0c0.74,0,2.63-0.35,2.72-1.36
		c0.19-2.1,0.25-4.2,0.23-6.29c1.59-1.72,2.89-3.63,4.06-5.63c0.76,1.48,1.48,2.97,1.99,4.58c0.86,2.74,2.3,5.26,3.13,8.01
		c0.54,1.81,4.46,0.74,3.92-1.05C80.39,28.4,79.01,25.85,78.09,23.14z"/>
	<path d="M101.59,18.5c-0.21-0.83-1.37-0.85-2.27-0.77c-0.01-0.34-0.02-0.67-0.04-1.01c-0.13-2.66-0.17-5.38-0.39-8.03
		c-0.21-2.46-1.58-3.34-3.97-3.25c-2.42,0.09-5.23,0.53-7.48,1.4c-2.61,1.01-4.06,2.93-4.56,5.68c-0.55,3.01,0.24,6.22,0.37,9.25
		c0.15,3.5,0.07,7.01,0.06,10.52c0,0.57,3.92,0.03,3.92-1.05c0-2.78,0.04-5.55,0-8.33c-0.01-0.82-0.05-1.63-0.1-2.44
		c1.37-0.59,3.69,0.01,5.05,0.14c1.11,0.1,2.17-0.17,3.24-0.29c0.02,2.31,0.11,4.63,0.2,6.94c0.05,1.18,0.48,3.53-0.35,4.51
		c-0.44,0.52,1.48,0.34,1.55,0.33c0.79-0.15,1.76-0.4,2.3-1.04c0.95-1.12,0.46-3.79,0.4-5.13c-0.08-1.91-0.1-3.82-0.14-5.74
		C100.54,20.06,101.81,19.35,101.59,18.5z M86.97,18.35c-0.1-1.25-0.22-2.49-0.3-3.74c-0.16-2.33,0.12-5.58,2.29-7
		c0.58-0.38,1.67-0.31,2.35-0.44c0.97-0.18,1.96-0.39,2.83,0.19c1.21,0.8,0.91,3.66,0.91,4.87c0,2.01,0.21,4,0.31,6
		c-0.55,0.06-1.11,0.09-1.68,0.08C91.39,18.26,89.14,17.9,86.97,18.35z"/>
	<path d="M24.11,6.7c0.52-0.05,1.04-0.23,1.48-0.52c0.09-0.07,0.17-0.14,0.26-0.22c0.52-0.34,0.97-0.83,0.73-1.36
		c-0.5-1.1-0.42-2.23-0.42-3.41c0.01-0.96-0.96-1.25-1.78-1.17c-0.72,0.06-2.17,0.58-2.17,1.52c-0.01,0.99-0.07,2.02,0.11,2.99
		c-0.05,0.11-0.07,0.24-0.1,0.36c-0.06,0.21,0.02,0.42,0.14,0.59c0,0.04,0,0.09,0,0.13c0,0.11,0.01,0.22,0.01,0.33
		c0.07,0.23,0.22,0.41,0.43,0.53C23.18,6.7,23.67,6.74,24.11,6.7z"/>
</g>
</svg>
