<svg width="102" height="34" xmlns="http://www.w3.org/2000/svg" viewBox="0 0 101.61 34.06"><path d="M19.13 21.5c-.08-2.68-.51-5.35-.48-8.03.03-2.17.39-4.41-.36-6.49.05-.24.1-.47.14-.71.19-1.04-3.27-.49-3.81.46-.34.27-.51.6-.37.95.04.09.07.17.1.26-.66 3.2-1.57 6.31-2.62 9.41-.4 1.19-.89 2.35-1.3 3.53-.58-1.1-1.17-2.19-1.64-3.38-1.37-3.43-2.61-6.9-4.29-10.2.19-1.53-3.2-1.37-3.87.03-.81 1.69-.7 3.4-.44 5.21.3 2.04.35 4.05.38 6.11.05 3.98.36 7.94.42 11.92-.35.39-.46.88-.09 1.38.16.22.36.38.57.55.9.72 3.5.11 3.5-1.27-.01-4.12-.31-8.24-.42-12.36-.01-.4-.02-.81-.02-1.21.06.15.11.29.17.43.64 1.6 1.31 3.16 2.19 4.65.87 1.48 1.3 3.06 1.8 4.68-.19.22-.3.46-.23.71-.04.18.07.29.25.36.64.55 1.84.27 2.51-.01.29-.12.56-.26.83-.42.35-.21.88-.68.73-1.16-.03-.09-.06-.19-.09-.28.47-1.27.71-2.59.97-3.93.27-1.43.78-2.78 1.29-4.13.05.62.11 1.24.16 1.86.2 2.55.03 5.07.01 7.63-.01.85.05 1.63.22 2.46.07.34.37 1.81.28 1.89-.61.56-.43 1.26.39 1.44.91.2 2.08-.11 2.77-.74 1.2-1.11.63-2.84.36-4.24-.48-2.36.07-4.98-.01-7.36zm8.37.67c-.07-1.99-.77-3.86-.77-5.87-.01-2.31.18-4.59-.15-6.89-.11-.73-4.06.1-3.92 1.05.31 2.11.2 4.23.16 6.35-.04 2.04.47 3.9.73 5.9.27 2.05-.08 4.16.15 6.21.11.96.75 2.74.09 3.58-.42.53 1.47.34 1.55.33.77-.14 1.79-.39 2.3-1.04.65-.83.2-2.43.05-3.36-.32-2.05-.11-4.18-.19-6.26zm16.33-3.32c-2.06-2.78-5.89-.78-8.56-1.54-1.38-.39-1.39-2.27-1.39-3.4 0-1.43-.11-2.73-.27-4.15-.12-1.05-.02-2.12.75-2.9.14-.14.86-.34.81-.34.35-.06.68-.08 1.07-.09 1.55-.07 4.61.23 4.02 2.48-.27 1.01 3.6.43 3.88-.64 1.21-4.6-7.28-3.71-9.69-3.08-2.21.59-4.65 1.84-4.78 4.4-.06 1.22.27 2.38.33 3.59.06 1.39-.2 2.78.29 4.12 1.08 2.98 5.52 1.58 7.78 1.75 3.85.29 2.7 5.47 2.75 7.88.03 1.29 1.18 3.43.21 4.51-.6.66-1.98.7-2.79.77-.81.07-2.2.31-2.74-.46-.99-1.42.09-3.8-.12-5.42-.12-.92-4.07-.1-3.92 1.05.34 2.63-1.4 6.14 2.4 6.6 2.44.29 5.19-.16 7.5-.93 1.2-.4 2.31-.94 3.24-1.79 1.03-.94.69-2.35.42-3.55-.7-2.93.71-6.29-1.19-8.86zm17.33-.19c-.12-3.78-.69-7.51-.71-11.3-.01-1.97-3.96-1.31-3.96.34.02 3.61.5 7.17.68 10.76 0 .07.01.15.01.22-1.95-.02-3.9.18-5.85.25.2-4.63-.61-9.23-.43-13.86.02-.58-3.87-.09-3.92 1.05-.17 4.47.59 8.91.45 13.39-.06 2.14-.24 4.26-.26 6.4-.01 1.09.17 2.18.33 3.26.15 1 .48 2.33.18 3.32-.24.77 3.56.29 3.86-.69.54-1.78-.22-4.04-.41-5.84-.17-1.72-.04-3.5.08-5.25 2.03-.13 4.06-.3 6.08-.01.09 1.38.2 2.75.32 4.13.11 1.16.18 2.31.2 3.48.02 1.02.14 2.5-.22 3.46-.77 2.06 3.15 1.89 3.72.36.7-1.87.5-4.2.38-6.16-.13-2.43-.46-4.86-.53-7.31zm16.93 4.48c-.94-2.76-2.37-5.18-3.62-7.8 1-1.95 2.02-3.9 2.93-5.89.83-1.81 1.45-3.82 3.08-5.09.57-.45.55-.9-.25-.95-.88-.06-2.06.19-2.77.74-1.49 1.16-2.43 2.56-3.2 4.27-.93 2.05-1.9 4.06-2.91 6.08-.07.15-.15.3-.22.44-.49.31-.79.76-.64 1.27-.79 1.56-1.6 3.12-2.5 4.61-.3-5.53-.95-11.06-1.15-16.6-.04-1.27-3.97-.48-3.92 1.05.24 6.87 1.22 13.72 1.29 20.59l-.05.05c-.3.31-.19.49.05.6 0 1.75-.06 3.5-.21 5.25-.47.75.46 1.14 1.08 1.14h.1c.74 0 2.63-.35 2.72-1.36.19-2.1.25-4.2.23-6.29 1.59-1.72 2.89-3.63 4.06-5.63.76 1.48 1.48 2.97 1.99 4.58.86 2.74 2.3 5.26 3.13 8.01.54 1.81 4.46.74 3.92-1.05-.84-2.76-2.22-5.31-3.14-8.02zm23.5-4.64c-.21-.83-1.37-.85-2.27-.77-.01-.34-.02-.67-.04-1.01-.13-2.66-.17-5.38-.39-8.03-.21-2.46-1.58-3.34-3.97-3.25-2.42.09-5.23.53-7.48 1.4-2.61 1.01-4.06 2.93-4.56 5.68-.55 3.01.24 6.22.37 9.25.15 3.5.07 7.01.06 10.52 0 .57 3.92.03 3.92-1.05 0-2.78.04-5.55 0-8.33-.01-.82-.05-1.63-.1-2.44 1.37-.59 3.69.01 5.05.14 1.11.1 2.17-.17 3.24-.29.02 2.31.11 4.63.2 6.94.05 1.18.48 3.53-.35 4.51-.44.52 1.48.34 1.55.33.79-.15 1.76-.4 2.3-1.04.95-1.12.46-3.79.4-5.13-.08-1.91-.1-3.82-.14-5.74 1.16-.13 2.43-.84 2.21-1.69zm-14.62-.15c-.1-1.25-.22-2.49-.3-3.74-.16-2.33.12-5.58 2.29-7 .58-.38 1.67-.31 2.35-.44.97-.18 1.96-.39 2.83.19 1.21.8.91 3.66.91 4.87 0 2.01.21 4 .31 6-.55.06-1.11.09-1.68.08-2.29-.05-4.54-.41-6.71.04zM24.11 6.7a3.29 3.29 0 0 0 1.48-.52c.09-.07.17-.14.26-.22.52-.34.97-.83.73-1.36-.5-1.1-.42-2.23-.42-3.41.01-.96-.96-1.25-1.78-1.17-.72.06-2.17.58-2.17 1.52-.01.99-.07 2.02.11 2.99-.05.11-.07.24-.1.36-.06.21.02.42.14.59v.13c0 .11.01.22.01.33.07.23.22.41.43.53.38.23.87.27 1.31.23z"/></svg>