<svg id="Layer_2" data-name="Layer 2" xmlns="http://www.w3.org/2000/svg" viewBox="0 0 24.83 24.33"><title>phone</title><g id="UrwUhy"><path d="M17.32,24.33H16.21A17.19,17.19,0,0,1,5.1,18.56,19.34,19.34,0,0,1,0,6.82V5.46A3.35,3.35,0,0,1,1.07,3.37,4.52,4.52,0,0,1,3.59,1.82,3.18,3.18,0,0,1,5.82,2.89,7.51,7.51,0,0,1,6.6,5.26,8.81,8.81,0,0,1,7.08,8c-.18,1.2-1.76,1.7-2.23,2.57a16.68,16.68,0,0,0,7.47,8.35c.85-.47,1.6-1.87,2.77-1.89a4.77,4.77,0,0,1,1.4.34c.48.14.9.32,1.32.48.7.27,2,.62,2.37,1.21a3.46,3.46,0,0,1,.58,2.23C20.57,22.51,18.54,23.88,17.32,24.33Z"/></g><path d="M12.53,1.53A10.77,10.77,0,0,1,23.3,12.3h1.53A12.3,12.3,0,0,0,12.53,0Z"/><path d="M12.53,9.33v1.55A1.43,1.43,0,0,1,14,12.3H15.5A3,3,0,0,0,12.53,9.33Z"/><path d="M12.53,6.25a6.05,6.05,0,0,1,6,6.05h1.59a7.64,7.64,0,0,0-7.64-7.64Z"/></svg>