<?xml version="1.0" encoding="utf-8"?>
<!-- Generator: Adobe Illustrator 23.0.0, SVG Export Plug-In . SVG Version: 6.00 Build 0)  -->
<svg version="1.1" id="Layer_1" xmlns="http://www.w3.org/2000/svg" xmlns:xlink="http://www.w3.org/1999/xlink" x="0px" y="0px"
	 viewBox="52.25 53.77 23.49 20.17" style="enable-background:new 52.25 53.77 23.49 20.17;" xml:space="preserve">
<style type="text/css">
	.st0{fill:#231F20;}
</style>
<g id="twitter">
	<g>
		<path class="st0" d="M75.71,57.86c-0.23-0.37-0.91-0.28-1.41-0.37h-1.11c0.14-0.35,0.34-0.65,0.52-0.96
			c0.06-0.44,0.25-0.73,0.22-1.26c0.13-0.17,0.18-0.42,0.3-0.59c0.1-0.14,0.24-0.48,0.07-0.67c-0.05-0.22-0.29-0.25-0.59-0.22
			c-0.09,0.04-0.17,0.08-0.22,0.15c-0.45,0.43-0.78,1.01-1.26,1.41c-0.01,0.01-0.06,0-0.07,0c-0.09,0-0.03,0.05-0.08,0.07
			c-0.15,0.1-0.26,0.15-0.37,0.22c-0.28,0.18-0.55,0.44-0.89,0.52c-0.53-0.21-1.16-0.33-1.85-0.37c-1.16,0.1-2.3,0.22-3.04,0.74
			c-0.91,0.35-1.48,1.04-2.15,1.63c-0.05,0.32-0.34,0.4-0.37,0.74c0,0.05-0.01,0.09-0.07,0.07c0.04,0.24-0.05,0.34-0.07,0.52
			c0,0.13,0.2,0.43,0,0.52c-0.82-0.12-1.49-0.63-2.15-0.96c-0.72-0.36-1.47-0.6-2.07-1.11c-0.72-0.32-1.26-0.82-1.78-1.33
			c-0.21-0.31-0.54-0.5-0.67-0.89c-0.38-0.16-0.18-0.91-0.74-0.89c-0.32-0.04-0.34,0.2-0.44,0.37c-0.07,0.23-0.36,0.23-0.37,0.52
			c0,0.05-0.01,0.09-0.07,0.08c-0.17,1.09-0.53,1.99-0.52,3.26c0.13,0.42,0.35,0.74,0.59,1.04c-0.42,0.05-0.72,0.22-0.89,0.52
			c-0.06,1.07,0.38,1.65,0.74,2.3c0.13,0.38,0.35,0.68,0.59,0.96c0.02,0.23,0.21,0.29,0.3,0.45c0.02,0.11,0.12,0.13,0.15,0.22
			c-0.04,0.11,0.29,0.18,0.07,0.22c-0.41,0.13-1.02,0.07-1.26,0.37c-0.11,0.28-0.11,0.83,0,1.11c0.03,0.24,0.28,0.26,0.3,0.52
			c0.5,0.42,1.08,0.75,1.63,1.11c0.57,0.17,1.21,0.27,1.85,0.37c-0.1,0.34-0.34,0.55-0.59,0.74c-0.78,0.38-1.85,0.47-2.74,0.74
			c-0.56,0.04-0.96,0.23-1.56,0.22c-0.33,0.13-0.85,0.08-1.11,0.22c-0.12,0.07-0.1,0.1-0.22,0.22c-0.13,0.41,0.11,0.74,0.44,0.89
			c0,0.25,0.22,0.28,0.37,0.37c0.09,0.18,0.25,0.29,0.44,0.37c0.54,0.47,1.27,0.76,1.93,1.11c0.83,0.18,1.65,0.38,2.52,0.52
			c0.9,0.12,1.9,0.12,2.82,0.22h0.96c0.51,0.13,1.23,0.05,1.85,0.07c0.09-0.1,0.32-0.07,0.52-0.07c0.52-0.27,1.2-0.38,1.63-0.74
			c0.57-0.24,0.99-0.64,1.56-0.89c0.87-0.76,1.94-1.32,2.52-2.37c0.21-0.19,0.35-0.44,0.45-0.74c0.26-0.16,0.38-0.45,0.59-0.67
			c0.4-0.41,0.71-0.92,1.04-1.41c0.32-0.5,0.58-1.05,0.89-1.56c-0.01-0.41,0.31-0.48,0.3-0.89c0.19-0.23,0.18-0.66,0.37-0.89
			c-0.03-0.25,0.03-0.42,0.07-0.59c0.05-1.28-0.05-2.42-0.3-3.41c0.59-0.15,1.18-0.3,1.63-0.59C75.42,58.93,75.89,58.53,75.71,57.86
			z M72.3,61.93c-0.15,0.86-0.62,1.41-1.04,2c0.06,0.38-0.1,0.54-0.07,0.89c-0.16,0.31-0.29,0.65-0.37,1.04
			c-0.2,0.27-0.33,0.61-0.52,0.89c-0.37,0.55-0.78,1.05-1.19,1.56c-0.38,0.56-0.91,0.96-1.33,1.48c-0.42,0.49-0.94,0.88-1.41,1.33
			c-0.47,0.17-0.89,0.4-1.26,0.67c-0.23,0.09-0.46,0.18-0.67,0.3c-0.18,0.15-0.5,0.14-0.67,0.3c-1.09,0.15-2.3,0.17-3.56,0.15
			c-1.03-0.11-2.11-0.16-3.04-0.37c-0.92-0.19-1.51-0.71-2.3-1.04c0.15-0.24,0.63-0.15,0.96-0.22c0.03-0.17,0.39,0,0.44-0.15
			c0.26,0.06,0.29-0.11,0.52-0.07c0.56-0.2,1.23-0.3,1.7-0.59c0.28-0.14,0.41-0.43,0.67-0.59c0.03-0.19,0.1-0.34,0.22-0.44
			c0.05-0.28,0.2-0.44,0.15-0.82c0.11-0.21,0.3-0.34,0.3-0.67c-0.07-0.15-0.13-0.32-0.3-0.37c-0.03-0.2-0.38-0.07-0.44-0.22
			c-0.25,0.03-0.42-0.03-0.59-0.08c-0.15-0.04-0.49,0.09-0.52-0.07c-0.84-0.02-1.3-0.43-1.85-0.74c0.43-0.26,1.03-0.35,1.33-0.74
			c0.52-0.08,1.06-0.13,1.11-0.67c0-0.72-0.77-0.66-1.33-0.82c-0.77-0.66-1.19-1.67-1.78-2.52c0.24-0.16,0.56-0.23,0.74-0.44
			c0.45,0.06,0.54-0.25,0.67-0.52c0.02-0.49-0.33-0.61-0.59-0.81c-0.26-0.21-0.48-0.46-0.67-0.74c0-0.82-0.02-1.65,0.07-2.37
			c0.06-0.01,0.07,0.03,0.07,0.07c0.23,0.44,0.56,0.77,0.82,1.19c0.53,0.36,0.93,0.85,1.56,1.11c0.45,0.41,1.11,0.62,1.56,1.04
			c0.6,0.26,1.16,0.57,1.7,0.89c0.67,0.19,1.06,0.67,2,0.59c0.2-0.1,0.39-0.2,0.59-0.3c0.26-0.46-0.06-1.08,0.15-1.63
			c0.25-0.66,0.8-1.03,1.26-1.48c0.29-0.15,0.55-0.34,0.82-0.52c0.35-0.1,0.67-0.22,0.96-0.37c0.38-0.02,0.71-0.08,1.04-0.15h1.26
			c0.24,0.05,0.47,0.12,0.74,0.15c0.21,0.14,0.38,0.31,0.67,0.37c0.79,0.69,1.27,1.7,1.41,3.04C72.17,60.93,72.35,61.32,72.3,61.93z
			 M72.59,56.3c-0.13,0.34-0.23,0.71-0.59,0.82c-0.02-0.11-0.12-0.13-0.15-0.22c-0.01-0.21,0.21-0.19,0.3-0.3
			C72.31,56.51,72.39,56.35,72.59,56.3C72.59,56.21,72.7,56.25,72.59,56.3z M67.11,59.34c0.16,0.13,0.28,0.31,0.52,0.37
			c0.1,0.22,0.31,0.33,0.59,0.37c0.05-0.15,0.35-0.05,0.37-0.22c0.17-0.02,0.17-0.23,0.3-0.3c-0.02-0.55-0.13-1.01-0.37-1.33
			C67.76,57.8,66.84,58.27,67.11,59.34z"/>
	</g>
</g>
</svg>
