<?xml version="1.0" encoding="utf-8"?>
<!-- Generator: Adobe Illustrator 23.0.0, SVG Export Plug-In . SVG Version: 6.00 Build 0)  -->
<svg fill="#63d1bb" version="1.1" id="Layer_1" xmlns="http://www.w3.org/2000/svg" xmlns:xlink="http://www.w3.org/1999/xlink" x="0px" y="0px"
	 viewBox="0 5 32 22" style="enable-background:new 0 5 32 22;" xml:space="preserve">
<g transform="translate(0 192)">
	<path d="M26-177l6-4v16l-6-4V-177z M24-177v8c0,2.21-1.79,4-4,4H4c-2.21,0-4-1.79-4-4v-8c0-2.21,1.79-4,4-4h10c0-1.1,0.9-2,2-2v-2
		H5c-0.55,0-1-0.45-1-1c0-0.55,0.45-1,1-1h12c0.55,0,1,0.45,1,1v3c1.11,0,2,0.9,2,2C22.21-181,24-179.21,24-177z M12-177H4v8h8V-177
		z M20-176c0-0.55-0.45-1-1-1h-4c-0.55,0-1,0.45-1,1c0,0.55,0.45,1,1,1h4C19.55-175,20-175.45,20-176z"/>
</g>
</svg>
