<?xml version="1.0" encoding="utf-8"?>
<!-- Generator: Adobe Illustrator 23.0.0, SVG Export Plug-In . SVG Version: 6.00 Build 0)  -->
<svg version="1.1" id="Layer_1" xmlns="http://www.w3.org/2000/svg" xmlns:xlink="http://www.w3.org/1999/xlink" x="0px" y="0px"
	 viewBox="0 0 1150 34" style="enable-background:new 0 0 1150 34;" xml:space="preserve">
<style type="text/css">
	.st0{fill:#FFFFFF;}
</style>
<path class="st0" d="M1121.25,0c-14.38,0-14.38,14-28.75,14s-14.37-14-28.75-14s-14.37,14-28.75,14c-14.38,0-14.38-14-28.75-14
	c-14.37,0-14.37,14-28.75,14c-14.37,0-14.37-14-28.75-14c-14.37,0-14.37,14-28.75,14S905.64,0,891.26,0c-14.37,0-14.37,14-28.75,14
	S848.14,0,833.76,0c-14.37,0-14.37,14-28.74,14c-14.38,0-14.38-14-28.75-14c-14.37,0-14.37,14-28.74,14c-14.37,0-14.37-14-28.75-14
	s-14.37,14-28.75,14c-14.37,0-14.37-14-28.75-14c-14.37,0-14.37,14-28.75,14c-14.38,0-14.38-14-28.75-14c-14.37,0-14.37,14-28.75,14
	c-14.37,0-14.37-14-28.75-14c-14.37,0-14.37,14-28.75,14c-14.37,0-14.37-14-28.75-14c-14.38,0-14.38,14-28.75,14
	c-14.38,0-14.38-14-28.75-14c-14.38,0-14.38,14-28.75,14c-14.38,0-14.38-14-28.75-14c-14.38,0-14.38,14-28.75,14
	c-14.38,0-14.38-14-28.75-14s-14.38,14-28.75,14c-14.38,0-14.38-14-28.75-14c-14.37,0-14.37,14-28.75,14c-14.38,0-14.38-14-28.75-14
	c-14.38,0-14.38,14-28.75,14c-14.38,0-14.38-14-28.75-14c-14.38,0-14.38,14-28.75,14c-14.38,0-14.38-14-28.76-14
	C71.9,0,71.9,14,57.52,14C43.14,14,43.14,0,28.76,0S14.38,14,0,14v20h1150V14C1135.63,14,1135.63,0,1121.25,0z"/>
</svg>
