<svg xmlns="http://www.w3.org/2000/svg" viewBox="0 0 1150 23"><path d="M1150 23c-9.02 0-13.73-4.59-17.51-8.28-3.41-3.32-5.88-5.72-11.23-5.72-5.36 0-7.82 2.4-11.24 5.72-3.79 3.69-8.5 8.28-17.51 8.28s-13.73-4.59-17.51-8.28c-3.41-3.32-5.88-5.72-11.23-5.72s-7.82 2.4-11.23 5.72c-3.79 3.69-8.5 8.28-17.51 8.28s-13.73-4.59-17.51-8.28c-3.41-3.32-5.88-5.72-11.24-5.72s-7.82 2.4-11.23 5.72c-3.79 3.69-8.5 8.28-17.51 8.28s-13.73-4.59-17.51-8.28C956.58 11.4 954.12 9 948.76 9c-5.36 0-7.82 2.4-11.23 5.72-3.79 3.69-8.5 8.28-17.51 8.28s-13.73-4.59-17.51-8.28C899.09 11.4 896.62 9 891.26 9s-7.82 2.4-11.23 5.72c-3.79 3.69-8.5 8.28-17.51 8.28s-13.73-4.59-17.51-8.28C841.59 11.4 839.12 9 833.76 9s-7.82 2.4-11.23 5.72c-3.79 3.69-8.5 8.28-17.51 8.28-9.02 0-13.73-4.59-17.51-8.28C784.09 11.4 781.63 9 776.27 9s-7.82 2.4-11.23 5.72c-3.79 3.69-8.5 8.28-17.51 8.28-9.02 0-13.73-4.59-17.51-8.28C726.6 11.4 724.14 9 718.78 9s-7.82 2.4-11.23 5.72c-3.79 3.69-8.5 8.28-17.51 8.28-9.02 0-13.73-4.59-17.51-8.28C669.11 11.4 666.64 9 661.29 9c-5.36 0-7.82 2.4-11.23 5.72-3.79 3.69-8.5 8.28-17.51 8.28s-13.73-4.59-17.51-8.28C611.61 11.4 609.15 9 603.79 9s-7.82 2.4-11.23 5.72c-3.79 3.69-8.5 8.28-17.51 8.28-9.02 0-13.73-4.59-17.51-8.28C554.11 11.4 551.65 9 546.29 9s-7.82 2.4-11.23 5.72c-3.79 3.69-8.5 8.28-17.51 8.28-9.02 0-13.73-4.59-17.51-8.28C496.62 11.4 494.15 9 488.8 9c-5.36 0-7.82 2.4-11.24 5.72-3.79 3.69-8.5 8.28-17.51 8.28-9.02 0-13.73-4.59-17.52-8.28C439.12 11.4 436.65 9 431.29 9s-7.82 2.4-11.24 5.72c-3.79 3.69-8.5 8.28-17.51 8.28s-13.73-4.59-17.52-8.28C381.62 11.4 379.15 9 373.79 9s-7.82 2.4-11.24 5.72c-3.79 3.69-8.5 8.28-17.52 8.28s-13.73-4.59-17.52-8.28C324.11 11.4 321.65 9 316.29 9s-7.82 2.4-11.24 5.72c-3.79 3.69-8.5 8.28-17.52 8.28s-13.73-4.59-17.52-8.28C266.61 11.4 264.14 9 258.79 9c-5.36 0-7.82 2.4-11.23 5.72-3.79 3.69-8.5 8.28-17.51 8.28-9.02 0-13.73-4.59-17.51-8.28C209.11 11.4 206.65 9 201.29 9s-7.82 2.4-11.24 5.72c-3.79 3.69-8.5 8.28-17.52 8.28s-13.73-4.59-17.52-8.28C151.61 11.4 149.14 9 143.78 9s-7.83 2.4-11.24 5.72c-3.79 3.69-8.5 8.28-17.52 8.28s-13.73-4.59-17.52-8.28C94.1 11.4 91.63 9 86.27 9s-7.83 2.4-11.24 5.72C71.25 18.41 66.54 23 57.52 23 48.5 23 43.79 18.41 40 14.72 36.59 11.4 34.12 9 28.76 9s-7.83 2.4-11.24 5.72C13.73 18.41 9.02 23 0 23v-9c5.36 0 7.83-2.4 11.24-5.72C15.03 4.59 19.74 0 28.76 0s13.73 4.59 17.52 8.28C49.69 11.6 52.16 14 57.52 14s7.83-2.4 11.24-5.72C72.54 4.59 77.26 0 86.27 0c9.02 0 13.73 4.59 17.52 8.28 3.41 3.32 5.88 5.72 11.24 5.72s7.83-2.4 11.24-5.72c3.79-3.69 8.5-8.28 17.52-8.28s13.73 4.59 17.52 8.28c3.41 3.32 5.88 5.72 11.24 5.72s7.82-2.4 11.24-5.72c3.79-3.69 8.5-8.28 17.52-8.28s13.73 4.59 17.51 8.28c3.41 3.32 5.88 5.72 11.24 5.72s7.82-2.4 11.23-5.72C245.08 4.59 249.79 0 258.8 0c9.02 0 13.73 4.59 17.52 8.28 3.41 3.32 5.88 5.72 11.24 5.72s7.82-2.4 11.24-5.72C302.59 4.59 307.3 0 316.32 0s13.73 4.59 17.52 8.28c3.41 3.32 5.88 5.72 11.24 5.72s7.82-2.4 11.24-5.72c3.79-3.69 8.5-8.28 17.51-8.28 9.02 0 13.73 4.59 17.52 8.28 3.41 3.32 5.88 5.72 11.24 5.72s7.82-2.4 11.24-5.72c3.79-3.69 8.5-8.28 17.51-8.28 9.02 0 13.73 4.59 17.52 8.28 3.41 3.32 5.88 5.72 11.24 5.72s7.82-2.4 11.24-5.72C475.07 4.59 479.78 0 488.8 0c9.02 0 13.73 4.59 17.51 8.28 3.41 3.32 5.88 5.72 11.23 5.72 5.36 0 7.82-2.4 11.23-5.72 3.79-3.69 8.5-8.28 17.51-8.28 9.02 0 13.73 4.59 17.51 8.28 3.41 3.32 5.88 5.72 11.23 5.72 5.36 0 7.82-2.4 11.23-5.72 3.79-3.69 8.5-8.28 17.51-8.28 9.02 0 13.73 4.59 17.52 8.28 3.41 3.32 5.88 5.72 11.24 5.72s7.82-2.4 11.23-5.72c3.79-3.69 8.5-8.28 17.51-8.28s13.73 4.59 17.51 8.28C682.18 11.6 684.65 14 690 14c5.36 0 7.82-2.4 11.23-5.72 3.79-3.69 8.5-8.28 17.51-8.28 9.02 0 13.73 4.59 17.51 8.28 3.41 3.32 5.88 5.72 11.23 5.72 5.36 0 7.82-2.4 11.23-5.72C762.5 4.59 767.21 0 776.22 0c9.02 0 13.73 4.59 17.51 8.28 3.41 3.32 5.88 5.72 11.24 5.72s7.82-2.4 11.23-5.72C819.99 4.59 824.7 0 833.71 0c9.02 0 13.73 4.59 17.51 8.28 3.41 3.32 5.88 5.72 11.24 5.72s7.82-2.4 11.24-5.72C877.49 4.59 882.2 0 891.21 0c9.02 0 13.73 4.59 17.51 8.28 3.41 3.32 5.88 5.72 11.24 5.72s7.82-2.4 11.24-5.72C934.99 4.59 939.7 0 948.71 0s13.73 4.59 17.51 8.28c3.41 3.32 5.88 5.72 11.23 5.72s7.82-2.4 11.23-5.72c3.79-3.69 8.5-8.28 17.51-8.28s13.73 4.59 17.51 8.28c3.41 3.32 5.88 5.72 11.24 5.72s7.82-2.4 11.23-5.72c3.79-3.69 8.5-8.28 17.51-8.28s13.73 4.59 17.51 8.28c3.41 3.32 5.88 5.72 11.23 5.72s7.82-2.4 11.23-5.72c3.79-3.69 8.5-8.28 17.51-8.28s13.73 4.59 17.51 8.28c3.41 3.32 5.88 5.72 11.23 5.72v9z" fill="#e6e7e8"/></svg>