<svg xmlns="http://www.w3.org/2000/svg" viewBox="32.46 20.22 85.59 35.03"><path d="M36.64 46.52c-.01-3.47-.26-6.94-.36-10.41-.01-.34-.01-.68-.02-1.02l.15.36c.54 1.35 1.1 2.66 1.84 3.92.73 1.24 1.1 2.58 1.52 3.94-.16.18-.26.39-.2.6-.03.15.06.25.21.31.54.46 1.55.23 2.11-.01.24-.1.47-.22.7-.36.29-.18.74-.57.61-.98-.02-.08-.05-.16-.07-.24.4-1.07.6-2.18.81-3.31.23-1.21.66-2.34 1.09-3.49.04.52.09 1.04.13 1.57.17 2.15.03 4.27.01 6.42-.01.71.05 1.38.18 2.08.06.29.31 1.52.24 1.59-.52.48-.37 1.06.33 1.21.77.17 1.75-.09 2.33-.63 1.01-.93.53-2.4.3-3.57-.38-1.97.08-4.18.02-6.19-.07-2.26-.43-4.5-.4-6.77.02-1.83.33-3.71-.3-5.47l.12-.6c.16-.88-2.75-.41-3.21.39-.29.24-.44.52-.31.81.03.07.06.15.08.22-.55 2.7-1.32 5.31-2.21 7.93-.34 1-.75 1.98-1.09 2.98-.49-.93-.99-1.85-1.38-2.85-1.16-2.89-2.2-5.81-3.61-8.6.16-1.29-2.7-1.15-3.26.03-.68 1.43-.59 2.87-.37 4.39.25 1.72.3 3.41.32 5.15.04 3.35.3 6.69.35 10.04-.3.33-.39.74-.08 1.16.14.18.31.32.48.46.75.62 2.94.1 2.94-1.06zm18.19-18.37c-.09-.61-3.42.08-3.3.88.26 1.78.17 3.56.14 5.35-.03 1.72.39 3.28.62 4.97.23 1.73-.07 3.5.13 5.24.09.81.63 2.31.07 3.02-.35.45 1.24.29 1.31.28.65-.12 1.51-.33 1.94-.88.55-.7.17-2.04.05-2.83-.27-1.73-.1-3.54-.16-5.29-.06-1.68-.64-3.25-.65-4.95-.02-1.94.14-3.86-.15-5.79zm3.13 6.64c.91 2.51 4.65 1.33 6.55 1.47 3.24.24 2.27 4.61 2.31 6.64.02 1.09 1 2.89.18 3.8-.5.56-1.67.59-2.35.65-.69.06-1.85.26-2.31-.39-.84-1.19.08-3.2-.1-4.57-.1-.78-3.42-.08-3.3.88.29 2.21-1.18 5.17 2.02 5.56 2.06.24 4.37-.14 6.32-.78 1.01-.33 1.94-.79 2.73-1.51.87-.79.58-1.98.35-2.99-.57-2.46.62-5.29-.99-7.45-1.74-2.34-4.96-.66-7.21-1.3-1.16-.33-1.17-1.91-1.17-2.86 0-1.2-.1-2.3-.23-3.49-.1-.89-.02-1.79.63-2.45.12-.12.72-.28.68-.29.3-.05.57-.06.9-.08 1.3-.06 3.88.2 3.39 2.09-.23.85 3.03.36 3.27-.54 1.02-3.87-6.14-3.13-8.16-2.59-1.86.49-3.92 1.55-4.02 3.7-.05 1.03.23 2.01.27 3.02.04 1.18-.17 2.35.24 3.48zm14.45 1.87c-.05 1.8-.21 3.59-.22 5.39-.01.92.15 1.84.28 2.75.12.84.41 1.96.15 2.8-.2.65 3 .24 3.25-.59.46-1.5-.19-3.4-.34-4.92-.15-1.45-.03-2.95.07-4.42 1.71-.11 3.42-.25 5.12-.01.08 1.16.16 2.32.27 3.48.09.98.15 1.95.16 2.93.01.86.12 2.1-.18 2.91-.65 1.73 2.66 1.59 3.14.31.59-1.58.42-3.54.32-5.19-.13-2.06-.4-4.11-.47-6.17-.1-3.18-.58-6.33-.59-9.52-.01-1.66-3.34-1.1-3.33.29.01 3.04.42 6.04.57 9.07 0 .06.01.12.01.18-1.64-.02-3.28.15-4.93.21.17-3.9-.51-7.77-.36-11.67.02-.49-3.26-.08-3.3.88-.14 3.78.5 7.52.38 11.29zm14.08 5.37c-.25.26-.16.41.05.51 0 1.47-.05 2.95-.18 4.42-.4.63.39.96.91.96h.08c.62 0 2.21-.29 2.29-1.15.16-1.77.21-3.54.2-5.3 1.34-1.45 2.43-3.06 3.42-4.75.64 1.25 1.25 2.5 1.68 3.86.72 2.31 1.94 4.43 2.64 6.75.46 1.52 3.75.62 3.3-.88-.7-2.32-1.86-4.46-2.64-6.75-.79-2.32-2-4.36-3.05-6.57.84-1.64 1.7-3.28 2.47-4.96.7-1.52 1.22-3.22 2.59-4.29.48-.38.46-.75-.22-.8-.74-.05-1.74.16-2.33.63-1.25.97-2.04 2.16-2.69 3.59a126.4 126.4 0 0 1-2.46 5.12c-.06.12-.13.25-.19.37-.41.26-.66.64-.54 1.06-.67 1.32-1.35 2.63-2.1 3.88-.25-4.66-.8-9.32-.97-13.98-.04-1.07-3.34-.4-3.3.89.2 5.79 1.02 11.56 1.08 17.34-.01.02-.02.04-.04.05zm31.54-6.23c-.18-.7-1.16-.72-1.91-.65l-.03-.85c-.11-2.24-.14-4.53-.33-6.76-.18-2.07-1.33-2.81-3.35-2.73-2.04.08-4.4.44-6.3 1.18-2.2.85-3.42 2.47-3.84 4.78-.46 2.54.2 5.24.31 7.79.13 2.95.06 5.91.05 8.86 0 .48 3.3.03 3.3-.88 0-2.34.04-4.68 0-7.01-.01-.69-.04-1.37-.08-2.06 1.16-.5 3.11.01 4.25.12.93.09 1.83-.14 2.73-.24.02 1.95.09 3.91.17 5.85.04 1 .4 2.97-.3 3.8-.37.44 1.25.29 1.31.28.67-.12 1.48-.34 1.94-.88.8-.94.38-3.19.34-4.32-.07-1.61-.09-3.22-.12-4.83.97-.14 2.04-.73 1.86-1.45zm-6.67-.16c-1.93-.05-3.83-.35-5.65.04-.09-1.05-.18-2.1-.25-3.15-.13-1.96.1-4.7 1.93-5.9.49-.32 1.41-.26 1.98-.37.82-.15 1.65-.33 2.38.16 1.02.68.77 3.08.77 4.1 0 1.69.18 3.37.26 5.06-.46.04-.94.07-1.42.06zm-60.2-11.32c-.05.18.01.36.12.5v.11c0 .09.01.19.01.28.06.19.18.34.36.45.33.2.74.23 1.11.2.44-.04.88-.19 1.25-.44.07-.06.14-.12.22-.18.44-.28.82-.7.61-1.15-.42-.93-.36-1.88-.35-2.88 0-.81-.81-1.05-1.5-.99-.61.05-1.83.49-1.83 1.28-.01.84-.06 1.7.09 2.52-.04.1-.07.21-.09.3zm61.58 29.19c-1.56-.58-3.28-.62-4.85-.79-1.6-.17-3.25-.41-4.88-.56-1.64.05-3.31.03-4.97.13l-4.88.27c-6.49.29-13 .25-19.52.11-6.52-.12-13.04-.48-19.63-.45-3.29.01-6.57.1-9.86.25-1.63.28-3.24.5-4.9.91-1.62.4-3.14.91-4.79 1.05 1.62.36 3.34.29 4.96.3 1.58.01 3.24.14 4.87.23 3.23-.17 6.49-.25 9.73-.26 6.49-.02 13.01.33 19.57.45 6.55.15 13.11.19 19.68-.11l4.91-.27c1.6-.07 3.2-.13 4.83-.07 1.63-.15 3.25-.33 4.92-.53 1.66-.24 3.22-.63 4.85-.51l.07.01.01-.05c.02-.18-.04-.32-.04-.48-.05.11-.05.25-.08.37z"/></svg>