<svg xmlns="http://www.w3.org/2000/svg" viewBox="226 226.19 60 59.62"><path d="M226 269.87l27.44 15.93v-23.35L226 246.52v23.35zm51.35-31.24v2.45c0 1.82-3.46 3.29-7.73 3.29-4.27 0-7.73-1.47-7.73-3.29v-4.06h.02c.26 1.71 3.6 3.07 7.7 3.07 4.27 0 7.73-1.47 7.73-3.28 0-1.82-3.46-3.29-7.73-3.29-.34 0-.67.01-1 .03l-4.97-2.89v3.09c0 1.82-3.45 3.29-7.72 3.29-2.68 0-5.04-.58-6.43-1.47-.2-.2-.44-.4-.73-.59-.36-.38-.57-.8-.57-1.24v-2.99l-4.81 2.79c-.35-.02-.7-.03-1.05-.03-4.27 0-7.73 1.47-7.73 3.29 0 1.81 3.46 3.28 7.73 3.28 4.1 0 7.45-1.36 7.7-3.07h.02v4.06c0 1.82-3.46 3.29-7.73 3.29-4.27 0-7.73-1.47-7.73-3.29v-2.42l-5.95 3.45 27.53 15.99 27.35-15.88-6.17-3.58zm-13.65 10.16c0 1.82-3.46 3.29-7.73 3.29-4.27 0-7.73-1.47-7.73-3.29v-4.06h.02c.26 1.71 3.6 3.08 7.71 3.08 4.1 0 7.44-1.36 7.7-3.08h.02v4.06h.01zm-5.14 13.88v23.14L286 269.87v-23.14l-27.44 15.94zm-2.64-29.91c4.27 0 7.72-1.47 7.72-3.29 0-1.81-3.45-3.29-7.72-3.29s-7.73 1.47-7.73 3.29 3.46 3.29 7.73 3.29" fill="#231f20"/></svg>