<svg xmlns="http://www.w3.org/2000/svg" viewBox="239.67 239.76 32.67 32.49"><path d="M242.56 272.24h12.5v-13.91h-12.5v13.91zm28.18-23.62h-7.33c.52-.27.98-.55 1.4-.84 1.59-1.13 2.42-2.57 2.42-4 0-1.17-.56-2.2-1.36-2.9a4.59 4.59 0 0 0-3.02-1.12c-1.22 0-2.35.42-3.32 1.07-1.46.98-2.61 2.45-3.42 4.07l-.12.24c-.3-.62-.65-1.23-1.04-1.79-.69-.99-1.52-1.86-2.5-2.51-.97-.65-2.1-1.07-3.32-1.07-1.21 0-2.32.51-3.16 1.29-.83.78-1.41 1.88-1.41 3.13 0 .73.21 1.49.65 2.19.55.87 1.42 1.63 2.63 2.25h-6.59c-.88 0-1.59.71-1.59 1.59v5.9h15.4v-7.49h1.87v7.49h15.4v-5.9c0-.89-.71-1.6-1.59-1.6m-22.36-2.34c-.62-.39-1-.79-1.22-1.13a1.84 1.84 0 0 1-.3-.96c0-.5.25-1.04.69-1.46.44-.42 1.03-.67 1.56-.67h.01c.68 0 1.37.23 2.05.68 1.02.67 1.97 1.85 2.64 3.19.34.68.61 1.39.79 2.09-3.07-.33-5.07-1.01-6.22-1.74m10.54-1.62c.56-.8 1.21-1.47 1.89-1.92.68-.45 1.36-.68 2.05-.68h.01c.57 0 1.12.22 1.49.55.38.34.57.74.57 1.17 0 .51-.27 1.26-1.47 2.13-1.14.83-3.1 1.67-6.13 2.26.29-1.2.85-2.47 1.59-3.51m-1.98 27.58h12.51v-13.91h-12.51v13.91z" fill="#63d1bb"/></svg>