<svg xmlns="http://www.w3.org/2000/svg" viewBox="53.12 53.19 21.77 21.33"><path d="M74.88 65.34c-.01-2.39-.34-4.79-.3-7.13-.02-.79-.09-1.54-.15-2.28-.11-.3-.11-.7-.15-1.06-.26-.17-.22-.64-.46-.84-.42-.23-1.2-.11-1.74-.23-.66-.03-1.25-.12-1.9-.15-1.94-.1-3.97-.08-6-.08-2 0-3.95-.14-5.7-.38h-2.2c-.1 0-.11.1-.23.08-.6.03-1.08.19-1.59.3-.21.12-.42.24-.68.3-.14.19-.51.14-.61.38-.19.21.18.45 0 .61v.91c.17.13.03.58.08.83v.99c-.02 1.28.13 2.4.08 3.72.47 2.76.37 6.54.08 9.41.16.58.36 1.11.46 1.75.26.48.33 1.13.68 1.52.5.21 1.23.19 1.9.23.38.1.67.29 1.14.3 2.84-.21 5.5-.15 8.43-.23 2.7.24 5.8.19 8.28-.23.2-.13.13-.53.23-.76-.06-.38.21-.45.23-.76.1-2.38.13-4.78.12-7.2zM61.9 59.11c.76-.15 1.48-.34 2.43-.3.71.08 1.29.28 1.9.46.12.18-.24.55.15.68v.08c.06.02.15 0 .15.08.45.04.79.17 1.06.38.45.05.54.48 1.14.38-.09.21-.08.52-.08.83.32 1.18.47 2.81.3 4.25-.16.16-.21.44-.3.68-.31.32-.48.79-.84 1.06-.09.24-.25.41-.45.53-.12.21-.21.45-.46.53-.3.16-.58.01-.83-.08-.45.16-.9.31-1.21.61-.82-.1-1.65-.17-2.43-.3-.24-.14-.49-.27-.83-.3-.23-.2-.5-.36-.84-.46-.1-.13-.34-.12-.46-.23-.2-.03-.23-.23-.46-.23-.12-.41-.44-.62-.53-1.06-.23-.33-.31-.8-.46-1.21-.04-1.43.09-2.69.38-3.8.35-.59.78-1.09 1.14-1.67.25.02.37-.09.38-.3.31.05.43-.07.68-.08.27-.07.28-.39.47-.53zm-1.67-2.73c-.12-.26-.07-.69-.08-1.06-.01-.28.28-.28.3-.53 0-.07-.09-.06-.15-.08.13-.15.7-.1.83 0 .13.54-.35.46-.53.68.01.17.32.03.46.08.03.85-.06 1.5 0 2.2h-.46c-.01.23.23.23.46.23-.06.29.09.36.08.61-.23.15-.72.04-1.06.08-.11-.6.23-1.38.15-2.21zm-.68-1.6c.09-.01.13.02.15.08.18.25.01.68-.08.91-.17-.18-.03-.68-.07-.99zm.15 1.83c-.13-.07-.17-.24-.15-.46.13.07.16.24.15.46zm0 1.36c-.06.14-.08-.04-.08-.15.06-.14.08.05.08.15zm-.15.23c.17-.02.08.22.23.23-.01.19-.28.18-.38.08.03-.12.11-.2.15-.31zm-2.36-1.21c.01-.11.01-.21-.08-.23-.07-.73.13-1.41 0-1.97.25-.15.77-.04 1.14-.08v1.14c-.09.06-.2.1-.38.08-.05.28.32.13.38.3.01.85-.06 1.78.15 2.43-.57-.06-.91.11-1.44.08.1-.61-.02-1.43.53-1.59-.01-.15-.25-.06-.3-.16zm-.53 0c-.2.02-.22-.53-.08-.61.33 0 .25.5.08.61zm-.15.98c.08-.31.03-.3.08-.68.22.01.25.77-.08.68zm.23-2.05c-.26.05-.27-.27-.15-.38.26-.05.27.27.15.38zm0-1.14c.03.16-.05.2-.08.3-.18.02-.08-.22-.23-.23.03-.09.19-.05.31-.07zm-.23 3.72c.15-.03.11.34-.08.23.04-.06.08-.12.08-.23zm-.68-3.72c.03.26-.44.32-.38 0h.38zm-.99.08c-.03.22-.33.18-.38.38-.21-.17.08-.47.38-.38zm-.46.76c.23-.2.45-.41.68-.61-.02-.12.07-.13.08-.23h.23c.1.38-.26.3-.3.53.02.12-.07.13-.08.23.02.34.12.59.08.99-.27.01-.28.28-.61.23.02-.43-.13-.68-.08-1.14zm.08 3.26v-1.59c.2-.18.4-.36.61-.53.29.49.18 1.39.46 1.9-.28.15-.76.11-1.07.22zm18.22 11.09c-.11.95-.16 1.97-.38 2.81-2.89.12-6.02 0-8.88.15-.2.04-.27-.03-.23-.23-.25 0-.26.25-.53.23.2-.34.44-.9.15-1.29-.8.01-.8.82-1.14 1.29-.69-.05-1.14.13-1.82.08.18-.71.75-1.02.91-1.75-.39-.55-.99.14-1.21.46-.2.48-.56.81-.76 1.29h-.99c.24-.47.49-.93.76-1.37.17-.51.63-.74.68-1.37-.16-.28-.42-.03-.68 0-.12.18-.27.33-.38.53-.23.38-.5.71-.68 1.14-.18.21-.33 0-.53.23-.39.27-.58.74-.99.99-.17-.06.04-.36.15-.38.05-.18-.1-.55.08-.61.06-.37.21-.65.38-.91.12-.74.52-1.2.68-1.9-.56.1-.67.64-.99.99-.21.45-.54.77-.68 1.29-.17-.13-.03-.58-.08-.84.12-.59.3-1.12.38-1.75.13-.22.17-.54.23-.83.17-.21.05-.61-.08-.76-.23.03-.37.13-.46.3-.19-.03-.19.51-.3.3-.04-2.59-.45-4.81-.46-7.44.03-.33-.18-.42-.23-.68 1.63.03 3.12.09 4.78.23-.09.14-.2.26-.3.38-.14.07-.23.17-.38.3-.6 1.65-.98 3.98-.61 6.15.23.58.59 1.03.99 1.44.91.49 1.63 1.15 2.51 1.67 1.7.36 3.84.37 5.54 0 .24-.12.48-.23.68-.38 1.36-1.24 2.75-2.46 2.96-4.86V63.5c-.2-1.6-.69-2.91-1.75-3.64.33-.22 1.1.04 1.67.08.22.01.45.01.68 0 .41-.02.93-.06 1.44 0 .14.19.11.54.23.76-.06 1.68-.19 3.3-.15 5.09.1.45.13.99.23 1.44-.07.98-.22 1.9-.44 2.74zm.38-11.16c-.64-.12-1.23-.28-1.9-.38.07-.33.8-.01.99-.23.38-.22.29-.92.3-1.52.03-.35.11-.64.08-1.06-.4-.95-1.78-.42-2.89-.45-.22.72-.47 1.8-.3 2.66.17.49 1.02.29 1.52.46-.14.33-.69.06-.99.08-.3-.08-.71-.05-.99-.15-2.29.08-4.28 0-6.53.15.12-1.25.06-2.46-.08-3.64h3.11c-.34.36-.91.51-1.29.83-.44.24-.86.51-1.14.91.25.13.54-.25.76-.38.36-.07.48-.38.84-.46.42-.44 1.1-.63 1.67-.91.38-.02.7.01.99.08 1.28.01 2.46.13 3.8.08.61.15 1.45.07 1.97.3.11.3.23.58.3.91.02.98-.14 1.81-.22 2.72zm-5.85-3.72c.11-.05 0-.09 0 0zm0 0c-.53.15-1.02.35-1.37.68.49-.2 1.07-.31 1.37-.68zm1.07.61c.11-.05-.01-.1 0 0zm-1.75.91c.73-.16 1.18-.59 1.75-.91-.44.02-.59.32-.99.38-.22.21-.6.25-.76.53zm-.68-.84c-.11.05 0 .09 0 0zm-.69.61c.11-.05 0-.09 0 0zm-.07.07c.06.01.07-.03.08-.08-.07-.01-.08.04-.08.08zm-.08.08c.06.01.07-.03.08-.08-.07-.01-.07.03-.08.08zm-.83.61c.35-.13.61-.35.83-.61-.35.13-.61.35-.83.61zm2.27.99c.53-.05.75-.42 1.21-.53.28-.3.78-.38.99-.76-.56.02-.77.4-1.22.53-.27.29-.74.41-.98.76zm-2.27-.99c-.32-.08-.02.23 0 0zm-.54.38c.02.02.12-.04.08-.08-.02-.02-.11.04-.08.08zm2.81.61c-.11.04.01.09 0 0zm-1.14 1.82c-.22-.23-.68-.23-.99-.38-.7-.04-1.22.09-1.75.23-.3.15-.61.3-.91.45-.27.17-.44.42-.76.53-.21.22-.35.51-.68.61 0 .22-.17.28-.3.38-.09.12-.09.31-.23.38-.01.12.04.29-.08.3.11 1.51.29 2.95.68 4.18.29.62.98.85 1.44 1.29.59.3 1.33.44 2.13.53.28-.05.55-.11.91-.08 1.21-.21 2.1-.74 2.81-1.44.1-.28.25-.51.45-.68-.25-.67.29-1.1.46-1.6 0-1.34-.2-2.48-.61-3.42-.26-.58-.92-.75-1.37-1.14-.06-.02-.15 0-.15-.08-.25-.12-.71-.22-1.05-.06zm-3.41 4.32c-.11-.06-.11-.24-.15-.38.25-.07.12.24.15.38zm.07.31c.04-.12.08-.01.08.08-.04.11-.08 0-.08-.08zm.46-2.05c.01-.09.08-.04.08 0-.02.08-.08.04-.08 0zm1.67-2.13c-.2.26.04.58.08.84-.31-.04-.58-.89-.08-.84zm.38 3.95c-.04-.04.05-.1.08-.08.04.04-.06.1-.08.08zm.76 2.88c.03-.11.07.01.15 0-.02.1-.15.08-.15 0zm2.2-2.58c-.23-.06-.14.21-.38.15.07-.16.12-.34.23-.46.13.03.17.14.15.31zm-1.14-3.79c.21.12.44.22.61.38.08.22.24.36.38.53.06.78.18 1.49.15 2.35-.26.1-.44.27-.68.38-.78-.01-1.36-.21-1.9-.46-.17-.26-.36-.5-.53-.76v-1.06c.17-.18.32-.39.46-.61.23-.13.51-.2.45-.61-.04-.06-.08-.12-.08-.23.16.04.25.16.38.23.33.03.41-.19.76-.14z" fill="#231f20"/></svg>