<svg xmlns="http://www.w3.org/2000/svg" xmlns:xlink="http://www.w3.org/1999/xlink"><symbol id="icon-1" viewBox="8.01 4.35 31.97 37.3"><path d="M24 41.65c8.83 0 15.99-7.16 15.99-15.99-8.83 0-15.99 7.16-15.99 15.99zM12.64 20.78c0 2.45 1.99 4.44 4.44 4.44.93 0 1.8-.29 2.51-.78l-.04.34c0 2.45 1.99 4.44 4.44 4.44s4.44-1.99 4.44-4.44l-.04-.34c.72.5 1.58.78 2.51.78 2.45 0 4.44-1.99 4.44-4.44 0-1.77-1.04-3.29-2.54-4a4.44 4.44 0 0 0 2.54-4c0-2.45-1.99-4.44-4.44-4.44-.93 0-1.8.29-2.51.78l.04-.34c0-2.45-1.99-4.44-4.44-4.44s-4.44 1.99-4.44 4.44l.04.34c-.72-.5-1.58-.78-2.51-.78-2.45 0-4.44 1.99-4.44 4.44 0 1.77 1.04 3.29 2.54 4-1.5.71-2.54 2.23-2.54 4zM24 12.34c2.45 0 4.44 1.99 4.44 4.44s-1.99 4.44-4.44 4.44-4.44-1.99-4.44-4.44 1.99-4.44 4.44-4.44zM8.01 25.66c0 8.83 7.16 15.99 15.99 15.99 0-8.83-7.16-15.99-15.99-15.99z" fill="#63d1bb"/></symbol><symbol id="icon-2" viewBox="46.21 56.83 46.58 27.33"><path d="M88.88 56.83H50.12c-2.16 0-3.9 1.75-3.9 3.9v19.52c0 2.16 1.75 3.91 3.9 3.91h38.77a3.91 3.91 0 0 0 3.91-3.91V60.74a3.924 3.924 0 0 0-3.92-3.91zM49.24 81.78V59.55h40.2v22.23h-40.2z"/><path d="M53.14 77.88h32.39V63.46H53.14v14.42zM69.5 65.35a5.31 5.31 0 1 1 0 10.62c-2.94 0-5.31-2.38-5.31-5.31 0-2.93 2.37-5.31 5.31-5.31z"/></symbol><symbol id="icon-3" viewBox="47.48 50.07 33.05 27.86"><path d="M80.53 58.81c0-4.83-3.91-8.74-8.74-8.74-3.41 0-6.35 1.95-7.79 4.79a8.723 8.723 0 0 0-7.79-4.79c-4.82 0-8.74 3.91-8.74 8.74 0 9.13 14.66 19.12 16.52 19.12 1.88 0 16.54-9.95 16.54-19.12z" fill="#63d1bb"/></symbol><symbol id="icon-4" viewBox="0 0 34.37 34.37"><path d="M.29 14.07c-.38 2.07-.38 4.21.01 6.3l4.12-3.21-4.13-3.09zM24.4 1.59c-4.78-2.21-10.44-2.15-15.25.4l7.51 5.63 7.74-6.03zm9.5 11.58l-4.81 3.75 4.94 3.69a17.3 17.3 0 0 0-.13-7.44zM9.21 32.41c4.84 2.53 10.72 2.65 15.73.11l-8.1-6.06-7.63 5.95zm-1.3-17.98L1.68 9.77c-.32.67-.6 1.36-.82 2.06l5.31 3.97 1.74-1.37zM18.59 25.1l8.34 6.24c.28-.19.55-.39.82-.6.32-.25.63-.5.92-.77l-8.33-6.23-1.75 1.36zm-7.18-13.39L4 6.16c-.46.55-.88 1.13-1.27 1.72l6.93 5.19 1.75-1.36zm10.68 10.67l8.09 6.06c.47-.54.9-1.11 1.3-1.7l-7.64-5.72-1.75 1.36zm-7.18-13.4L7.2 3.2c-.2.14-.39.28-.58.43-.39.31-.77.63-1.13.97l7.68 5.75 1.74-1.37zm10.68 10.67l6.97 5.22c.33-.66.62-1.34.86-2.03l-6.08-4.55-1.75 1.36zm.86-16.94L.88 22.63c.23.7.51 1.39.84 2.06L28.24 4.02c-.57-.48-1.17-.92-1.79-1.31zm4.29 3.91c-.3-.39-.61-.75-.94-1.11L2.79 26.57c.26.4.54.8.84 1.18.14.18.29.36.44.53l27.09-21.1c-.14-.19-.27-.37-.42-.56zM32.3 9L5.55 29.84c.54.5 1.11.96 1.71 1.38l25.96-20.23c-.26-.68-.57-1.34-.92-1.99z"/></symbol><symbol id="icon-5" viewBox="612.53 500.39 54.16 23.18"><path d="M652.84 506.1c-3.65-.97-7.84-1.67-12.36-1.67-2.89 0-5.46.24-7.71.62l-6.78-4.67-13.46.01 5.81 6.18h8.45c-4.58 1.6-6.76 3.51-6.76 3.51v3.78s2.31 1.91 6.93 3.52h-8.62l-5.81 6.19h13.46l6.82-4.69c2.26.4 4.82.65 7.68.65 4.52 0 8.71-.7 12.36-1.67-1.18-1.78-1.91-3.74-1.92-5.88 0-2.14.74-4.11 1.91-5.88zm3.43 1.03c-1.28 1.6-1.97 3.25-1.96 4.84-.01 1.6.68 3.24 1.97 4.85 6.4-2.16 10.42-4.84 10.42-4.84s-4.03-2.68-10.43-4.85z"/></symbol><symbol id="icon-6" viewBox="239.67 239.76 32.67 32.49"><path d="M242.56 272.24h12.5v-13.91h-12.5v13.91zm28.18-23.62h-7.33c.52-.27.98-.55 1.4-.84 1.59-1.13 2.42-2.57 2.42-4 0-1.17-.56-2.2-1.36-2.9a4.59 4.59 0 0 0-3.02-1.12c-1.22 0-2.35.42-3.32 1.07-1.46.98-2.61 2.45-3.42 4.07l-.12.24c-.3-.62-.65-1.23-1.04-1.79-.69-.99-1.52-1.86-2.5-2.51-.97-.65-2.1-1.07-3.32-1.07-1.21 0-2.32.51-3.16 1.29-.83.78-1.41 1.88-1.41 3.13 0 .73.21 1.49.65 2.19.55.87 1.42 1.63 2.63 2.25h-6.59c-.88 0-1.59.71-1.59 1.59v5.9h15.4v-7.49h1.87v7.49h15.4v-5.9c0-.89-.71-1.6-1.59-1.6m-22.36-2.34c-.62-.39-1-.79-1.22-1.13a1.84 1.84 0 0 1-.3-.96c0-.5.25-1.04.69-1.46.44-.42 1.03-.67 1.56-.67h.01c.68 0 1.37.23 2.05.68 1.02.67 1.97 1.85 2.64 3.19.34.68.61 1.39.79 2.09-3.07-.33-5.07-1.01-6.22-1.74m10.54-1.62c.56-.8 1.21-1.47 1.89-1.92.68-.45 1.36-.68 2.05-.68h.01c.57 0 1.12.22 1.49.55.38.34.57.74.57 1.17 0 .51-.27 1.26-1.47 2.13-1.14.83-3.1 1.67-6.13 2.26.29-1.2.85-2.47 1.59-3.51m-1.98 27.58h12.51v-13.91h-12.51v13.91z" fill="#63d1bb"/></symbol></svg>