<svg xmlns="http://www.w3.org/2000/svg" viewBox="0 0 1150 34"><path d="M1121.25 0c-14.38 0-14.38 14-28.75 14s-14.37-14-28.75-14-14.37 14-28.75 14-14.38-14-28.75-14-14.37 14-28.75 14c-14.37 0-14.37-14-28.75-14-14.37 0-14.37 14-28.75 14S905.64 0 891.26 0c-14.37 0-14.37 14-28.75 14S848.14 0 833.76 0c-14.37 0-14.37 14-28.74 14-14.38 0-14.38-14-28.75-14s-14.37 14-28.74 14-14.37-14-28.75-14-14.37 14-28.75 14c-14.37 0-14.37-14-28.75-14-14.37 0-14.37 14-28.75 14S618.15 0 603.78 0s-14.37 14-28.75 14c-14.37 0-14.37-14-28.75-14-14.37 0-14.37 14-28.75 14-14.37 0-14.37-14-28.75-14s-14.38 14-28.75 14c-14.38 0-14.38-14-28.75-14-14.38 0-14.38 14-28.75 14-14.38 0-14.38-14-28.75-14-14.38 0-14.38 14-28.75 14-14.38 0-14.38-14-28.75-14s-14.38 14-28.75 14c-14.38 0-14.38-14-28.75-14s-14.37 14-28.75 14-14.38-14-28.75-14c-14.38 0-14.38 14-28.75 14-14.38 0-14.38-14-28.75-14-14.38 0-14.38 14-28.75 14-14.38 0-14.38-14-28.76-14C71.9 0 71.9 14 57.52 14S43.14 0 28.76 0 14.38 14 0 14v20h1150V14c-14.37 0-14.37-14-28.75-14z" fill="#fff"/></svg>